<svg xmlns="http://www.w3.org/2000/svg" width="862" height="531"><g fill="none" fill-rule="evenodd"><path d="M0 0h862v459H0z"/><path fill="#FFF" d="M124.199 446v-26.288h5.45c3.932 0 6.786.315 8.56.947 2.55.893 4.543 2.442 5.979 4.646 1.435 2.204 2.153 4.831 2.153 7.881 0 2.633-.569 4.95-1.706 6.952-1.138 2.002-2.616 3.48-4.433 4.432-1.816.953-4.363 1.43-7.64 1.43H124.2zm2.52-2.484h3.038c3.634 0 6.153-.226 7.56-.68 1.977-.643 3.532-1.801 4.664-3.475 1.132-1.674 1.697-3.72 1.697-6.139 0-2.538-.613-4.706-1.84-6.505-1.227-1.799-2.937-3.032-5.13-3.7-1.643-.5-4.354-.75-8.13-.75h-1.86v21.249zm40.674-3.967l2.11 1.108c-.692 1.358-1.49 2.454-2.396 3.288a9.51 9.51 0 0 1-3.056 1.903c-1.131.435-2.412.652-3.842.652-3.169 0-5.647-1.04-7.434-3.118-1.787-2.08-2.68-4.43-2.68-7.05 0-2.466.756-4.665 2.269-6.595 1.918-2.454 4.485-3.681 7.702-3.681 3.312 0 5.957 1.257 7.935 3.77 1.406 1.776 2.12 3.992 2.145 6.649h-17.478c.047 2.263.768 4.119 2.162 5.567 1.394 1.447 3.115 2.17 5.165 2.17.989 0 1.95-.172 2.886-.517.935-.346 1.73-.805 2.386-1.376.655-.572 1.364-1.496 2.126-2.77zm0-5.237c-.333-1.334-.819-2.4-1.456-3.199-.638-.798-1.48-1.441-2.529-1.93a7.737 7.737 0 0 0-3.306-.732c-1.906 0-3.544.613-4.915 1.84-1 .894-1.757 2.234-2.27 4.021h14.476zm26.289-3.717l-1.984 1.233c-1.716-2.275-4.057-3.413-7.023-3.413-2.371 0-4.34.762-5.907 2.287-1.566 1.525-2.35 3.378-2.35 5.558a7.89 7.89 0 0 0 1.081 4.003 7.579 7.579 0 0 0 2.967 2.913c1.257.691 2.666 1.037 4.227 1.037 2.859 0 5.194-1.138 7.005-3.413l1.984 1.304c-.93 1.394-2.178 2.475-3.744 3.244-1.567.768-3.351 1.152-5.353 1.152-3.073 0-5.623-.977-7.648-2.93-2.026-1.954-3.039-4.331-3.039-7.131 0-1.882.474-3.63 1.421-5.245a10.01 10.01 0 0 1 3.905-3.78c1.656-.905 3.509-1.358 5.558-1.358 1.287 0 2.529.196 3.726.59 1.197.393 2.213.905 3.047 1.537.834.631 1.543 1.435 2.127 2.412zm21.177 8.954l2.109 1.108c-.691 1.358-1.49 2.454-2.395 3.288a9.51 9.51 0 0 1-3.056 1.903c-1.132.435-2.413.652-3.842.652-3.17 0-5.647-1.04-7.435-3.118-1.787-2.08-2.68-4.43-2.68-7.05 0-2.466.756-4.665 2.27-6.595 1.918-2.454 4.485-3.681 7.702-3.681 3.312 0 5.957 1.257 7.935 3.77 1.405 1.776 2.12 3.992 2.144 6.649h-17.478c.048 2.263.769 4.119 2.163 5.567 1.394 1.447 3.115 2.17 5.164 2.17.99 0 1.951-.172 2.887-.517.935-.346 1.73-.805 2.385-1.376.656-.572 1.364-1.496 2.127-2.77zm0-5.237c-.334-1.334-.82-2.4-1.457-3.199-.637-.798-1.48-1.441-2.528-1.93a7.737 7.737 0 0 0-3.306-.732c-1.907 0-3.545.613-4.915 1.84-1 .894-1.757 2.234-2.27 4.021h14.476zm7.416-7.756h2.502v3.485c1.001-1.334 2.11-2.332 3.324-2.993a8.168 8.168 0 0 1 3.968-.992c1.453 0 2.743.37 3.869 1.108a6.6 6.6 0 0 1 2.493 2.984c.536 1.251.804 3.2.804 5.844V446h-2.484v-9.275c0-2.24-.095-3.735-.286-4.486-.298-1.286-.858-2.254-1.68-2.904-.822-.65-1.894-.974-3.217-.974-1.513 0-2.868.5-4.065 1.501-1.198 1.001-1.987 2.24-2.368 3.718-.238.965-.358 2.728-.358 5.29V446h-2.502v-19.444zm24.502-7.22h2.52v7.22h3.967v2.145h-3.967V446h-2.52v-17.3h-3.414v-2.144h3.414v-7.22zm9.275 7.22h2.555v2.842c.763-1.12 1.567-1.957 2.413-2.511.846-.554 1.728-.831 2.645-.831.691 0 1.43.22 2.216.661l-1.305 2.109c-.524-.226-.965-.34-1.322-.34-.834 0-1.638.343-2.413 1.028-.774.685-1.364 1.748-1.769 3.19-.31 1.108-.465 3.348-.465 6.72V446h-2.555v-19.444zm31.328 0V446h-2.466v-3.342c-1.049 1.275-2.225 2.234-3.53 2.877-1.304.644-2.731.965-4.28.965-2.752 0-5.102-.997-7.05-2.993-1.948-1.996-2.922-4.423-2.922-7.282 0-2.8.983-5.195 2.949-7.185 1.965-1.99 4.33-2.984 7.094-2.984 1.597 0 3.042.34 4.334 1.019 1.293.679 2.428 1.697 3.405 3.055v-3.574h2.466zm-10.008 1.912a7.55 7.55 0 0 0-6.675 3.914 7.9 7.9 0 0 0-1.045 3.932c0 1.37.351 2.68 1.054 3.932.703 1.25 1.647 2.224 2.833 2.921a7.402 7.402 0 0 0 3.815 1.046c1.37 0 2.669-.346 3.896-1.037 1.227-.69 2.171-1.626 2.833-2.805.66-1.18.992-2.508.992-3.986 0-2.251-.742-4.134-2.225-5.647-1.484-1.513-3.31-2.27-5.478-2.27zm15.262-9.418h2.502V446h-2.502v-26.95zm8.578-.5c.572 0 1.06.203 1.466.608.405.405.607.893.607 1.465 0 .56-.202 1.043-.607 1.448a1.997 1.997 0 0 1-1.466.607c-.56 0-1.042-.202-1.447-.607a1.977 1.977 0 0 1-.608-1.448c0-.572.202-1.06.608-1.465a1.977 1.977 0 0 1 1.447-.608zm-1.25 8.006h2.519V446h-2.52v-19.444zm6.111 0h14.279l-11.009 17.228h10.652V446h-14.958l11.008-17.246h-9.972v-2.198zm33.508 12.993l2.11 1.108c-.692 1.358-1.49 2.454-2.396 3.288a9.51 9.51 0 0 1-3.056 1.903c-1.131.435-2.412.652-3.842.652-3.169 0-5.647-1.04-7.434-3.118-1.787-2.08-2.68-4.43-2.68-7.05 0-2.466.756-4.665 2.269-6.595 1.918-2.454 4.485-3.681 7.702-3.681 3.312 0 5.957 1.257 7.935 3.77 1.406 1.776 2.12 3.992 2.144 6.649h-17.477c.047 2.263.768 4.119 2.162 5.567 1.394 1.447 3.115 2.17 5.165 2.17.989 0 1.95-.172 2.886-.517.935-.346 1.73-.805 2.386-1.376.655-.572 1.364-1.496 2.126-2.77zm0-5.237c-.333-1.334-.819-2.4-1.456-3.199-.638-.798-1.48-1.441-2.529-1.93a7.737 7.737 0 0 0-3.306-.732c-1.906 0-3.544.613-4.915 1.84-1 .894-1.757 2.234-2.27 4.021h14.476zm26.825-15.262V446h-2.466v-3.342c-1.049 1.275-2.225 2.234-3.53 2.877-1.304.644-2.731.965-4.28.965-2.752 0-5.102-.997-7.05-2.993-1.948-1.996-2.922-4.423-2.922-7.282 0-2.8.983-5.195 2.949-7.185 1.965-1.99 4.33-2.984 7.094-2.984 1.597 0 3.042.34 4.334 1.019 1.293.679 2.428 1.697 3.405 3.055v-11.08h2.466zm-10.008 9.418a7.55 7.55 0 0 0-6.675 3.914 7.9 7.9 0 0 0-1.045 3.932c0 1.37.351 2.68 1.054 3.932.703 1.25 1.647 2.224 2.833 2.921a7.402 7.402 0 0 0 3.815 1.046c1.37 0 2.669-.346 3.896-1.037 1.227-.69 2.171-1.626 2.833-2.805.66-1.18.991-2.508.991-3.986 0-2.251-.741-4.134-2.224-5.647-1.484-1.513-3.31-2.27-5.478-2.27zm26.217-8.756h2.68v9.864l10.49-9.864h3.557l-12.635 11.795L400.325 446h-3.485l-11.544-12.26V446h-2.681v-26.288zm21.213 6.844h2.502v3.485c1-1.334 2.109-2.332 3.324-2.993a8.168 8.168 0 0 1 3.967-.992c1.454 0 2.743.37 3.87 1.108a6.6 6.6 0 0 1 2.492 2.984c.537 1.251.805 3.2.805 5.844V446h-2.484v-9.275c0-2.24-.096-3.735-.286-4.486-.298-1.286-.858-2.254-1.68-2.904-.822-.65-1.895-.974-3.217-.974-1.513 0-2.868.5-4.066 1.501-1.197 1.001-1.986 2.24-2.368 3.718-.238.965-.357 2.728-.357 5.29V446h-2.502v-19.444zm31.525-.5c2.99 0 5.468 1.084 7.434 3.252 1.787 1.978 2.68 4.32 2.68 7.024 0 2.716-.944 5.09-2.832 7.121-1.888 2.032-4.316 3.047-7.282 3.047-2.979 0-5.412-1.015-7.3-3.047-1.89-2.031-2.833-4.405-2.833-7.121 0-2.693.893-5.028 2.68-7.006 1.966-2.18 4.45-3.27 7.453-3.27zm0 2.448c-2.074 0-3.855.769-5.344 2.306-1.49 1.536-2.234 3.395-2.234 5.575a7.93 7.93 0 0 0 1.019 3.932c.679 1.215 1.596 2.153 2.752 2.815 1.156.66 2.424.992 3.807.992 1.382 0 2.65-.331 3.806-.992 1.156-.662 2.073-1.6 2.752-2.815a7.93 7.93 0 0 0 1.019-3.932c0-2.18-.748-4.039-2.243-5.575-1.495-1.537-3.273-2.306-5.334-2.306zm12.134-1.948h2.573l5.952 14.118 6.237-14.118h.446l6.22 14.118 6.058-14.118h2.609L469.147 446h-.483l-6.183-13.922L456.244 446h-.465l-8.292-19.444zm32.668-7.506h2.502V446h-2.502v-26.95zm24.073 20.499l2.109 1.108c-.692 1.358-1.49 2.454-2.395 3.288a9.51 9.51 0 0 1-3.056 1.903c-1.132.435-2.413.652-3.842.652-3.17 0-5.648-1.04-7.435-3.118-1.787-2.08-2.68-4.43-2.68-7.05 0-2.466.756-4.665 2.27-6.595 1.917-2.454 4.485-3.681 7.702-3.681 3.312 0 5.957 1.257 7.934 3.77 1.406 1.776 2.121 3.992 2.145 6.649h-17.478c.048 2.263.768 4.119 2.162 5.567 1.394 1.447 3.116 2.17 5.165 2.17.989 0 1.951-.172 2.886-.517.936-.346 1.73-.805 2.386-1.376.655-.572 1.364-1.496 2.127-2.77zm0-5.237c-.334-1.334-.82-2.4-1.457-3.199-.637-.798-1.48-1.441-2.529-1.93a7.737 7.737 0 0 0-3.306-.732c-1.906 0-3.544.613-4.914 1.84-1.001.894-1.758 2.234-2.27 4.021h14.476zm26.824-15.262V446h-2.466v-3.342c-1.048 1.275-2.225 2.234-3.53 2.877-1.304.644-2.73.965-4.28.965-2.752 0-5.102-.997-7.05-2.993-1.948-1.996-2.922-4.423-2.922-7.282 0-2.8.983-5.195 2.949-7.185 1.966-1.99 4.33-2.984 7.095-2.984 1.596 0 3.04.34 4.334 1.019 1.292.679 2.427 1.697 3.404 3.055v-11.08h2.466zm-10.008 9.418a7.55 7.55 0 0 0-6.674 3.914 7.9 7.9 0 0 0-1.046 3.932c0 1.37.352 2.68 1.054 3.932.703 1.25 1.648 2.224 2.833 2.921a7.402 7.402 0 0 0 3.816 1.046c1.37 0 2.668-.346 3.895-1.037 1.228-.69 2.172-1.626 2.833-2.805.661-1.18.992-2.508.992-3.986 0-2.251-.742-4.134-2.225-5.647s-3.31-2.27-5.478-2.27zm32.419-1.912h2.52v15.494c0 2.729-.239 4.724-.715 5.987-.656 1.787-1.793 3.163-3.414 4.129-1.62.965-3.568 1.447-5.844 1.447-1.668 0-3.166-.235-4.494-.706-1.329-.47-2.41-1.102-3.244-1.894-.834-.792-1.602-1.951-2.305-3.476h2.716c.739 1.287 1.692 2.24 2.86 2.86 1.167.619 2.615.929 4.342.929 1.704 0 3.143-.32 4.316-.957 1.174-.637 2.01-1.438 2.511-2.403.5-.965.75-2.52.75-4.665v-1a9.47 9.47 0 0 1-3.449 2.743c-1.358.637-2.8.956-4.324.956-1.787 0-3.467-.444-5.04-1.331-1.573-.888-2.788-2.082-3.646-3.584-.858-1.5-1.286-3.15-1.286-4.95 0-1.799.446-3.476 1.34-5.03a9.847 9.847 0 0 1 3.708-3.69c1.579-.906 3.244-1.36 4.995-1.36 1.454 0 2.809.302 4.066.903 1.257.602 2.469 1.594 3.637 2.976v-3.378zm-7.381 1.912a7.91 7.91 0 0 0-3.95 1.028 7.445 7.445 0 0 0-2.86 2.842 7.774 7.774 0 0 0-1.036 3.922c0 2.133.715 3.896 2.145 5.29 1.43 1.394 3.282 2.091 5.558 2.091 2.3 0 4.149-.691 5.549-2.073 1.4-1.382 2.1-3.199 2.1-5.45 0-1.466-.322-2.774-.965-3.923a7.032 7.032 0 0 0-2.735-2.726 7.606 7.606 0 0 0-3.806-1zm31.632 11.08l2.108 1.109c-.69 1.358-1.489 2.454-2.394 3.288a9.51 9.51 0 0 1-3.056 1.903c-1.132.435-2.413.652-3.843.652-3.169 0-5.647-1.04-7.434-3.118-1.787-2.08-2.68-4.43-2.68-7.05 0-2.466.756-4.665 2.27-6.595 1.917-2.454 4.485-3.681 7.702-3.681 3.312 0 5.957 1.257 7.934 3.77 1.406 1.776 2.121 3.992 2.145 6.649h-17.478c.048 2.263.768 4.119 2.162 5.567 1.394 1.447 3.116 2.17 5.165 2.17.989 0 1.95-.172 2.886-.517.935-.346 1.73-.805 2.386-1.376.655-.572 1.364-1.496 2.127-2.77zm0-5.236c-.334-1.334-.82-2.4-1.457-3.199-.637-.798-1.48-1.441-2.529-1.93a7.737 7.737 0 0 0-3.306-.732c-1.906 0-3.544.613-4.914 1.84-1.001.894-1.758 2.234-2.27 4.021h14.476zM595.692 446v-26.288h.572l17.478 20.122v-20.122h2.591V446h-.59l-17.335-19.873V446h-2.716zm43.016-6.451l2.108 1.108c-.69 1.358-1.489 2.454-2.394 3.288a9.51 9.51 0 0 1-3.056 1.903c-1.132.435-2.413.652-3.842.652-3.17 0-5.648-1.04-7.435-3.118-1.787-2.08-2.68-4.43-2.68-7.05 0-2.466.756-4.665 2.27-6.595 1.917-2.454 4.485-3.681 7.702-3.681 3.312 0 5.957 1.257 7.934 3.77 1.406 1.776 2.121 3.992 2.145 6.649h-17.478c.048 2.263.768 4.119 2.162 5.567 1.394 1.447 3.116 2.17 5.165 2.17.989 0 1.951-.172 2.886-.517.936-.346 1.73-.805 2.386-1.376.655-.572 1.364-1.496 2.127-2.77zm0-5.237c-.334-1.334-.82-2.4-1.457-3.199-.637-.798-1.48-1.441-2.529-1.93a7.737 7.737 0 0 0-3.306-.732c-1.906 0-3.544.613-4.914 1.84-1.001.894-1.758 2.234-2.27 4.021h14.476zm9.596-14.976h2.52v7.22h3.968v2.145h-3.968V446h-2.52v-17.3h-3.413v-2.144h3.413v-7.22zm7.596 7.22h2.573l5.951 14.118 6.237-14.118h.447l6.22 14.118 6.057-14.118h2.61L677.559 446h-.482l-6.183-13.922L664.657 446h-.465l-8.292-19.444zm42.247-.5c2.99 0 5.468 1.084 7.434 3.252 1.787 1.978 2.681 4.32 2.681 7.024 0 2.716-.944 5.09-2.833 7.121-1.888 2.032-4.315 3.047-7.282 3.047-2.979 0-5.412-1.015-7.3-3.047-1.889-2.031-2.833-4.405-2.833-7.121 0-2.693.894-5.028 2.68-7.006 1.967-2.18 4.45-3.27 7.453-3.27zm0 2.448c-2.073 0-3.854.769-5.344 2.306-1.489 1.536-2.233 3.395-2.233 5.575a7.93 7.93 0 0 0 1.018 3.932c.68 1.215 1.597 2.153 2.752 2.815 1.156.66 2.425.992 3.807.992 1.382 0 2.65-.331 3.806-.992 1.156-.662 2.074-1.6 2.753-2.815a7.93 7.93 0 0 0 1.018-3.932c0-2.18-.747-4.039-2.243-5.575-1.495-1.537-3.273-2.306-5.334-2.306zm13.814-1.948h2.556v2.842c.762-1.12 1.567-1.957 2.412-2.511.846-.554 1.728-.831 2.645-.831.691 0 1.43.22 2.216.661l-1.304 2.109c-.524-.226-.965-.34-1.323-.34-.834 0-1.638.343-2.412 1.028-.775.685-1.364 1.748-1.77 3.19-.31 1.108-.464 3.348-.464 6.72V446h-2.556v-19.444zm11.938-7.506h2.52v15.334l8.99-7.828h3.68l-10.668 9.275L739.715 446h-3.538l-9.758-8.739V446h-2.52v-26.95zM121.156 294.426l17.587-10.54c12.381 22.767 26.685 34.15 42.912 34.15 6.942 0 13.46-1.616 19.557-4.848 6.097-3.232 10.74-7.566 13.93-13 3.188-5.434 4.783-11.196 4.783-17.286 0-6.934-2.345-13.726-7.035-20.379-6.472-9.182-18.29-20.237-35.455-33.167-17.26-13.023-28-22.44-32.22-28.248-7.316-9.745-10.974-20.285-10.974-31.622 0-8.994 2.157-17.192 6.472-24.594 4.314-7.402 10.388-13.234 18.22-17.497 7.832-4.264 16.344-6.395 25.536-6.395 9.755 0 18.877 2.413 27.366 7.238 8.489 4.825 17.47 13.702 26.943 26.632l-16.883 12.79c-7.786-10.307-14.422-17.1-19.909-20.38-5.487-3.278-11.467-4.918-17.939-4.918-8.348 0-15.172 2.53-20.471 7.59-5.3 5.059-7.95 11.29-7.95 18.69 0 4.498.938 8.855 2.814 13.071 1.876 4.216 5.3 8.807 10.271 13.773 2.72 2.623 11.631 9.51 26.733 20.66 17.915 13.21 30.203 24.968 36.862 35.275 6.66 10.306 9.99 20.66 9.99 31.059 0 14.991-5.698 28.014-17.095 39.07-11.396 11.056-25.255 16.584-41.576 16.584-12.569 0-23.965-3.35-34.19-10.049-10.223-6.699-19.65-17.919-28.28-33.66zm284.536-12.227l16.602 8.713c-5.44 10.681-11.725 19.301-18.853 25.86-7.13 6.558-15.149 11.547-24.06 14.967-8.91 3.42-18.994 5.13-30.25 5.13-24.95 0-44.46-8.175-58.53-24.524-14.07-16.35-21.104-34.83-21.104-55.443 0-19.395 5.956-36.68 17.869-51.86 15.101-19.3 35.314-28.95 60.64-28.95 26.076 0 46.899 9.884 62.47 29.653 11.068 13.96 16.695 31.387 16.883 52.281H289.758c.375 17.802 6.05 32.394 17.024 43.778s24.528 17.076 40.661 17.076c7.786 0 15.36-1.359 22.723-4.076 7.363-2.717 13.624-6.324 18.783-10.821 5.159-4.498 10.74-11.759 16.743-21.784zm0-41.178c-2.627-10.494-6.449-18.88-11.467-25.157-5.018-6.277-11.654-11.337-19.909-15.178-8.254-3.841-16.93-5.762-26.029-5.762-15.007 0-27.904 4.825-38.691 14.475-7.88 7.027-13.835 17.568-17.869 31.622h113.965zm46.195 91.913L481.293 126.2h3.377l84.136 169.631 18.383-37.437 20.994.085-36.844 74.455h-5.206l-74.147-148.972-20.12 148.972h-19.979zM721.15 126.2h20.682v206.734H721.15V126.2zm-40.313 176.608c1.562.808 3.013 1.887 4.351 3.236 3.336 3.363 5.004 7.474 5.004 12.331 0 4.764-1.668 8.851-5.004 12.261-3.335 3.41-7.366 5.114-12.092 5.114-4.726 0-8.756-1.704-12.092-5.114-3.336-3.41-5.004-7.497-5.004-12.26 0-4.858 1.668-8.969 5.004-12.332l.064-.064L644.5 185.086 626.35 221.77c.562 1.743.843 3.612.843 5.606 0 4.764-1.668 8.851-5.004 12.261-3.335 3.41-7.366 5.114-12.092 5.114-4.726 0-8.756-1.704-12.092-5.114-3.336-3.41-5.004-7.497-5.004-12.26 0-4.858 1.668-8.969 5.004-12.332 3.336-3.363 7.366-5.044 12.092-5.044.285 0 .567.006.846.018l28.487-58.016c-.467-.39-.923-.81-1.366-1.26-3.376-3.422-5.063-7.523-5.063-12.304 0-4.876 1.687-9 5.063-12.375 3.375-3.376 7.453-5.063 12.234-5.063s8.86 1.687 12.234 5.063c3.375 3.375 5.063 7.5 5.063 12.374 0 4.782-1.688 8.883-5.063 12.305a18.138 18.138 0 0 1-3.161 2.576l21.467 149.49z"/></g></svg>