<svg xmlns="http://www.w3.org/2000/svg" width="1273" height="459" viewBox="0 0 1273 459">
  <g fill="none" fill-rule="evenodd">
    <rect width="1273" height="459" fill="#FFF"/>
    <path fill="#2E3536" d="M5.11303711,60.4000015 L5.11303711,18.381691 L13.8251953,18.381691 C20.1094064,18.381691 24.6701518,18.8863246 27.5075684,19.895607 C31.582784,21.3238368 34.7676887,23.799398 37.0623779,27.3223648 C39.3570671,30.8453316 40.5043945,35.0442643 40.5043945,39.9192886 C40.5043945,44.1278058 39.5951019,47.8316262 37.7764893,51.0308609 C35.9578766,54.2300956 33.5965721,56.5914002 30.6925049,58.1148453 C27.7884376,59.6382904 23.7180438,60.4000015 18.4812012,60.4000015 L5.11303711,60.4000015 Z M9.140625,56.4295425 L13.996582,56.4295425 C19.8047165,56.4295425 23.8322642,56.0677298 26.0793457,55.3440933 C29.2404943,54.3157679 31.7255769,52.4638577 33.534668,49.7883072 C35.343759,47.1127567 36.248291,43.8421595 36.248291,39.9764175 C36.248291,35.9202449 35.2675879,32.4544593 33.3061523,29.5789566 C31.3447168,26.7034539 28.6120781,24.7325264 25.1081543,23.6661148 C22.4802115,22.8663061 18.1479794,22.4664078 12.1113281,22.4664078 L9.140625,22.4664078 L9.140625,56.4295425 Z M74.1533203,50.0882339 L77.5239258,51.85923 C76.4194281,54.0301393 75.1435619,55.7820749 73.6962891,57.1150894 C72.2490162,58.4481039 70.6208587,59.4621318 68.8117676,60.1572037 C67.0026765,60.8522755 64.9555778,61.1998062 62.6704102,61.1998062 C57.6049551,61.1998062 53.6440573,59.5383238 50.7875977,56.2153091 C47.9311381,52.8922945 46.5029297,49.1361065 46.5029297,44.9466324 C46.5029297,41.0047181 47.7121461,37.4913255 50.1306152,34.4063492 C53.1965485,30.483478 57.3002673,28.5220718 62.4418945,28.5220718 C67.7358663,28.5220718 71.9633631,30.531085 75.1245117,34.5491714 C77.3715933,37.386588 78.51416,40.9285447 78.5522461,45.175148 L50.6162109,45.175148 C50.6923832,48.7933302 51.8444713,51.7592429 54.0725098,54.0729752 C56.3005482,56.3867074 59.0522297,57.5435562 62.3276367,57.5435562 C63.908211,57.5435562 65.4459154,57.2674359 66.9407959,56.7151871 C68.4356764,56.1629382 69.7067819,55.4297913 70.7541504,54.5157242 C71.8015189,53.6016571 72.9345642,52.1258418 74.1533203,50.0882339 Z M74.1533203,41.7188492 C73.6201145,39.586026 72.8441213,37.8816974 71.8253174,36.6058121 C70.8065135,35.3299268 69.4592369,34.3016168 67.7834473,33.5208511 C66.1076576,32.7400855 64.3462006,32.3497086 62.4990234,32.3497086 C59.4521332,32.3497086 56.8337512,33.3304116 54.6437988,35.2918472 C53.0441815,36.720077 51.834965,38.8623896 51.0161133,41.7188492 L74.1533203,41.7188492 Z M116.171631,35.7774429 L113.000977,37.7483902 C110.258775,34.111165 106.516869,32.2925797 101.775146,32.2925797 C97.9855768,32.2925797 94.8387576,33.5113175 92.3345947,35.9488297 C89.8304318,38.3863418 88.5783691,41.3474939 88.5783691,44.8323746 C88.5783691,47.0984992 89.1544132,49.2312904 90.3065186,51.2308121 C91.4586239,53.2303338 93.0391745,54.7823202 95.0482178,55.8868179 C97.057261,56.9913156 99.3090696,57.5435562 101.803711,57.5435562 C106.374046,57.5435562 110.106431,55.7249709 113.000977,52.0877457 L116.171631,54.1729507 C114.686272,56.4009892 112.691541,58.1291214 110.187378,59.357399 C107.683215,60.5856766 104.831559,61.1998062 101.632324,61.1998062 C96.7192137,61.1998062 92.6440592,59.6382984 89.4067383,56.5152359 C86.1694174,53.3921734 84.5507812,49.5931391 84.5507812,45.1180191 C84.5507812,42.109215 85.3077317,39.3146873 86.8216553,36.7343521 C88.3355789,34.1540169 90.4160024,32.1402431 93.0629883,30.6929703 C95.7099742,29.2456974 98.6711262,28.5220718 101.946533,28.5220718 C104.003184,28.5220718 105.988394,28.8362777 107.902222,29.4646988 C109.81605,30.0931199 111.439446,30.9119594 112.772461,31.9212418 C114.105475,32.9305242 115.238521,34.2159117 116.171631,35.7774429 Z M150.020508,50.0882339 L153.391113,51.85923 C152.286616,54.0301393 151.010749,55.7820749 149.563477,57.1150894 C148.116204,58.4481039 146.488046,59.4621318 144.678955,60.1572037 C142.869864,60.8522755 140.822765,61.1998062 138.537598,61.1998062 C133.472143,61.1998062 129.511245,59.5383238 126.654785,56.2153091 C123.798326,52.8922945 122.370117,49.1361065 122.370117,44.9466324 C122.370117,41.0047181 123.579334,37.4913255 125.997803,34.4063492 C129.063736,30.483478 133.167455,28.5220718 138.309082,28.5220718 C143.603054,28.5220718 147.830551,30.531085 150.991699,34.5491714 C153.238781,37.386588 154.381347,40.9285447 154.419434,45.175148 L126.483398,45.175148 C126.559571,48.7933302 127.711659,51.7592429 129.939697,54.0729752 C132.167736,56.3867074 134.919417,57.5435562 138.194824,57.5435562 C139.775399,57.5435562 141.313103,57.2674359 142.807983,56.7151871 C144.302864,56.1629382 145.573969,55.4297913 146.621338,54.5157242 C147.668706,53.6016571 148.801752,52.1258418 150.020508,50.0882339 Z M150.020508,41.7188492 C149.487302,39.586026 148.711309,37.8816974 147.692505,36.6058121 C146.673701,35.3299268 145.326424,34.3016168 143.650635,33.5208511 C141.974845,32.7400855 140.213388,32.3497086 138.366211,32.3497086 C135.319321,32.3497086 132.700939,33.3304116 130.510986,35.2918472 C128.911369,36.720077 127.702153,38.8623896 126.883301,41.7188492 L150.020508,41.7188492 Z M161.874756,29.3218765 L165.873779,29.3218765 L165.873779,34.8919449 C167.473397,32.7591217 169.244375,31.164289 171.186768,30.107399 C173.12916,29.0505089 175.242908,28.5220718 177.528076,28.5220718 C179.85133,28.5220718 181.912711,29.112398 183.71228,30.2930679 C185.51185,31.4737379 186.840084,33.0638099 187.697021,35.0633316 C188.553959,37.0628533 188.982422,40.1763476 188.982422,44.4039078 L188.982422,60.4000015 L185.011963,60.4000015 L185.011963,45.5750504 C185.011963,41.9949543 184.859621,39.6050856 184.554932,38.4053726 C184.078855,36.3487217 183.183844,34.801496 181.869873,33.763649 C180.555902,32.725802 178.842052,32.2068863 176.728271,32.2068863 C174.309802,32.2068863 172.143686,33.006683 170.229858,34.6063004 C168.31603,36.2059177 167.054446,38.1863667 166.445068,40.5477066 C166.064207,42.0901948 165.873779,44.908526 165.873779,49.0027847 L165.873779,60.4000015 L161.874756,60.4000015 L161.874756,29.3218765 Z M201.036621,17.7818375 L205.064209,17.7818375 L205.064209,29.3218765 L211.405518,29.3218765 L211.405518,32.7496109 L205.064209,32.7496109 L205.064209,60.4000015 L201.036621,60.4000015 L201.036621,32.7496109 L195.580811,32.7496109 L195.580811,29.3218765 L201.036621,29.3218765 L201.036621,17.7818375 Z M215.861572,29.3218765 L219.946289,29.3218765 L219.946289,33.8636246 C221.165045,32.0735766 222.450433,30.7358214 223.80249,29.8503189 C225.154548,28.9648164 226.563713,28.5220718 228.030029,28.5220718 C229.134527,28.5220718 230.315179,28.8743632 231.572021,29.5789566 L229.486816,32.9495621 C228.648922,32.5877439 227.944339,32.4068375 227.373047,32.4068375 C226.040032,32.4068375 224.754645,32.9543173 223.516846,34.0492935 C222.279047,35.1442697 221.336429,36.8438377 220.688965,39.1480484 C220.193845,40.9190533 219.946289,44.4990957 219.946289,49.8882828 L219.946289,60.4000015 L215.861572,60.4000015 L215.861572,29.3218765 Z M265.935059,29.3218765 L265.935059,60.4000015 L261.993164,60.4000015 L261.993164,55.0584488 C260.317374,57.0960566 258.4369,58.6290003 256.351685,59.6573257 C254.266469,60.6856512 251.986096,61.1998062 249.510498,61.1998062 C245.11155,61.1998062 241.355362,59.6049735 238.241821,56.4152603 C235.12828,53.2255471 233.571533,49.345581 233.571533,44.7752457 C233.571533,40.3001256 235.142562,36.4725272 238.284668,33.2923355 C241.426774,30.1121438 245.206765,28.5220718 249.624756,28.5220718 C252.176526,28.5220718 254.485463,29.064791 256.551636,30.1502457 C258.617808,31.2357003 260.431633,32.8638579 261.993164,35.0347672 L261.993164,29.3218765 L265.935059,29.3218765 Z M249.938965,32.378273 C247.710926,32.378273 245.654306,32.9257529 243.769043,34.0207291 C241.88378,35.1157052 240.384161,36.6534096 239.270142,38.6338882 C238.156122,40.6143669 237.599121,42.7090725 237.599121,44.9180679 C237.599121,47.1080203 238.160883,49.2027259 239.284424,51.2022476 C240.407965,53.2017693 241.917105,54.7585165 243.81189,55.8725357 C245.706675,56.9865549 247.739491,57.5435562 249.9104,57.5435562 C252.100353,57.5435562 254.176016,56.9913156 256.137451,55.8868179 C258.098887,54.7823202 259.608027,53.2874621 260.664917,51.4021988 C261.721807,49.5169355 262.250244,47.3936657 262.250244,45.0323257 C262.250244,41.4331867 261.064831,38.4244277 258.69397,36.0059586 C256.323108,33.5874894 253.404802,32.378273 249.938965,32.378273 Z M274.333008,17.3248062 L278.332031,17.3248062 L278.332031,60.4000015 L274.333008,60.4000015 L274.333008,17.3248062 Z M288.043945,16.5250015 C288.958012,16.5250015 289.738766,16.8487288 290.38623,17.4961929 C291.033695,18.1436571 291.357422,18.924411 291.357422,19.8384781 C291.357422,20.7335021 291.033695,21.5047346 290.38623,22.1521988 C289.738766,22.799663 288.958012,23.1233902 288.043945,23.1233902 C287.148921,23.1233902 286.377689,22.799663 285.730225,22.1521988 C285.08276,21.5047346 284.759033,20.7335021 284.759033,19.8384781 C284.759033,18.924411 285.08276,18.1436571 285.730225,17.4961929 C286.377689,16.8487288 287.148921,16.5250015 288.043945,16.5250015 Z M286.044434,29.3218765 L290.072021,29.3218765 L290.072021,60.4000015 L286.044434,60.4000015 L286.044434,29.3218765 Z M295.813477,29.3218765 L318.636475,29.3218765 L301.040771,56.8580093 L318.065186,56.8580093 L318.065186,60.4000015 L294.156738,60.4000015 L311.752441,32.8353043 L295.813477,32.8353043 L295.813477,29.3218765 Z M349.371826,50.0882339 L352.742432,51.85923 C351.637934,54.0301393 350.362068,55.7820749 348.914795,57.1150894 C347.467522,58.4481039 345.839365,59.4621318 344.030273,60.1572037 C342.221182,60.8522755 340.174084,61.1998062 337.888916,61.1998062 C332.823461,61.1998062 328.862563,59.5383238 326.006104,56.2153091 C323.149644,52.8922945 321.721436,49.1361065 321.721436,44.9466324 C321.721436,41.0047181 322.930652,37.4913255 325.349121,34.4063492 C328.415054,30.483478 332.518773,28.5220718 337.6604,28.5220718 C342.954372,28.5220718 347.181869,30.531085 350.343018,34.5491714 C352.590099,37.386588 353.732666,40.9285447 353.770752,45.175148 L325.834717,45.175148 C325.910889,48.7933302 327.062977,51.7592429 329.291016,54.0729752 C331.519054,56.3867074 334.270736,57.5435562 337.546143,57.5435562 C339.126717,57.5435562 340.664421,57.2674359 342.159302,56.7151871 C343.654182,56.1629382 344.925288,55.4297913 345.972656,54.5157242 C347.020025,53.6016571 348.15307,52.1258418 349.371826,50.0882339 Z M349.371826,41.7188492 C348.83862,39.586026 348.062627,37.8816974 347.043823,36.6058121 C346.025019,35.3299268 344.677743,34.3016168 343.001953,33.5208511 C341.326163,32.7400855 339.564707,32.3497086 337.717529,32.3497086 C334.670639,32.3497086 332.052257,33.3304116 329.862305,35.2918472 C328.262687,36.720077 327.053471,38.8623896 326.234619,41.7188492 L349.371826,41.7188492 Z M392.24707,17.3248062 L392.24707,60.4000015 L388.305176,60.4000015 L388.305176,55.0584488 C386.629386,57.0960566 384.748912,58.6290003 382.663696,59.6573257 C380.578481,60.6856512 378.298108,61.1998062 375.82251,61.1998062 C371.423562,61.1998062 367.667374,59.6049735 364.553833,56.4152603 C361.440292,53.2255471 359.883545,49.345581 359.883545,44.7752457 C359.883545,40.3001256 361.454574,36.4725272 364.59668,33.2923355 C367.738785,30.1121438 371.518777,28.5220718 375.936768,28.5220718 C378.488538,28.5220718 380.797475,29.064791 382.863647,30.1502457 C384.92982,31.2357003 386.743645,32.8638579 388.305176,35.0347672 L388.305176,17.3248062 L392.24707,17.3248062 Z M376.250977,32.378273 C374.022938,32.378273 371.966318,32.9257529 370.081055,34.0207291 C368.195791,35.1157052 366.696173,36.6534096 365.582153,38.6338882 C364.468134,40.6143669 363.911133,42.7090725 363.911133,44.9180679 C363.911133,47.1080203 364.472895,49.2027259 365.596436,51.2022476 C366.719976,53.2017693 368.229117,54.7585165 370.123901,55.8725357 C372.018686,56.9865549 374.051503,57.5435562 376.222412,57.5435562 C378.412364,57.5435562 380.488027,56.9913156 382.449463,55.8868179 C384.410898,54.7823202 385.920039,53.2874621 386.976929,51.4021988 C388.033819,49.5169355 388.562256,47.3936657 388.562256,45.0323257 C388.562256,41.4331867 387.376843,38.4244277 385.005981,36.0059586 C382.63512,33.5874894 379.716814,32.378273 376.250977,32.378273 Z M5.11303711,93.381691 L9.39770508,93.381691 L9.39770508,109.149269 L26.1650391,93.381691 L31.8493652,93.381691 L11.6542969,112.23423 L33.4204102,135.400002 L27.8503418,135.400002 L9.39770508,115.804787 L9.39770508,135.400002 L5.11303711,135.400002 L5.11303711,93.381691 Z M39.019043,104.321877 L43.0180664,104.321877 L43.0180664,109.891945 C44.6176838,107.759122 46.3886622,106.164289 48.3310547,105.107399 C50.2734472,104.050509 52.3871956,103.522072 54.6723633,103.522072 C56.9956171,103.522072 59.0569978,104.112398 60.8565674,105.293068 C62.6561369,106.473738 63.9843707,108.06381 64.8413086,110.063332 C65.6982465,112.062853 66.126709,115.176348 66.126709,119.403908 L66.126709,135.400002 L62.15625,135.400002 L62.15625,120.57505 C62.15625,116.994954 62.0039078,114.605086 61.6992188,113.405373 C61.2231422,111.348722 60.3281316,109.801496 59.0141602,108.763649 C57.7001887,107.725802 55.9863387,107.206886 53.8725586,107.206886 C51.4540895,107.206886 49.2879734,108.006683 47.3741455,109.6063 C45.4603176,111.205918 44.1987335,113.186367 43.5893555,115.547707 C43.2084942,117.090195 43.0180664,119.908526 43.0180664,124.002785 L43.0180664,135.400002 L39.019043,135.400002 L39.019043,104.321877 Z M89.4067383,103.522072 C94.1865473,103.522072 98.1474452,105.254965 101.289551,108.720802 C104.14601,111.881951 105.574219,115.623857 105.574219,119.946632 C105.574219,124.288451 104.065079,128.082725 101.046753,131.329567 C98.0284273,134.576409 94.1484612,136.199806 89.4067383,136.199806 C84.6459723,136.199806 80.7564848,134.576409 77.7381592,131.329567 C74.7198335,128.082725 73.2106934,124.288451 73.2106934,119.946632 C73.2106934,115.6429 74.6389017,111.910515 77.4953613,108.749367 C80.6374669,105.264486 84.6078862,103.522072 89.4067383,103.522072 Z M89.4067383,107.435402 C86.0932452,107.435402 83.2463498,108.663661 80.8659668,111.120216 C78.4855838,113.576772 77.2954102,116.547445 77.2954102,120.032326 C77.2954102,122.279407 77.8381293,124.374113 78.923584,126.316505 C80.0090386,128.258898 81.4753326,129.758517 83.3225098,130.815407 C85.169687,131.872297 87.1977429,132.400734 89.4067383,132.400734 C91.6157337,132.400734 93.6437896,131.872297 95.4909668,130.815407 C97.338144,129.758517 98.8044379,128.258898 99.8898926,126.316505 C100.975347,124.374113 101.518066,122.279407 101.518066,120.032326 C101.518066,116.547445 100.323132,113.576772 97.9332275,111.120216 C95.543323,108.663661 92.7011883,107.435402 89.4067383,107.435402 Z M108.802002,104.321877 L112.915283,104.321877 L122.427246,126.887794 L132.39624,104.321877 L133.110352,104.321877 L143.050781,126.887794 L152.734131,104.321877 L156.904541,104.321877 L143.422119,135.400002 L142.650879,135.400002 L132.767578,113.148293 L122.798584,135.400002 L122.055908,135.400002 L108.802002,104.321877 Z M161.017822,92.3248062 L165.016846,92.3248062 L165.016846,135.400002 L161.017822,135.400002 L161.017822,92.3248062 Z M199.494141,125.088234 L202.864746,126.85923 C201.760248,129.030139 200.484382,130.782075 199.037109,132.115089 C197.589837,133.448104 195.961679,134.462132 194.152588,135.157204 C192.343497,135.852276 190.296398,136.199806 188.01123,136.199806 C182.945775,136.199806 178.984878,134.538324 176.128418,131.215309 C173.271958,127.892294 171.84375,124.136106 171.84375,119.946632 C171.84375,116.004718 173.052966,112.491326 175.471436,109.406349 C178.537369,105.483478 182.641088,103.522072 187.782715,103.522072 C193.076687,103.522072 197.304183,105.531085 200.465332,109.549171 C202.712414,112.386588 203.85498,115.928545 203.893066,120.175148 L175.957031,120.175148 C176.033204,123.79333 177.185292,126.759243 179.41333,129.072975 C181.641369,131.386707 184.39305,132.543556 187.668457,132.543556 C189.249031,132.543556 190.786736,132.267436 192.281616,131.715187 C193.776497,131.162938 195.047602,130.429791 196.094971,129.515724 C197.142339,128.601657 198.275385,127.125842 199.494141,125.088234 Z M199.494141,116.718849 C198.960935,114.586026 198.184942,112.881697 197.166138,111.605812 C196.147334,110.329927 194.800057,109.301617 193.124268,108.520851 C191.448478,107.740086 189.687021,107.349709 187.839844,107.349709 C184.792954,107.349709 182.174571,108.330412 179.984619,110.291847 C178.385002,111.720077 177.175785,113.86239 176.356934,116.718849 L199.494141,116.718849 Z M242.369385,92.3248062 L242.369385,135.400002 L238.42749,135.400002 L238.42749,130.058449 C236.751701,132.096057 234.871226,133.629 232.786011,134.657326 C230.700795,135.685651 228.420423,136.199806 225.944824,136.199806 C221.545876,136.199806 217.789688,134.604974 214.676147,131.41526 C211.562607,128.225547 210.005859,124.345581 210.005859,119.775246 C210.005859,115.300126 211.576889,111.472527 214.718994,108.292336 C217.8611,105.112144 221.641091,103.522072 226.059082,103.522072 C228.610853,103.522072 230.919789,104.064791 232.985962,105.150246 C235.052134,106.2357 236.865959,107.863858 238.42749,110.034767 L238.42749,92.3248062 L242.369385,92.3248062 Z M226.373291,107.378273 C224.145253,107.378273 222.088632,107.925753 220.203369,109.020729 C218.318106,110.115705 216.818487,111.65341 215.704468,113.633888 C214.590449,115.614367 214.033447,117.709073 214.033447,119.918068 C214.033447,122.10802 214.595209,124.202726 215.71875,126.202248 C216.842291,128.201769 218.351431,129.758516 220.246216,130.872536 C222.141001,131.986555 224.173817,132.543556 226.344727,132.543556 C228.534679,132.543556 230.610342,131.991316 232.571777,130.886818 C234.533213,129.78232 236.042353,128.287462 237.099243,126.402199 C238.156133,124.516935 238.68457,122.393666 238.68457,120.032326 C238.68457,116.433187 237.499157,113.424428 235.128296,111.005959 C232.757434,108.587489 229.839129,107.378273 226.373291,107.378273 Z M278.189209,104.321877 L282.216797,104.321877 L282.216797,129.087257 C282.216797,133.448119 281.835941,136.637784 281.074219,138.656349 C280.02685,141.512809 278.208265,143.71225 275.618408,145.254738 C273.028552,146.797226 269.915057,147.568459 266.277832,147.568459 C263.611803,147.568459 261.217174,147.192364 259.093872,146.440163 C256.97057,145.687962 255.242438,144.678694 253.909424,143.412331 C252.576409,142.145967 251.34815,140.294057 250.224609,137.856544 L254.566406,137.856544 C255.747076,139.913195 257.270498,141.436618 259.136719,142.426857 C261.002939,143.417096 263.316637,143.912209 266.077881,143.912209 C268.801039,143.912209 271.100454,143.402814 272.976196,142.38401 C274.851938,141.365206 276.189693,140.08458 276.989502,138.542091 C277.789311,136.999603 278.189209,134.514521 278.189209,131.086769 L278.189209,129.48716 C276.684807,131.391466 274.847179,132.852999 272.67627,133.871803 C270.50536,134.890607 268.201184,135.400002 265.763672,135.400002 C262.907212,135.400002 260.222181,134.690658 257.708496,133.27195 C255.194812,131.853242 253.252448,129.944203 251.881348,127.544777 C250.510247,125.145351 249.824707,122.507926 249.824707,119.632423 C249.824707,116.756921 250.538811,114.07665 251.967041,111.59153 C253.395271,109.10641 255.370959,107.140243 257.894165,105.69297 C260.417371,104.245697 263.078599,103.522072 265.87793,103.522072 C268.201183,103.522072 270.3673,104.002902 272.376343,104.964577 C274.385386,105.926251 276.322989,107.511563 278.189209,109.720558 L278.189209,104.321877 Z M266.39209,107.378273 C264.125965,107.378273 262.021738,107.925753 260.079346,109.020729 C258.136953,110.115705 256.613531,111.629606 255.509033,113.562477 C254.404535,115.495348 253.852295,117.585293 253.852295,119.832375 C253.852295,123.241083 254.994862,126.059414 257.280029,128.287453 C259.565197,130.515491 262.526349,131.629494 266.163574,131.629494 C269.838886,131.629494 272.795277,130.525013 275.032837,128.316017 C277.270397,126.107022 278.38916,123.202998 278.38916,119.603859 C278.38916,117.261562 277.875005,115.171617 276.84668,113.333961 C275.818354,111.496306 274.361582,110.044294 272.476318,108.977882 C270.591055,107.911471 268.562999,107.378273 266.39209,107.378273 Z M316.951172,125.088234 L320.321777,126.85923 C319.21728,129.030139 317.941413,130.782075 316.494141,132.115089 C315.046868,133.448104 313.41871,134.462132 311.609619,135.157204 C309.800528,135.852276 307.753429,136.199806 305.468262,136.199806 C300.402807,136.199806 296.441909,134.538324 293.585449,131.215309 C290.72899,127.892294 289.300781,124.136106 289.300781,119.946632 C289.300781,116.004718 290.509998,112.491326 292.928467,109.406349 C295.9944,105.483478 300.098119,103.522072 305.239746,103.522072 C310.533718,103.522072 314.761215,105.531085 317.922363,109.549171 C320.169445,112.386588 321.312012,115.928545 321.350098,120.175148 L293.414062,120.175148 C293.490235,123.79333 294.642323,126.759243 296.870361,129.072975 C299.0984,131.386707 301.850081,132.543556 305.125488,132.543556 C306.706063,132.543556 308.243767,132.267436 309.738647,131.715187 C311.233528,131.162938 312.504633,130.429791 313.552002,129.515724 C314.59937,128.601657 315.732416,127.125842 316.951172,125.088234 Z M316.951172,116.718849 C316.417966,114.586026 315.641973,112.881697 314.623169,111.605812 C313.604365,110.329927 312.257088,109.301617 310.581299,108.520851 C308.905509,107.740086 307.144052,107.349709 305.296875,107.349709 C302.249985,107.349709 299.631603,108.330412 297.44165,110.291847 C295.842033,111.720077 294.632817,113.86239 293.813965,116.718849 L316.951172,116.718849 Z M5.14160156,210.400002 L5.14160156,168.381691 L6.05566406,168.381691 L33.9916992,200.545265 L33.9916992,168.381691 L38.1335449,168.381691 L38.1335449,210.400002 L37.190918,210.400002 L9.48339844,178.63633 L9.48339844,210.400002 L5.14160156,210.400002 Z M73.8962402,200.088234 L77.2668457,201.85923 C76.162348,204.030139 74.8864818,205.782075 73.439209,207.115089 C71.9919361,208.448104 70.3637786,209.462132 68.5546875,210.157204 C66.7455964,210.852276 64.6984978,211.199806 62.4133301,211.199806 C57.3478751,211.199806 53.3869772,209.538324 50.5305176,206.215309 C47.674058,202.892294 46.2458496,199.136106 46.2458496,194.946632 C46.2458496,191.004718 47.455066,187.491326 49.8735352,184.406349 C52.9394685,180.483478 57.0431872,178.522072 62.1848145,178.522072 C67.4787862,178.522072 71.706283,180.531085 74.8674316,184.549171 C77.1145132,187.386588 78.2570799,190.928545 78.295166,195.175148 L50.3591309,195.175148 C50.4353031,198.79333 51.5873912,201.759243 53.8154297,204.072975 C56.0434682,206.386707 58.7951496,207.543556 62.0705566,207.543556 C63.6511309,207.543556 65.1888353,207.267436 66.6837158,206.715187 C68.1785963,206.162938 69.4497018,205.429791 70.4970703,204.515724 C71.5444388,203.601657 72.6774841,202.125842 73.8962402,200.088234 Z M73.8962402,191.718849 C73.3630344,189.586026 72.5870412,187.881697 71.5682373,186.605812 C70.5494334,185.329927 69.2021568,184.301617 67.5263672,183.520851 C65.8505776,182.740086 64.0891206,182.349709 62.2419434,182.349709 C59.1950531,182.349709 56.5766711,183.330412 54.3867188,185.291847 C52.7871014,186.720077 51.577885,188.86239 50.7590332,191.718849 L73.8962402,191.718849 Z M89.2353516,167.781837 L93.2629395,167.781837 L93.2629395,179.321877 L99.604248,179.321877 L99.604248,182.749611 L93.2629395,182.749611 L93.2629395,210.400002 L89.2353516,210.400002 L89.2353516,182.749611 L83.779541,182.749611 L83.779541,179.321877 L89.2353516,179.321877 L89.2353516,167.781837 Z M101.375244,179.321877 L105.488525,179.321877 L115.000488,201.887794 L124.969482,179.321877 L125.683594,179.321877 L135.624023,201.887794 L145.307373,179.321877 L149.477783,179.321877 L135.995361,210.400002 L135.224121,210.400002 L125.34082,188.148293 L115.371826,210.400002 L114.62915,210.400002 L101.375244,179.321877 Z M168.901611,178.522072 C173.68142,178.522072 177.642318,180.254965 180.784424,183.720802 C183.640883,186.881951 185.069092,190.623857 185.069092,194.946632 C185.069092,199.288451 183.559952,203.082725 180.541626,206.329567 C177.5233,209.576409 173.643334,211.199806 168.901611,211.199806 C164.140845,211.199806 160.251358,209.576409 157.233032,206.329567 C154.214707,203.082725 152.705566,199.288451 152.705566,194.946632 C152.705566,190.6429 154.133775,186.910515 156.990234,183.749367 C160.13234,180.264486 164.102759,178.522072 168.901611,178.522072 Z M168.901611,182.435402 C165.588118,182.435402 162.741223,183.663661 160.36084,186.120216 C157.980457,188.576772 156.790283,191.547445 156.790283,195.032326 C156.790283,197.279407 157.333002,199.374113 158.418457,201.316505 C159.503912,203.258898 160.970206,204.758517 162.817383,205.815407 C164.66456,206.872297 166.692616,207.400734 168.901611,207.400734 C171.110607,207.400734 173.138663,206.872297 174.98584,205.815407 C176.833017,204.758517 178.299311,203.258898 179.384766,201.316505 C180.47022,199.374113 181.012939,197.279407 181.012939,195.032326 C181.012939,191.547445 179.818005,188.576772 177.428101,186.120216 C175.038196,183.663661 172.196061,182.435402 168.901611,182.435402 Z M190.981934,179.321877 L195.06665,179.321877 L195.06665,183.863625 C196.285406,182.073577 197.570794,180.735821 198.922852,179.850319 C200.274909,178.964816 201.684075,178.522072 203.150391,178.522072 C204.254888,178.522072 205.435541,178.874363 206.692383,179.578957 L204.607178,182.949562 C203.769283,182.587744 203.0647,182.406837 202.493408,182.406837 C201.160394,182.406837 199.875006,182.954317 198.637207,184.049294 C197.399408,185.14427 196.45679,186.843838 195.809326,189.148048 C195.314207,190.919053 195.06665,194.499096 195.06665,199.888283 L195.06665,210.400002 L190.981934,210.400002 L190.981934,179.321877 Z M210.062988,167.324806 L214.090576,167.324806 L214.090576,191.833107 L228.458496,179.321877 L234.342773,179.321877 L217.289795,194.146828 L235.342529,210.400002 L229.686768,210.400002 L214.090576,196.431984 L214.090576,210.400002 L210.062988,210.400002 L210.062988,167.324806 Z" transform="translate(808 116)"/>
    <path fill="#2E3536" d="M121.155787,294.425906 L138.742894,283.885434 C151.12428,306.652968 165.428317,318.036565 181.655436,318.036565 C188.596516,318.036565 195.115405,316.420375 201.2123,313.187947 C207.309194,309.95552 211.952144,305.622258 215.141289,300.188031 C218.330434,294.753805 219.924982,288.991738 219.924982,282.901656 C219.924982,275.968333 217.580058,269.175652 212.890139,262.52341 C206.418051,253.341441 194.599633,242.285767 177.434531,229.356057 C160.175629,216.332652 149.435877,206.916591 145.21495,201.10759 C137.898676,191.363461 134.240595,180.823094 134.240595,169.486173 C134.240595,160.491592 136.397925,152.293528 140.71265,144.891737 C145.027375,137.489947 151.100729,131.65761 158.932893,127.394553 C166.765058,123.131496 175.277133,121 184.469374,121 C194.224405,121 203.34616,123.412573 211.834913,128.237791 C220.323666,133.063009 229.304725,141.940341 238.778361,154.870051 L221.894738,167.659158 C214.109473,157.352867 207.473338,150.560186 201.986133,147.280911 C196.498928,144.001637 190.519371,142.362024 184.047283,142.362024 C175.699228,142.362024 168.875498,144.891712 163.57589,149.951164 C158.276282,155.010616 155.626517,161.241144 155.626517,168.642935 C155.626517,173.140226 156.564487,177.496911 158.440454,181.713121 C160.316422,185.929331 163.740011,190.520247 168.711325,195.486005 C171.431478,198.109425 180.34219,204.995798 195.443729,216.145331 C213.359218,229.356123 225.646621,241.114488 232.306306,251.420779 C238.965991,261.72707 242.295783,272.080053 242.295783,282.480038 C242.295783,297.471007 236.597617,310.494216 225.201114,321.550055 C213.804612,332.605895 199.94611,338.133732 183.625192,338.133732 C171.05621,338.133732 159.659878,334.784238 149.435855,328.085148 C139.211832,321.386059 129.785237,310.166424 121.155787,294.425906 Z M405.691736,282.198958 L422.293966,290.912415 C416.85366,301.593481 410.569263,310.213159 403.440586,316.771708 C396.31191,323.330257 388.292269,328.319364 379.381423,331.739179 C370.470578,335.158993 360.387404,336.868875 349.131598,336.868875 C324.181231,336.868875 304.671461,328.694235 290.601705,312.344709 C276.531948,295.995184 269.497176,277.514407 269.497176,256.901824 C269.497176,237.507258 275.453283,220.221056 287.365677,205.0427 C302.467215,185.741827 322.680462,176.091536 348.006024,176.091536 C374.081972,176.091536 394.904899,185.976058 410.475429,205.745398 C421.543638,219.705738 427.171456,237.132478 427.359053,258.026142 L289.757524,258.026142 C290.132717,275.827917 295.807434,290.42047 306.781844,301.804237 C317.756254,313.188004 331.309916,318.879802 347.443236,318.879802 C355.228501,318.879802 362.802607,317.521266 370.165779,314.804153 C377.528951,312.08704 383.789899,308.479892 388.94881,303.982601 C394.10772,299.485311 399.68864,292.224169 405.691736,282.198958 Z M405.691736,241.020846 C403.065382,230.527168 399.243155,222.14172 394.224942,215.864252 C389.206729,209.586784 382.570593,204.527407 374.316336,200.685972 C366.062079,196.844536 357.38586,194.923847 348.287417,194.923847 C333.279677,194.923847 320.382594,199.748992 309.595781,209.399429 C301.716717,216.426445 295.76061,226.966813 291.72728,241.020846 L405.691736,241.020846 Z M451.887205,332.933766 L481.292849,126.199966 L484.669573,126.199966 L568.806296,295.831303 L587.188943,258.393699 L608.182605,258.479289 L571.338839,332.933766 L566.133055,332.933766 L491.98581,183.961755 L471.866159,332.933766 L451.887205,332.933766 Z M721.149729,126.199966 L741.832167,126.199966 L741.832167,332.933766 L721.149729,332.933766 L721.149729,126.199966 Z"/>
    <path fill="#FA0171" d="M680.836533,302.808026 C682.399104,303.616012 683.849749,304.694808 685.188477,306.04442 C688.524319,309.407383 690.192215,313.51761 690.192215,318.375223 C690.192215,323.139421 688.524319,327.226294 685.188477,330.635965 C681.852634,334.045636 677.821885,335.750446 673.096108,335.750446 C668.370331,335.750446 664.339581,334.045636 661.003739,330.635965 C657.667896,327.226294 656,323.139421 656,318.375223 C656,313.51761 657.667896,309.407383 661.003739,306.04442 C661.02511,306.022875 661.046509,306.0014 661.067937,305.979993 L644.501206,185.086072 L626.348526,221.769301 C626.910987,223.511929 627.192215,225.380566 627.192215,227.375223 C627.192215,232.139421 625.524319,236.226294 622.188477,239.635965 C618.852634,243.045636 614.821885,244.750446 610.096108,244.750446 C605.370331,244.750446 601.339581,243.045636 598.003739,239.635965 C594.667896,236.226294 593,232.139421 593,227.375223 C593,222.51761 594.667896,218.407383 598.003739,215.04442 C601.339581,211.681456 605.370331,210 610.096108,210 C610.380686,210 610.662744,210.006097 610.942282,210.018292 L639.429288,152.002427 C638.961555,151.611884 638.505958,151.191805 638.0625,150.742188 C634.687483,147.320295 633,143.218774 633,138.4375 C633,133.562476 634.687483,129.437517 638.0625,126.0625 C641.437517,122.687483 645.515601,121 650.296875,121 C655.078149,121 659.156233,122.687483 662.53125,126.0625 C665.906267,129.437517 667.59375,133.562476 667.59375,138.4375 C667.59375,143.218774 665.906267,147.320295 662.53125,150.742188 C661.538275,151.748954 660.48444,152.607617 659.369745,153.318176 L680.836533,302.808026 Z"/>
  </g>
</svg>
