<svg xmlns="http://www.w3.org/2000/svg" width="862" height="459" viewBox="0 0 862 459">
  <g fill="none" fill-rule="evenodd">
    <rect width="862" height="459" fill="#FFF"/>
    <path fill="#2E3536" d="M121.155787,294.425906 L138.742894,283.885434 C151.12428,306.652968 165.428317,318.036565 181.655436,318.036565 C188.596516,318.036565 195.115405,316.420375 201.2123,313.187947 C207.309194,309.95552 211.952144,305.622258 215.141289,300.188031 C218.330434,294.753805 219.924982,288.991738 219.924982,282.901656 C219.924982,275.968333 217.580058,269.175652 212.890139,262.52341 C206.418051,253.341441 194.599633,242.285767 177.434531,229.356057 C160.175629,216.332652 149.435877,206.916591 145.21495,201.10759 C137.898676,191.363461 134.240595,180.823094 134.240595,169.486173 C134.240595,160.491592 136.397925,152.293528 140.71265,144.891737 C145.027375,137.489947 151.100729,131.65761 158.932893,127.394553 C166.765058,123.131496 175.277133,121 184.469374,121 C194.224405,121 203.34616,123.412573 211.834913,128.237791 C220.323666,133.063009 229.304725,141.940341 238.778361,154.870051 L221.894738,167.659158 C214.109473,157.352867 207.473338,150.560186 201.986133,147.280911 C196.498928,144.001637 190.519371,142.362024 184.047283,142.362024 C175.699228,142.362024 168.875498,144.891712 163.57589,149.951164 C158.276282,155.010616 155.626517,161.241144 155.626517,168.642935 C155.626517,173.140226 156.564487,177.496911 158.440454,181.713121 C160.316422,185.929331 163.740011,190.520247 168.711325,195.486005 C171.431478,198.109425 180.34219,204.995798 195.443729,216.145331 C213.359218,229.356123 225.646621,241.114488 232.306306,251.420779 C238.965991,261.72707 242.295783,272.080053 242.295783,282.480038 C242.295783,297.471007 236.597617,310.494216 225.201114,321.550055 C213.804612,332.605895 199.94611,338.133732 183.625192,338.133732 C171.05621,338.133732 159.659878,334.784238 149.435855,328.085148 C139.211832,321.386059 129.785237,310.166424 121.155787,294.425906 Z M405.691736,282.198958 L422.293966,290.912415 C416.85366,301.593481 410.569263,310.213159 403.440586,316.771708 C396.31191,323.330257 388.292269,328.319364 379.381423,331.739179 C370.470578,335.158993 360.387404,336.868875 349.131598,336.868875 C324.181231,336.868875 304.671461,328.694235 290.601705,312.344709 C276.531948,295.995184 269.497176,277.514407 269.497176,256.901824 C269.497176,237.507258 275.453283,220.221056 287.365677,205.0427 C302.467215,185.741827 322.680462,176.091536 348.006024,176.091536 C374.081972,176.091536 394.904899,185.976058 410.475429,205.745398 C421.543638,219.705738 427.171456,237.132478 427.359053,258.026142 L289.757524,258.026142 C290.132717,275.827917 295.807434,290.42047 306.781844,301.804237 C317.756254,313.188004 331.309916,318.879802 347.443236,318.879802 C355.228501,318.879802 362.802607,317.521266 370.165779,314.804153 C377.528951,312.08704 383.789899,308.479892 388.94881,303.982601 C394.10772,299.485311 399.68864,292.224169 405.691736,282.198958 Z M405.691736,241.020846 C403.065382,230.527168 399.243155,222.14172 394.224942,215.864252 C389.206729,209.586784 382.570593,204.527407 374.316336,200.685972 C366.062079,196.844536 357.38586,194.923847 348.287417,194.923847 C333.279677,194.923847 320.382594,199.748992 309.595781,209.399429 C301.716717,216.426445 295.76061,226.966813 291.72728,241.020846 L405.691736,241.020846 Z M451.887205,332.933766 L481.292849,126.199966 L484.669573,126.199966 L568.806296,295.831303 L587.188943,258.393699 L608.182605,258.479289 L571.338839,332.933766 L566.133055,332.933766 L491.98581,183.961755 L471.866159,332.933766 L451.887205,332.933766 Z M721.149729,126.199966 L741.832167,126.199966 L741.832167,332.933766 L721.149729,332.933766 L721.149729,126.199966 Z"/>
    <path fill="#FA0171" d="M680.836533,302.808026 C682.399104,303.616012 683.849749,304.694808 685.188477,306.04442 C688.524319,309.407383 690.192215,313.51761 690.192215,318.375223 C690.192215,323.139421 688.524319,327.226294 685.188477,330.635965 C681.852634,334.045636 677.821885,335.750446 673.096108,335.750446 C668.370331,335.750446 664.339581,334.045636 661.003739,330.635965 C657.667896,327.226294 656,323.139421 656,318.375223 C656,313.51761 657.667896,309.407383 661.003739,306.04442 C661.02511,306.022875 661.046509,306.0014 661.067937,305.979993 L644.501206,185.086072 L626.348526,221.769301 C626.910987,223.511929 627.192215,225.380566 627.192215,227.375223 C627.192215,232.139421 625.524319,236.226294 622.188477,239.635965 C618.852634,243.045636 614.821885,244.750446 610.096108,244.750446 C605.370331,244.750446 601.339581,243.045636 598.003739,239.635965 C594.667896,236.226294 593,232.139421 593,227.375223 C593,222.51761 594.667896,218.407383 598.003739,215.04442 C601.339581,211.681456 605.370331,210 610.096108,210 C610.380686,210 610.662744,210.006097 610.942282,210.018292 L639.429288,152.002427 C638.961555,151.611884 638.505958,151.191805 638.0625,150.742188 C634.687483,147.320295 633,143.218774 633,138.4375 C633,133.562476 634.687483,129.437517 638.0625,126.0625 C641.437517,122.687483 645.515601,121 650.296875,121 C655.078149,121 659.156233,122.687483 662.53125,126.0625 C665.906267,129.437517 667.59375,133.562476 667.59375,138.4375 C667.59375,143.218774 665.906267,147.320295 662.53125,150.742188 C661.538275,151.748954 660.48444,152.607617 659.369745,153.318176 L680.836533,302.808026 Z"/>
  </g>
</svg>
