<svg xmlns="http://www.w3.org/2000/svg" width="1273" height="459"><g fill="#FFF" fill-rule="evenodd"><path fill="none" d="M0 0h1273v459H0z"/><path d="M813.113 176.4v-42.018h8.712c6.284 0 10.845.504 13.683 1.514 4.075 1.428 7.26 3.903 9.554 7.426 2.295 3.523 3.442 7.722 3.442 12.597 0 4.209-.909 7.913-2.728 11.112-1.818 3.2-4.18 5.56-7.083 7.084-2.905 1.523-6.975 2.285-12.212 2.285h-13.368zm4.028-3.97h4.856c5.808 0 9.835-.362 12.082-1.086 3.161-1.028 5.647-2.88 7.456-5.556 1.809-2.675 2.713-5.946 2.713-9.812 0-4.056-.98-7.522-2.942-10.397-1.961-2.876-4.694-4.846-8.198-5.913-2.628-.8-6.96-1.2-12.997-1.2h-2.97v33.964zm65.012-6.342l3.37 1.771c-1.104 2.171-2.38 3.923-3.827 5.256a15.2 15.2 0 0 1-4.884 3.042c-1.81.695-3.856 1.043-6.142 1.043-5.065 0-9.026-1.662-11.882-4.985-2.857-3.323-4.285-7.079-4.285-11.268 0-3.942 1.21-7.456 3.628-10.54 3.066-3.924 7.17-5.885 12.31-5.885 5.295 0 9.522 2.01 12.684 6.027 2.247 2.838 3.39 6.38 3.427 10.626h-27.936c.076 3.618 1.228 6.584 3.457 8.898 2.228 2.314 4.98 3.47 8.255 3.47 1.58 0 3.118-.276 4.613-.828 1.495-.552 2.766-1.285 3.813-2.2 1.048-.913 2.18-2.39 3.4-4.427zm0-8.37c-.533-2.132-1.309-3.836-2.328-5.112-1.018-1.276-2.366-2.304-4.042-3.085a12.367 12.367 0 0 0-5.284-1.171c-3.047 0-5.665.98-7.855 2.942-1.6 1.428-2.809 3.57-3.628 6.427h23.137zm42.019-5.94l-3.171 1.97c-2.742-3.637-6.484-5.455-11.226-5.455-3.79 0-6.936 1.218-9.44 3.656-2.505 2.437-3.757 5.398-3.757 8.883 0 2.266.576 4.4 1.729 6.399 1.152 2 2.732 3.551 4.741 4.656 2.01 1.104 4.261 1.657 6.756 1.657 4.57 0 8.302-1.819 11.197-5.456l3.17 2.085c-1.485 2.228-3.48 3.956-5.984 5.184-2.504 1.229-5.355 1.843-8.555 1.843-4.913 0-8.988-1.562-12.225-4.685-3.238-3.123-4.856-6.922-4.856-11.397 0-3.009.757-5.803 2.27-8.384 1.515-2.58 3.595-4.594 6.242-6.041s5.608-2.17 8.884-2.17c2.056 0 4.041.313 5.955.942 1.914.628 3.537 1.447 4.87 2.456 1.333 1.01 2.467 2.295 3.4 3.856zm33.849 14.31l3.37 1.771c-1.104 2.171-2.38 3.923-3.828 5.256a15.2 15.2 0 0 1-4.884 3.042c-1.81.695-3.856 1.043-6.141 1.043-5.066 0-9.027-1.662-11.883-4.985-2.857-3.323-4.285-7.079-4.285-11.268 0-3.942 1.21-7.456 3.628-10.54 3.066-3.924 7.17-5.885 12.311-5.885 5.294 0 9.522 2.01 12.683 6.027 2.247 2.838 3.39 6.38 3.427 10.626h-27.936c.077 3.618 1.229 6.584 3.457 8.898 2.228 2.314 4.98 3.47 8.255 3.47 1.58 0 3.118-.276 4.613-.828 1.495-.552 2.766-1.285 3.813-2.2 1.048-.913 2.18-2.39 3.4-4.427zm0-8.37c-.534-2.132-1.31-3.836-2.328-5.112-1.02-1.276-2.367-2.304-4.042-3.085a12.367 12.367 0 0 0-5.285-1.171c-3.047 0-5.665.98-7.855 2.942-1.6 1.428-2.809 3.57-3.628 6.427h23.138zm11.854-12.396h3.999v5.57c1.6-2.133 3.37-3.728 5.313-4.785 1.942-1.056 4.056-1.585 6.341-1.585 2.323 0 4.385.59 6.184 1.771 1.8 1.18 3.128 2.77 3.985 4.77.857 2 1.285 5.113 1.285 9.34V176.4h-3.97v-14.825c0-3.58-.152-5.97-.457-7.17-.476-2.056-1.371-3.604-2.685-4.641-1.314-1.038-3.028-1.557-5.142-1.557-2.418 0-4.584.8-6.498 2.4-1.914 1.599-3.176 3.58-3.785 5.94-.38 1.543-.571 4.362-.571 8.456V176.4h-4v-31.078zm39.162-11.54h4.027v11.54h6.342v3.428h-6.342v27.65h-4.027v-27.65h-5.456v-3.428h5.456v-11.54zm14.825 11.54h4.084v4.542c1.219-1.79 2.504-3.128 3.856-4.014 1.353-.885 2.762-1.328 4.228-1.328 1.105 0 2.285.352 3.542 1.057l-2.085 3.37c-.838-.361-1.543-.542-2.114-.542-1.333 0-2.618.547-3.856 1.642-1.238 1.095-2.18 2.795-2.828 5.099-.495 1.771-.743 5.351-.743 10.74V176.4h-4.084v-31.078zm50.073 0V176.4h-3.942v-5.342c-1.676 2.038-3.556 3.571-5.641 4.6-2.086 1.028-4.366 1.542-6.842 1.542-4.398 0-8.155-1.595-11.268-4.785-3.114-3.19-4.67-7.07-4.67-11.64 0-4.475 1.57-8.302 4.713-11.483 3.142-3.18 6.922-4.77 11.34-4.77 2.552 0 4.86.543 6.927 1.628 2.066 1.086 3.88 2.714 5.441 4.885v-5.713h3.942zm-15.996 3.056c-2.228 0-4.285.548-6.17 1.643-1.885 1.095-3.385 2.632-4.499 4.613-1.114 1.98-1.67 4.075-1.67 6.284 0 2.19.56 4.285 1.684 6.284 1.124 2 2.633 3.557 4.528 4.67 1.895 1.115 3.927 1.672 6.098 1.672 2.19 0 4.266-.553 6.227-1.657 1.962-1.105 3.471-2.6 4.528-4.485 1.057-1.885 1.585-4.008 1.585-6.37 0-3.599-1.185-6.608-3.556-9.026-2.37-2.419-5.29-3.628-8.755-3.628zm24.394-15.053h3.999V176.4h-3.999v-43.075zm13.71-.8c.915 0 1.696.324 2.343.971.648.648.971 1.428.971 2.342 0 .896-.323 1.667-.97 2.314a3.192 3.192 0 0 1-2.343.971c-.895 0-1.666-.323-2.314-.97-.647-.648-.971-1.42-.971-2.315 0-.914.324-1.694.971-2.342.648-.647 1.419-.971 2.314-.971zm-1.999 12.797h4.028V176.4h-4.028v-31.078zm9.77 0h22.822l-17.595 27.536h17.024v3.542h-23.908l17.595-27.565h-15.939v-3.513zm53.558 20.766l3.37 1.771c-1.104 2.171-2.38 3.923-3.827 5.256a15.2 15.2 0 0 1-4.885 3.042c-1.809.695-3.856 1.043-6.141 1.043-5.066 0-9.026-1.662-11.883-4.985-2.856-3.323-4.285-7.079-4.285-11.268 0-3.942 1.21-7.456 3.628-10.54 3.066-3.924 7.17-5.885 12.311-5.885 5.294 0 9.522 2.01 12.683 6.027 2.247 2.838 3.39 6.38 3.428 10.626h-27.936c.076 3.618 1.228 6.584 3.456 8.898 2.228 2.314 4.98 3.47 8.255 3.47 1.58 0 3.118-.276 4.613-.828 1.495-.552 2.766-1.285 3.814-2.2 1.047-.913 2.18-2.39 3.399-4.427zm0-8.37c-.533-2.132-1.31-3.836-2.328-5.112-1.019-1.276-2.366-2.304-4.042-3.085a12.367 12.367 0 0 0-5.284-1.171c-3.047 0-5.666.98-7.856 2.942-1.6 1.428-2.809 3.57-3.627 6.427h23.137zm42.875-24.393V176.4h-3.942v-5.342c-1.676 2.038-3.556 3.571-5.641 4.6-2.086 1.028-4.366 1.542-6.841 1.542-4.4 0-8.156-1.595-11.27-4.785-3.113-3.19-4.67-7.07-4.67-11.64 0-4.475 1.572-8.302 4.714-11.483 3.142-3.18 6.922-4.77 11.34-4.77 2.552 0 4.86.543 6.927 1.628 2.066 1.086 3.88 2.714 5.441 4.885v-17.71h3.942zm-15.996 15.053c-2.228 0-4.285.548-6.17 1.643-1.885 1.095-3.385 2.632-4.499 4.613-1.114 1.98-1.67 4.075-1.67 6.284 0 2.19.56 4.285 1.684 6.284 1.124 2 2.633 3.557 4.528 4.67 1.895 1.115 3.928 1.672 6.098 1.672 2.19 0 4.266-.553 6.227-1.657 1.962-1.105 3.471-2.6 4.528-4.485 1.057-1.885 1.585-4.008 1.585-6.37 0-3.599-1.185-6.608-3.556-9.026-2.37-2.419-5.29-3.628-8.755-3.628zm-371.138 61.004h4.285v15.767l16.767-15.767h5.684l-20.195 18.852L841.42 251.4h-5.57l-18.452-19.595V251.4h-4.285v-42.018zm33.906 10.94h4v5.57c1.599-2.133 3.37-3.728 5.312-4.785 1.942-1.056 4.056-1.585 6.341-1.585 2.324 0 4.385.59 6.185 1.771 1.8 1.18 3.127 2.77 3.984 4.77.857 2 1.286 5.113 1.286 9.34V251.4h-3.97v-14.825c0-3.58-.153-5.97-.458-7.17-.476-2.056-1.37-3.604-2.685-4.641-1.314-1.038-3.028-1.557-5.141-1.557-2.419 0-4.585.8-6.499 2.4-1.914 1.599-3.175 3.58-3.785 5.94-.38 1.543-.57 4.362-.57 8.456V251.4h-4v-31.078zm50.388-.8c4.78 0 8.74 1.733 11.883 5.199 2.856 3.161 4.284 6.903 4.284 11.226 0 4.341-1.509 8.136-4.527 11.383-3.019 3.246-6.899 4.87-11.64 4.87-4.761 0-8.65-1.624-11.669-4.87-3.018-3.247-4.527-7.042-4.527-11.383 0-4.304 1.428-8.036 4.284-11.198 3.142-3.485 7.113-5.227 11.912-5.227zm0 3.913c-3.314 0-6.16 1.229-8.541 3.685-2.38 2.457-3.57 5.427-3.57 8.912 0 2.247.542 4.342 1.628 6.285 1.085 1.942 2.551 3.442 4.399 4.498 1.847 1.057 3.875 1.586 6.084 1.586 2.209 0 4.237-.529 6.084-1.586 1.847-1.056 3.313-2.556 4.399-4.498a12.674 12.674 0 0 0 1.628-6.285c0-3.485-1.195-6.455-3.585-8.912-2.39-2.456-5.232-3.685-8.526-3.685zm19.395-3.113h4.113l9.512 22.566 9.97-22.566h.713l9.94 22.566 9.684-22.566h4.17L951.423 251.4h-.771l-9.883-22.252-9.97 22.252h-.742l-13.254-31.078zm52.216-11.997h3.999V251.4h-4v-43.075zm38.476 32.763l3.37 1.771c-1.104 2.171-2.38 3.923-3.827 5.256a15.2 15.2 0 0 1-4.884 3.042c-1.81.695-3.857 1.043-6.142 1.043-5.065 0-9.026-1.662-11.883-4.985-2.856-3.323-4.284-7.079-4.284-11.268 0-3.942 1.209-7.456 3.627-10.54 3.066-3.924 7.17-5.885 12.312-5.885 5.294 0 9.521 2.01 12.682 6.027 2.247 2.838 3.39 6.38 3.428 10.626h-27.936c.076 3.618 1.228 6.584 3.456 8.898 2.228 2.314 4.98 3.47 8.255 3.47 1.581 0 3.119-.276 4.614-.828 1.494-.552 2.766-1.285 3.813-2.2 1.047-.913 2.18-2.39 3.4-4.427zm0-8.37c-.533-2.132-1.31-3.836-2.328-5.112-1.019-1.276-2.366-2.304-4.042-3.085a12.367 12.367 0 0 0-5.284-1.171c-3.047 0-5.665.98-7.855 2.942-1.6 1.428-2.81 3.57-3.628 6.427h23.137zm42.875-24.393V251.4h-3.942v-5.342c-1.675 2.038-3.556 3.571-5.641 4.6-2.085 1.028-4.366 1.542-6.841 1.542-4.4 0-8.155-1.595-11.269-4.785-3.113-3.19-4.67-7.07-4.67-11.64 0-4.475 1.57-8.302 4.713-11.483 3.142-3.18 6.922-4.77 11.34-4.77 2.552 0 4.86.543 6.927 1.628 2.066 1.086 3.88 2.714 5.441 4.885v-17.71h3.942zm-15.996 15.053c-2.228 0-4.284.548-6.17 1.643-1.885 1.095-3.385 2.632-4.499 4.613-1.114 1.98-1.67 4.075-1.67 6.284 0 2.19.561 4.285 1.685 6.284 1.123 2 2.632 3.557 4.527 4.67 1.895 1.115 3.928 1.672 6.099 1.672 2.19 0 4.265-.553 6.227-1.657 1.961-1.105 3.47-2.6 4.527-4.485 1.057-1.885 1.586-4.008 1.586-6.37 0-3.599-1.186-6.608-3.557-9.026-2.37-2.419-5.289-3.628-8.755-3.628zm51.816-3.056h4.028v24.765c0 4.361-.381 7.55-1.143 9.57-1.047 2.856-2.866 5.055-5.456 6.598-2.59 1.542-5.703 2.313-9.34 2.313-2.666 0-5.06-.376-7.184-1.128-2.123-.752-3.852-1.761-5.185-3.028-1.333-1.266-2.56-3.118-3.684-5.555h4.341c1.181 2.056 2.704 3.58 4.57 4.57 1.867.99 4.18 1.485 6.942 1.485 2.723 0 5.022-.51 6.898-1.528 1.876-1.019 3.214-2.3 4.014-3.842.8-1.542 1.2-4.027 1.2-7.455v-1.6a15.136 15.136 0 0 1-5.514 4.385 16.073 16.073 0 0 1-6.912 1.528c-2.857 0-5.542-.71-8.056-2.128-2.513-1.419-4.456-3.328-5.827-5.727-1.37-2.4-2.056-5.037-2.056-7.913 0-2.875.714-5.555 2.142-8.04 1.428-2.486 3.404-4.452 5.927-5.899 2.523-1.447 5.185-2.17 7.984-2.17 2.323 0 4.49.48 6.498 1.442 2.01.961 3.947 2.547 5.813 4.756v-5.4zm-11.797 3.056c-2.266 0-4.37.548-6.313 1.643a11.9 11.9 0 0 0-4.57 4.541 12.425 12.425 0 0 0-1.657 6.27c0 3.41 1.143 6.227 3.428 8.455 2.285 2.228 5.246 3.342 8.884 3.342 3.675 0 6.631-1.104 8.869-3.313 2.237-2.209 3.356-5.113 3.356-8.712 0-2.342-.514-4.432-1.542-6.27-1.029-1.838-2.485-3.29-4.37-4.356a12.157 12.157 0 0 0-6.085-1.6zm50.56 17.71l3.37 1.771c-1.105 2.171-2.38 3.923-3.828 5.256a15.2 15.2 0 0 1-4.884 3.042c-1.81.695-3.857 1.043-6.142 1.043-5.065 0-9.026-1.662-11.883-4.985-2.856-3.323-4.284-7.079-4.284-11.268 0-3.942 1.209-7.456 3.627-10.54 3.066-3.924 7.17-5.885 12.312-5.885 5.294 0 9.521 2.01 12.682 6.027 2.247 2.838 3.39 6.38 3.428 10.626h-27.936c.076 3.618 1.228 6.584 3.456 8.898 2.228 2.314 4.98 3.47 8.255 3.47 1.581 0 3.119-.276 4.614-.828 1.495-.552 2.766-1.285 3.813-2.2 1.047-.913 2.18-2.39 3.4-4.427zm0-8.37c-.534-2.132-1.31-3.836-2.329-5.112-1.019-1.276-2.366-2.304-4.042-3.085a12.367 12.367 0 0 0-5.284-1.171c-3.047 0-5.665.98-7.855 2.942-1.6 1.428-2.81 3.57-3.628 6.427h23.137zM813.141 326.4v-42.018h.914l27.936 32.163v-32.163h4.142V326.4h-.943l-27.708-31.764V326.4h-4.341zm68.754-10.312l3.37 1.771c-1.104 2.171-2.38 3.923-3.827 5.256a15.2 15.2 0 0 1-4.884 3.042c-1.81.695-3.857 1.043-6.142 1.043-5.065 0-9.026-1.662-11.882-4.985-2.857-3.323-4.285-7.079-4.285-11.268 0-3.942 1.21-7.456 3.628-10.54 3.065-3.924 7.17-5.885 12.31-5.885 5.295 0 9.522 2.01 12.683 6.027 2.248 2.838 3.39 6.38 3.428 10.626H858.36c.076 3.618 1.228 6.584 3.456 8.898 2.228 2.314 4.98 3.47 8.256 3.47 1.58 0 3.118-.276 4.613-.828 1.495-.552 2.766-1.285 3.813-2.2 1.047-.913 2.18-2.39 3.4-4.427zm0-8.37c-.533-2.132-1.309-3.836-2.328-5.112-1.019-1.276-2.366-2.304-4.042-3.085a12.367 12.367 0 0 0-5.284-1.171c-3.047 0-5.665.98-7.855 2.942-1.6 1.428-2.81 3.57-3.628 6.427h23.137zm15.34-23.936h4.027v11.54h6.341v3.428h-6.341v27.65h-4.028v-27.65h-5.455v-3.428h5.455v-11.54zm12.14 11.54h4.113L923 317.888l9.97-22.566h.714l9.94 22.566 9.683-22.566h4.17L943.996 326.4h-.77l-9.884-22.252-9.97 22.252h-.742l-13.254-31.078zm67.526-.8c4.78 0 8.74 1.733 11.882 5.199 2.857 3.161 4.285 6.903 4.285 11.226 0 4.341-1.509 8.136-4.527 11.383-3.019 3.246-6.899 4.87-11.64 4.87-4.761 0-8.65-1.624-11.669-4.87-3.018-3.247-4.527-7.042-4.527-11.383 0-4.304 1.428-8.036 4.284-11.198 3.142-3.485 7.113-5.227 11.912-5.227zm0 3.913c-3.314 0-6.16 1.229-8.541 3.685-2.38 2.457-3.57 5.427-3.57 8.912 0 2.247.542 4.342 1.627 6.285 1.086 1.942 2.552 3.442 4.4 4.498 1.847 1.057 3.875 1.586 6.084 1.586 2.209 0 4.237-.529 6.084-1.586 1.847-1.056 3.313-2.556 4.399-4.498a12.674 12.674 0 0 0 1.628-6.285c0-3.485-1.195-6.455-3.585-8.912-2.39-2.456-5.232-3.685-8.526-3.685zm22.08-3.113h4.085v4.542c1.218-1.79 2.504-3.128 3.856-4.014 1.352-.885 2.761-1.328 4.227-1.328 1.105 0 2.286.352 3.542 1.057l-2.085 3.37c-.838-.361-1.542-.542-2.114-.542-1.333 0-2.618.547-3.856 1.642-1.238 1.095-2.18 2.795-2.828 5.099-.495 1.771-.742 5.351-.742 10.74V326.4h-4.085v-31.078zm19.081-11.997h4.028v24.508l14.367-12.511h5.885l-17.053 14.825 18.053 16.253h-5.656l-15.596-13.968V326.4h-4.028v-43.075zM121.156 294.426l17.587-10.54c12.381 22.767 26.685 34.15 42.912 34.15 6.942 0 13.46-1.616 19.557-4.848 6.097-3.232 10.74-7.566 13.93-13 3.188-5.434 4.783-11.196 4.783-17.286 0-6.934-2.345-13.726-7.035-20.379-6.472-9.182-18.29-20.237-35.455-33.167-17.26-13.023-28-22.44-32.22-28.248-7.316-9.745-10.974-20.285-10.974-31.622 0-8.994 2.157-17.192 6.472-24.594 4.314-7.402 10.388-13.234 18.22-17.497 7.832-4.264 16.344-6.395 25.536-6.395 9.755 0 18.877 2.413 27.366 7.238 8.489 4.825 17.47 13.702 26.943 26.632l-16.883 12.79c-7.786-10.307-14.422-17.1-19.909-20.38-5.487-3.278-11.467-4.918-17.939-4.918-8.348 0-15.172 2.53-20.471 7.59-5.3 5.059-7.95 11.29-7.95 18.69 0 4.498.938 8.855 2.814 13.071 1.876 4.216 5.3 8.807 10.271 13.773 2.72 2.623 11.631 9.51 26.733 20.66 17.915 13.21 30.203 24.968 36.862 35.275 6.66 10.306 9.99 20.66 9.99 31.059 0 14.991-5.698 28.014-17.095 39.07-11.396 11.056-25.255 16.584-41.576 16.584-12.569 0-23.965-3.35-34.19-10.049-10.223-6.699-19.65-17.919-28.28-33.66zm284.536-12.227l16.602 8.713c-5.44 10.681-11.725 19.301-18.853 25.86-7.13 6.558-15.149 11.547-24.06 14.967-8.91 3.42-18.994 5.13-30.25 5.13-24.95 0-44.46-8.175-58.53-24.524-14.07-16.35-21.104-34.83-21.104-55.443 0-19.395 5.956-36.68 17.869-51.86 15.101-19.3 35.314-28.95 60.64-28.95 26.076 0 46.899 9.884 62.47 29.653 11.068 13.96 16.695 31.387 16.883 52.281H289.758c.375 17.802 6.05 32.394 17.024 43.778s24.528 17.076 40.661 17.076c7.786 0 15.36-1.359 22.723-4.076 7.363-2.717 13.624-6.324 18.783-10.821 5.159-4.498 10.74-11.759 16.743-21.784zm0-41.178c-2.627-10.494-6.449-18.88-11.467-25.157-5.018-6.277-11.654-11.337-19.909-15.178-8.254-3.841-16.93-5.762-26.029-5.762-15.007 0-27.904 4.825-38.691 14.475-7.88 7.027-13.835 17.568-17.869 31.622h113.965zm46.195 91.913L481.293 126.2h3.377l84.136 169.631 18.383-37.437 20.994.085-36.844 74.455h-5.206l-74.147-148.972-20.12 148.972h-19.979zM721.15 126.2h20.682v206.734H721.15V126.2zm-40.313 176.608c1.562.808 3.013 1.887 4.351 3.236 3.336 3.363 5.004 7.474 5.004 12.331 0 4.764-1.668 8.851-5.004 12.261-3.335 3.41-7.366 5.114-12.092 5.114-4.726 0-8.756-1.704-12.092-5.114-3.336-3.41-5.004-7.497-5.004-12.26 0-4.858 1.668-8.969 5.004-12.332l.064-.064L644.5 185.086 626.35 221.77c.562 1.743.843 3.612.843 5.606 0 4.764-1.668 8.851-5.004 12.261-3.335 3.41-7.366 5.114-12.092 5.114-4.726 0-8.756-1.704-12.092-5.114-3.336-3.41-5.004-7.497-5.004-12.26 0-4.858 1.668-8.969 5.004-12.332 3.336-3.363 7.366-5.044 12.092-5.044.285 0 .567.006.846.018l28.487-58.016c-.467-.39-.923-.81-1.366-1.26-3.376-3.422-5.063-7.523-5.063-12.304 0-4.876 1.687-9 5.063-12.375 3.375-3.376 7.453-5.063 12.234-5.063s8.86 1.687 12.234 5.063c3.375 3.375 5.063 7.5 5.063 12.374 0 4.782-1.688 8.883-5.063 12.305a18.138 18.138 0 0 1-3.161 2.576l21.467 149.49z"/></g></svg>