<svg xmlns="http://www.w3.org/2000/svg" width="1273" height="459" viewBox="0 0 1273 459">
  <g fill="none" fill-rule="evenodd">
    <rect width="1273" height="459" fill="#FFF"/>
    <path fill="#2E3536" d="M45.3808594,25.9023438 L41.9824219,28.5097656 C40.1074125,26.0683472 37.8564584,24.2177797 35.2294922,22.9580078 C32.6025259,21.6982359 29.7168126,21.0683594 26.5722656,21.0683594 C23.1347484,21.0683594 19.9511865,21.8935464 17.0214844,23.5439453 C14.0917822,25.1943442 11.8212971,27.4111189 10.2099609,30.1943359 C8.59862476,32.977553 7.79296875,36.1074045 7.79296875,39.5839844 C7.79296875,44.8379169 9.59470854,49.2226387 13.1982422,52.7382812 C16.8017758,56.2539238 21.3476288,58.0117188 26.8359375,58.0117188 C32.8711239,58.0117188 37.9199016,55.6484611 41.9824219,50.921875 L45.3808594,53.5 C43.2324111,56.2343887 40.5517739,58.3486253 37.3388672,59.8427734 C34.1259605,61.3369215 30.5371292,62.0839844 26.5722656,62.0839844 C19.0331654,62.0839844 13.0859593,59.5742438 8.73046875,54.5546875 C5.07810674,50.3163851 3.25195312,45.1992487 3.25195312,39.203125 C3.25195312,32.8944997 5.46384507,27.5869356 9.88769531,23.2802734 C14.3115456,18.9736113 19.8534823,16.8203125 26.5136719,16.8203125 C30.5371295,16.8203125 34.1699057,17.616203 37.4121094,19.2080078 C40.6543131,20.7998126 43.3105365,23.0312356 45.3808594,25.9023438 Z M68.4375,28.3046875 C73.3398683,28.3046875 77.4023276,30.0820135 80.625,33.6367188 C83.5547021,36.8789225 85.0195312,40.7167747 85.0195312,45.1503906 C85.0195312,49.6035379 83.4716952,53.4951005 80.3759766,56.8251953 C77.280258,60.1552901 73.3008056,61.8203125 68.4375,61.8203125 C63.5546631,61.8203125 59.5654452,60.1552901 56.4697266,56.8251953 C53.374008,53.4951005 51.8261719,49.6035379 51.8261719,45.1503906 C51.8261719,40.7363061 53.291001,36.9082193 56.2207031,33.6660156 C59.4433755,30.091779 63.5156004,28.3046875 68.4375,28.3046875 Z M68.4375,32.3183594 C65.0390455,32.3183594 62.1191528,33.5781124 59.6777344,36.0976562 C57.2363159,38.6172001 56.015625,41.6640446 56.015625,45.2382812 C56.015625,47.5429803 56.5722601,49.6913963 57.6855469,51.6835938 C58.7988337,53.6757912 60.3027249,55.2138618 62.1972656,56.2978516 C64.0918063,57.3818414 66.1718637,57.9238281 68.4375,57.9238281 C70.7031363,57.9238281 72.7831937,57.3818414 74.6777344,56.2978516 C76.5722751,55.2138618 78.0761663,53.6757912 79.1894531,51.6835938 C80.3027399,49.6913963 80.859375,47.5429803 80.859375,45.2382812 C80.859375,41.6640446 79.6338013,38.6172001 77.1826172,36.0976562 C74.7314331,33.5781124 71.8164231,32.3183594 68.4375,32.3183594 Z M92.0214844,16.8203125 L96.1230469,16.8203125 L96.1230469,61 L92.0214844,61 L92.0214844,16.8203125 Z M104.033203,16.8203125 L108.134766,16.8203125 L108.134766,61 L104.033203,61 L104.033203,16.8203125 Z M148.417969,29.125 L148.417969,61 L144.375,61 L144.375,55.5214844 C142.656241,57.6113386 140.72755,59.1835885 138.588867,60.2382812 C136.450185,61.292974 134.111341,61.8203125 131.572266,61.8203125 C127.060524,61.8203125 123.208024,60.1845867 120.014648,56.9130859 C116.821273,53.6415852 115.224609,49.6621328 115.224609,44.9746094 C115.224609,40.3847427 116.835921,36.4590007 120.058594,33.1972656 C123.281266,29.9355306 127.15818,28.3046875 131.689453,28.3046875 C134.306654,28.3046875 136.674794,28.8613226 138.793945,29.9746094 C140.913097,31.0878962 142.773429,32.7578014 144.375,34.984375 L144.375,29.125 L148.417969,29.125 Z M132.011719,32.2597656 C129.726551,32.2597656 127.617197,32.8212834 125.683594,33.9443359 C123.74999,35.0673884 122.21192,36.6445211 121.069336,38.6757812 C119.926752,40.7070414 119.355469,42.8554574 119.355469,45.1210938 C119.355469,47.3671987 119.931635,49.5156147 121.083984,51.5664062 C122.236334,53.6171978 123.78417,55.2138615 125.727539,56.3564453 C127.670908,57.4990292 129.755848,58.0703125 131.982422,58.0703125 C134.228527,58.0703125 136.357412,57.5039119 138.369141,56.3710938 C140.380869,55.2382756 141.928706,53.7050878 143.012695,51.7714844 C144.096685,49.837881 144.638672,47.6601684 144.638672,45.2382812 C144.638672,41.5468565 143.422864,38.4609499 140.991211,35.9804688 C138.559558,33.4999876 135.566424,32.2597656 132.011719,32.2597656 Z M157.910156,61 L157.910156,16.8203125 L161.982422,16.8203125 L161.982422,34.6035156 C163.70118,32.4941301 165.624989,30.9169974 167.753906,29.8720703 C169.882823,28.8271432 172.216784,28.3046875 174.755859,28.3046875 C179.267601,28.3046875 183.120101,29.9404133 186.313477,33.2119141 C189.506852,36.4834148 191.103516,40.4531017 191.103516,45.1210938 C191.103516,49.7304918 189.492204,53.6659993 186.269531,56.9277344 C183.046859,60.1894694 179.169945,61.8203125 174.638672,61.8203125 C172.041003,61.8203125 169.687511,61.2636774 167.578125,60.1503906 C165.468739,59.0371038 163.603524,57.3671986 161.982422,55.140625 L161.982422,61 L157.910156,61 Z M174.316406,57.8652344 C176.601574,57.8652344 178.710928,57.3037166 180.644531,56.1806641 C182.578135,55.0576116 184.116205,53.4804789 185.258789,51.4492188 C186.401373,49.4179586 186.972656,47.2695426 186.972656,45.0039062 C186.972656,42.7382699 186.39649,40.5800884 185.244141,38.5292969 C184.091791,36.4785054 182.543955,34.8818417 180.600586,33.7392578 C178.657217,32.596674 176.582042,32.0253906 174.375,32.0253906 C172.128895,32.0253906 169.995127,32.596674 167.973633,33.7392578 C165.952138,34.8818417 164.399419,36.4199122 163.31543,38.3535156 C162.23144,40.287119 161.689453,42.4648316 161.689453,44.8867188 C161.689453,48.5781435 162.905261,51.6640501 165.336914,54.1445312 C167.768567,56.6250124 170.761701,57.8652344 174.316406,57.8652344 Z M213.662109,28.3046875 C218.564478,28.3046875 222.626937,30.0820135 225.849609,33.6367188 C228.779312,36.8789225 230.244141,40.7167747 230.244141,45.1503906 C230.244141,49.6035379 228.696305,53.4951005 225.600586,56.8251953 C222.504867,60.1552901 218.525415,61.8203125 213.662109,61.8203125 C208.779272,61.8203125 204.790055,60.1552901 201.694336,56.8251953 C198.598617,53.4951005 197.050781,49.6035379 197.050781,45.1503906 C197.050781,40.7363061 198.51561,36.9082193 201.445312,33.6660156 C204.667985,30.091779 208.74021,28.3046875 213.662109,28.3046875 Z M213.662109,32.3183594 C210.263655,32.3183594 207.343762,33.5781124 204.902344,36.0976562 C202.460925,38.6172001 201.240234,41.6640446 201.240234,45.2382812 C201.240234,47.5429803 201.796869,49.6913963 202.910156,51.6835938 C204.023443,53.6757912 205.527334,55.2138618 207.421875,56.2978516 C209.316416,57.3818414 211.396473,57.9238281 213.662109,57.9238281 C215.927746,57.9238281 218.007803,57.3818414 219.902344,56.2978516 C221.796884,55.2138618 223.300776,53.6757912 224.414062,51.6835938 C225.527349,49.6913963 226.083984,47.5429803 226.083984,45.2382812 C226.083984,41.6640446 224.858411,38.6172001 222.407227,36.0976562 C219.956042,33.5781124 217.041033,32.3183594 213.662109,32.3183594 Z M236.308594,29.125 L240.498047,29.125 L240.498047,33.7832031 C241.748053,31.9472564 243.066399,30.5751999 244.453125,29.6669922 C245.839851,28.7587845 247.285149,28.3046875 248.789062,28.3046875 C249.921881,28.3046875 251.132806,28.666012 252.421875,29.3886719 L250.283203,32.8457031 C249.423824,32.4746075 248.701175,32.2890625 248.115234,32.2890625 C246.74804,32.2890625 245.429694,32.8505803 244.160156,33.9736328 C242.890619,35.0966853 241.923831,36.8398319 241.259766,39.203125 C240.751951,41.0195403 240.498047,44.6913786 240.498047,50.21875 L240.498047,61 L236.308594,61 L236.308594,29.125 Z M287.666016,29.125 L287.666016,61 L283.623047,61 L283.623047,55.5214844 C281.904288,57.6113386 279.975597,59.1835885 277.836914,60.2382812 C275.698231,61.292974 273.359388,61.8203125 270.820312,61.8203125 C266.308571,61.8203125 262.456071,60.1845867 259.262695,56.9130859 C256.06932,53.6415852 254.472656,49.6621328 254.472656,44.9746094 C254.472656,40.3847427 256.083968,36.4590007 259.306641,33.1972656 C262.529313,29.9355306 266.406227,28.3046875 270.9375,28.3046875 C273.554701,28.3046875 275.922841,28.8613226 278.041992,29.9746094 C280.161143,31.0878962 282.021476,32.7578014 283.623047,34.984375 L283.623047,29.125 L287.666016,29.125 Z M271.259766,32.2597656 C268.974598,32.2597656 266.865244,32.8212834 264.931641,33.9443359 C262.998037,35.0673884 261.459967,36.6445211 260.317383,38.6757812 C259.174799,40.7070414 258.603516,42.8554574 258.603516,45.1210938 C258.603516,47.3671987 259.179682,49.5156147 260.332031,51.5664062 C261.484381,53.6171978 263.032217,55.2138615 264.975586,56.3564453 C266.918955,57.4990292 269.003895,58.0703125 271.230469,58.0703125 C273.476574,58.0703125 275.605459,57.5039119 277.617188,56.3710938 C279.628916,55.2382756 281.176752,53.7050878 282.260742,51.7714844 C283.344732,49.837881 283.886719,47.6601684 283.886719,45.2382812 C283.886719,41.5468565 282.670911,38.4609499 280.239258,35.9804688 C277.807605,33.4999876 274.814471,32.2597656 271.259766,32.2597656 Z M300.46875,17.2890625 L304.599609,17.2890625 L304.599609,29.125 L311.103516,29.125 L311.103516,32.640625 L304.599609,32.640625 L304.599609,61 L300.46875,61 L300.46875,32.640625 L294.873047,32.640625 L294.873047,29.125 L300.46875,29.125 L300.46875,17.2890625 Z M318.662109,16 C319.599614,16 320.400387,16.3320279 321.064453,16.9960938 C321.728519,17.6601596 322.060547,18.4609328 322.060547,19.3984375 C322.060547,20.3164108 321.728519,21.1074186 321.064453,21.7714844 C320.400387,22.4355502 319.599614,22.7675781 318.662109,22.7675781 C317.744136,22.7675781 316.953128,22.4355502 316.289062,21.7714844 C315.624997,21.1074186 315.292969,20.3164108 315.292969,19.3984375 C315.292969,18.4609328 315.624997,17.6601596 316.289062,16.9960938 C316.953128,16.3320279 317.744136,16 318.662109,16 Z M316.611328,29.125 L320.742188,29.125 L320.742188,61 L316.611328,61 L316.611328,29.125 Z M326.220703,29.125 L330.585938,29.125 L341.25,52.328125 L351.826172,29.125 L356.220703,29.125 L341.630859,61 L340.898438,61 L326.220703,29.125 Z M389.326172,50.4238281 L392.783203,52.2402344 C391.650385,54.466808 390.341804,56.263665 388.857422,57.6308594 C387.373039,58.9980537 385.703134,60.0380824 383.847656,60.7509766 C381.992178,61.4638708 379.89259,61.8203125 377.548828,61.8203125 C372.35349,61.8203125 368.29103,60.116228 365.361328,56.7080078 C362.431626,53.2997876 360.966797,49.4472871 360.966797,45.1503906 C360.966797,41.1074017 362.207019,37.5039221 364.6875,34.3398438 C367.832047,30.3163861 372.040989,28.3046875 377.314453,28.3046875 C382.744168,28.3046875 387.080062,30.3652138 390.322266,34.4863281 C392.626965,37.3964989 393.798828,41.0292751 393.837891,45.3847656 L365.185547,45.3847656 C365.263672,49.0957217 366.445301,52.1376834 368.730469,54.5107422 C371.015636,56.8838009 373.837874,58.0703125 377.197266,58.0703125 C378.818367,58.0703125 380.3955,57.7871122 381.928711,57.2207031 C383.461922,56.654294 384.76562,55.9023484 385.839844,54.9648437 C386.914068,54.0273391 388.076166,52.5136823 389.326172,50.4238281 Z M389.326172,41.8398438 C388.779294,39.6523328 387.983404,37.9043034 386.938477,36.5957031 C385.893549,35.2871028 384.511727,34.2324259 382.792969,33.4316406 C381.07421,32.6308554 379.267588,32.2304688 377.373047,32.2304688 C374.248031,32.2304688 371.562511,33.2363181 369.316406,35.2480469 C367.675773,36.7128979 366.435551,38.9101416 365.595703,41.8398438 L389.326172,41.8398438 Z M5.24414062,92.9042969 L9.63867188,92.9042969 L9.63867188,109.076172 L26.8359375,92.9042969 L32.6660156,92.9042969 L11.953125,112.240234 L34.2773438,136 L28.5644531,136 L9.63867188,115.902344 L9.63867188,136 L5.24414062,136 L5.24414062,92.9042969 Z M40.0195312,104.125 L44.1210938,104.125 L44.1210938,109.837891 C45.761727,107.65038 47.578115,106.014654 49.5703125,104.930664 C51.56251,103.846674 53.730457,103.304688 56.0742188,103.304688 C58.4570432,103.304688 60.5712798,103.91015 62.4169922,105.121094 C64.2627045,106.332037 65.6249956,107.96288 66.5039062,110.013672 C67.3828169,112.064463 67.8222656,115.257791 67.8222656,119.59375 L67.8222656,136 L63.75,136 L63.75,120.794922 C63.75,117.123029 63.5937516,114.671881 63.28125,113.441406 C62.7929663,111.332021 61.8750067,109.745123 60.5273438,108.680664 C59.1796808,107.616206 57.4218858,107.083984 55.2539062,107.083984 C52.7734251,107.083984 50.5517676,107.904289 48.5888672,109.544922 C46.6259667,111.185555 45.3320344,113.216785 44.7070312,115.638672 C44.3164043,117.220711 44.1210938,120.111307 44.1210938,124.310547 L44.1210938,136 L40.0195312,136 L40.0195312,104.125 Z M91.6992188,103.304688 C96.601587,103.304688 100.664046,105.082013 103.886719,108.636719 C106.816421,111.878922 108.28125,115.716775 108.28125,120.150391 C108.28125,124.603538 106.733414,128.495101 103.637695,131.825195 C100.541977,135.15529 96.5625243,136.820312 91.6992188,136.820312 C86.8163818,136.820312 82.8271639,135.15529 79.7314453,131.825195 C76.6357267,128.495101 75.0878906,124.603538 75.0878906,120.150391 C75.0878906,115.736306 76.5527197,111.908219 79.4824219,108.666016 C82.7050942,105.091779 86.7773191,103.304688 91.6992188,103.304688 Z M91.6992188,107.318359 C88.3007643,107.318359 85.3808716,108.578112 82.9394531,111.097656 C80.4980347,113.6172 79.2773438,116.664045 79.2773438,120.238281 C79.2773438,122.54298 79.8339788,124.691396 80.9472656,126.683594 C82.0605524,128.675791 83.5644437,130.213862 85.4589844,131.297852 C87.3535251,132.381841 89.4335824,132.923828 91.6992188,132.923828 C93.9648551,132.923828 96.0449124,132.381841 97.9394531,131.297852 C99.8339938,130.213862 101.337885,128.675791 102.451172,126.683594 C103.564459,124.691396 104.121094,122.54298 104.121094,120.238281 C104.121094,116.664045 102.89552,113.6172 100.444336,111.097656 C97.9931518,108.578112 95.0781419,107.318359 91.6992188,107.318359 Z M111.591797,104.125 L115.810547,104.125 L125.566406,127.269531 L135.791016,104.125 L136.523438,104.125 L146.71875,127.269531 L156.650391,104.125 L160.927734,104.125 L147.099609,136 L146.308594,136 L136.171875,113.177734 L125.947266,136 L125.185547,136 L111.591797,104.125 Z M165.146484,91.8203125 L169.248047,91.8203125 L169.248047,136 L165.146484,136 L165.146484,91.8203125 Z M204.609375,125.423828 L208.066406,127.240234 C206.933588,129.466808 205.625007,131.263665 204.140625,132.630859 C202.656243,133.998054 200.986337,135.038082 199.130859,135.750977 C197.275381,136.463871 195.175793,136.820312 192.832031,136.820312 C187.636693,136.820312 183.574233,135.116228 180.644531,131.708008 C177.714829,128.299788 176.25,124.447287 176.25,120.150391 C176.25,116.107402 177.490222,112.503922 179.970703,109.339844 C183.11525,105.316386 187.324192,103.304688 192.597656,103.304688 C198.027371,103.304688 202.363265,105.365214 205.605469,109.486328 C207.910168,112.396499 209.082031,116.029275 209.121094,120.384766 L180.46875,120.384766 C180.546875,124.095722 181.728504,127.137683 184.013672,129.510742 C186.29884,131.883801 189.121077,133.070312 192.480469,133.070312 C194.101571,133.070312 195.678703,132.787112 197.211914,132.220703 C198.745125,131.654294 200.048823,130.902348 201.123047,129.964844 C202.197271,129.027339 203.359369,127.513682 204.609375,125.423828 Z M204.609375,116.839844 C204.062497,114.652333 203.266607,112.904303 202.22168,111.595703 C201.176753,110.287103 199.79493,109.232426 198.076172,108.431641 C196.357413,107.630855 194.550791,107.230469 192.65625,107.230469 C189.531234,107.230469 186.845714,108.236318 184.599609,110.248047 C182.958976,111.712898 181.718754,113.910142 180.878906,116.839844 L204.609375,116.839844 Z M248.583984,91.8203125 L248.583984,136 L244.541016,136 L244.541016,130.521484 C242.822257,132.611339 240.893565,134.183588 238.754883,135.238281 C236.6162,136.292974 234.277356,136.820312 231.738281,136.820312 C227.22654,136.820312 223.374039,135.184587 220.180664,131.913086 C216.987289,128.641585 215.390625,124.662133 215.390625,119.974609 C215.390625,115.384743 217.001937,111.459001 220.224609,108.197266 C223.447282,104.935531 227.324196,103.304687 231.855469,103.304687 C234.472669,103.304687 236.84081,103.861323 238.959961,104.974609 C241.079112,106.087896 242.939445,107.757801 244.541016,109.984375 L244.541016,91.8203125 L248.583984,91.8203125 Z M232.177734,107.259766 C229.892567,107.259766 227.783213,107.821283 225.849609,108.944336 C223.916006,110.067388 222.377935,111.644521 221.235352,113.675781 C220.092768,115.707041 219.521484,117.855457 219.521484,120.121094 C219.521484,122.367199 220.09765,124.515615 221.25,126.566406 C222.40235,128.617198 223.950186,130.213861 225.893555,131.356445 C227.836924,132.499029 229.921864,133.070312 232.148438,133.070312 C234.394542,133.070312 236.523427,132.503912 238.535156,131.371094 C240.546885,130.238276 242.094721,128.705088 243.178711,126.771484 C244.262701,124.837881 244.804688,122.660168 244.804688,120.238281 C244.804688,116.546857 243.588879,113.46095 241.157227,110.980469 C238.725574,108.499988 235.73244,107.259766 232.177734,107.259766 Z M285.322266,104.125 L289.453125,104.125 L289.453125,129.525391 C289.453125,133.998069 289.062504,137.269521 288.28125,139.339844 C287.207026,142.269546 285.34181,144.525383 282.685547,146.107422 C280.029284,147.689461 276.835956,148.480469 273.105469,148.480469 C270.37108,148.480469 267.91505,148.09473 265.737305,147.323242 C263.559559,146.551754 261.787116,145.516608 260.419922,144.217773 C259.052728,142.918939 257.792975,141.019544 256.640625,138.519531 L261.09375,138.519531 C262.304694,140.628917 263.867178,142.191401 265.78125,143.207031 C267.695322,144.222661 270.068345,144.730469 272.900391,144.730469 C275.693373,144.730469 278.051748,144.208013 279.975586,143.163086 C281.899424,142.118159 283.27148,140.804695 284.091797,139.222656 C284.912113,137.640617 285.322266,135.091814 285.322266,131.576172 L285.322266,129.935547 C283.779289,131.888682 281.894542,133.38769 279.667969,134.432617 C277.441395,135.477544 275.078138,136 272.578125,136 C269.648423,136 266.894544,135.272468 264.316406,133.817383 C261.738268,132.362297 259.746101,130.404309 258.339844,127.943359 C256.933587,125.48241 256.230469,122.777358 256.230469,119.828125 C256.230469,116.878892 256.962883,114.129896 258.427734,111.581055 C259.892585,109.032214 261.918932,107.015632 264.506836,105.53125 C267.09474,104.046868 269.824204,103.304688 272.695312,103.304688 C275.078137,103.304688 277.299794,103.797847 279.360352,104.78418 C281.420909,105.770513 283.408194,107.396473 285.322266,109.662109 L285.322266,104.125 Z M273.222656,107.259766 C270.898426,107.259766 268.740244,107.821283 266.748047,108.944336 C264.755849,110.067388 263.193365,111.620107 262.060547,113.602539 C260.927729,115.584971 260.361328,117.728504 260.361328,120.033203 C260.361328,123.529314 261.533191,126.41991 263.876953,128.705078 C266.220715,130.990246 269.257794,132.132812 272.988281,132.132812 C276.757831,132.132812 279.790028,131.000011 282.084961,128.734375 C284.379894,126.468739 285.527344,123.490253 285.527344,119.798828 C285.527344,117.396472 285.000005,115.252939 283.945312,113.368164 C282.89062,111.483389 281.396494,109.994146 279.462891,108.900391 C277.529287,107.806635 275.44923,107.259766 273.222656,107.259766 Z M325.078125,125.423828 L328.535156,127.240234 C327.402338,129.466808 326.093757,131.263665 324.609375,132.630859 C323.124993,133.998054 321.455087,135.038082 319.599609,135.750977 C317.744131,136.463871 315.644543,136.820312 313.300781,136.820312 C308.105443,136.820312 304.042983,135.116228 301.113281,131.708008 C298.183579,128.299788 296.71875,124.447287 296.71875,120.150391 C296.71875,116.107402 297.958972,112.503922 300.439453,109.339844 C303.584,105.316386 307.792942,103.304688 313.066406,103.304688 C318.496121,103.304688 322.832015,105.365214 326.074219,109.486328 C328.378918,112.396499 329.550781,116.029275 329.589844,120.384766 L300.9375,120.384766 C301.015625,124.095722 302.197254,127.137683 304.482422,129.510742 C306.76759,131.883801 309.589827,133.070312 312.949219,133.070312 C314.570321,133.070312 316.147453,132.787112 317.680664,132.220703 C319.213875,131.654294 320.517573,130.902348 321.591797,129.964844 C322.666021,129.027339 323.828119,127.513682 325.078125,125.423828 Z M325.078125,116.839844 C324.531247,114.652333 323.735357,112.904303 322.69043,111.595703 C321.645503,110.287103 320.26368,109.232426 318.544922,108.431641 C316.826163,107.630855 315.019541,107.230469 313.125,107.230469 C309.999984,107.230469 307.314464,108.236318 305.068359,110.248047 C303.427726,111.712898 302.187504,113.910142 301.347656,116.839844 L325.078125,116.839844 Z M5.2734375,211 L5.2734375,167.904297 L6.2109375,167.904297 L34.8632812,200.892578 L34.8632812,167.904297 L39.1113281,167.904297 L39.1113281,211 L38.1445312,211 L9.7265625,178.421875 L9.7265625,211 L5.2734375,211 Z M75.7910156,200.423828 L79.2480469,202.240234 C78.1152287,204.466808 76.806648,206.263665 75.3222656,207.630859 C73.8378832,208.998054 72.167978,210.038082 70.3125,210.750977 C68.457022,211.463871 66.3574336,211.820312 64.0136719,211.820312 C58.8183334,211.820312 54.755874,210.116228 51.8261719,206.708008 C48.8964697,203.299788 47.4316406,199.447287 47.4316406,195.150391 C47.4316406,191.107402 48.6718626,187.503922 51.1523438,184.339844 C54.2968907,180.316386 58.505833,178.304688 63.7792969,178.304688 C69.2090115,178.304688 73.5449057,180.365214 76.7871094,184.486328 C79.0918084,187.396499 80.2636717,191.029275 80.3027344,195.384766 L51.6503906,195.384766 C51.728516,199.095722 52.9101448,202.137683 55.1953125,204.510742 C57.4804802,206.883801 60.3027176,208.070312 63.6621094,208.070312 C65.2832112,208.070312 66.8603439,207.787112 68.3935547,207.220703 C69.9267655,206.654294 71.2304634,205.902348 72.3046875,204.964844 C73.3789116,204.027339 74.5410094,202.513682 75.7910156,200.423828 Z M75.7910156,191.839844 C75.2441379,189.652333 74.4482474,187.904303 73.4033203,186.595703 C72.3583932,185.287103 70.9765711,184.232426 69.2578125,183.431641 C67.5390539,182.630855 65.7324313,182.230469 63.8378906,182.230469 C60.712875,182.230469 58.027355,183.236318 55.78125,185.248047 C54.1406168,186.712898 52.9003948,188.910142 52.0605469,191.839844 L75.7910156,191.839844 Z M91.5234375,167.289062 L95.6542969,167.289062 L95.6542969,179.125 L102.158203,179.125 L102.158203,182.640625 L95.6542969,182.640625 L95.6542969,211 L91.5234375,211 L91.5234375,182.640625 L85.9277344,182.640625 L85.9277344,179.125 L91.5234375,179.125 L91.5234375,167.289062 Z M103.974609,179.125 L108.193359,179.125 L117.949219,202.269531 L128.173828,179.125 L128.90625,179.125 L139.101562,202.269531 L149.033203,179.125 L153.310547,179.125 L139.482422,211 L138.691406,211 L128.554688,188.177734 L118.330078,211 L117.568359,211 L103.974609,179.125 Z M173.232422,178.304688 C178.13479,178.304688 182.19725,180.082013 185.419922,183.636719 C188.349624,186.878922 189.814453,190.716775 189.814453,195.150391 C189.814453,199.603538 188.266617,203.495101 185.170898,206.825195 C182.07518,210.15529 178.095727,211.820312 173.232422,211.820312 C168.349585,211.820312 164.360367,210.15529 161.264648,206.825195 C158.16893,203.495101 156.621094,199.603538 156.621094,195.150391 C156.621094,190.736306 158.085923,186.908219 161.015625,183.666016 C164.238297,180.091779 168.310522,178.304688 173.232422,178.304688 Z M173.232422,182.318359 C169.833967,182.318359 166.914075,183.578112 164.472656,186.097656 C162.031238,188.6172 160.810547,191.664045 160.810547,195.238281 C160.810547,197.54298 161.367182,199.691396 162.480469,201.683594 C163.593756,203.675791 165.097647,205.213862 166.992188,206.297852 C168.886728,207.381841 170.966786,207.923828 173.232422,207.923828 C175.498058,207.923828 177.578116,207.381841 179.472656,206.297852 C181.367197,205.213862 182.871088,203.675791 183.984375,201.683594 C185.097662,199.691396 185.654297,197.54298 185.654297,195.238281 C185.654297,191.664045 184.428723,188.6172 181.977539,186.097656 C179.526355,183.578112 176.611345,182.318359 173.232422,182.318359 Z M195.878906,179.125 L200.068359,179.125 L200.068359,183.783203 C201.318366,181.947256 202.636712,180.5752 204.023438,179.666992 C205.410163,178.758785 206.855461,178.304688 208.359375,178.304688 C209.492193,178.304688 210.703119,178.666012 211.992188,179.388672 L209.853516,182.845703 C208.994136,182.474608 208.271487,182.289062 207.685547,182.289062 C206.318353,182.289062 205.000006,182.85058 203.730469,183.973633 C202.460931,185.096685 201.494144,186.839832 200.830078,189.203125 C200.322263,191.01954 200.068359,194.691379 200.068359,200.21875 L200.068359,211 L195.878906,211 L195.878906,179.125 Z M215.449219,166.820312 L219.580078,166.820312 L219.580078,191.957031 L234.316406,179.125 L240.351562,179.125 L222.861328,194.330078 L241.376953,211 L235.576172,211 L219.580078,196.673828 L219.580078,211 L215.449219,211 L215.449219,166.820312 Z" transform="translate(808 115)"/>
    <path fill="#2E3536" d="M121.155787,294.425906 L138.742894,283.885434 C151.12428,306.652968 165.428317,318.036565 181.655436,318.036565 C188.596516,318.036565 195.115405,316.420375 201.2123,313.187947 C207.309194,309.95552 211.952144,305.622258 215.141289,300.188031 C218.330434,294.753805 219.924982,288.991738 219.924982,282.901656 C219.924982,275.968333 217.580058,269.175652 212.890139,262.52341 C206.418051,253.341441 194.599633,242.285767 177.434531,229.356057 C160.175629,216.332652 149.435877,206.916591 145.21495,201.10759 C137.898676,191.363461 134.240595,180.823094 134.240595,169.486173 C134.240595,160.491592 136.397925,152.293528 140.71265,144.891737 C145.027375,137.489947 151.100729,131.65761 158.932893,127.394553 C166.765058,123.131496 175.277133,121 184.469374,121 C194.224405,121 203.34616,123.412573 211.834913,128.237791 C220.323666,133.063009 229.304725,141.940341 238.778361,154.870051 L221.894738,167.659158 C214.109473,157.352867 207.473338,150.560186 201.986133,147.280911 C196.498928,144.001637 190.519371,142.362024 184.047283,142.362024 C175.699228,142.362024 168.875498,144.891712 163.57589,149.951164 C158.276282,155.010616 155.626517,161.241144 155.626517,168.642935 C155.626517,173.140226 156.564487,177.496911 158.440454,181.713121 C160.316422,185.929331 163.740011,190.520247 168.711325,195.486005 C171.431478,198.109425 180.34219,204.995798 195.443729,216.145331 C213.359218,229.356123 225.646621,241.114488 232.306306,251.420779 C238.965991,261.72707 242.295783,272.080053 242.295783,282.480038 C242.295783,297.471007 236.597617,310.494216 225.201114,321.550055 C213.804612,332.605895 199.94611,338.133732 183.625192,338.133732 C171.05621,338.133732 159.659878,334.784238 149.435855,328.085148 C139.211832,321.386059 129.785237,310.166424 121.155787,294.425906 Z M405.691736,282.198958 L422.293966,290.912415 C416.85366,301.593481 410.569263,310.213159 403.440586,316.771708 C396.31191,323.330257 388.292269,328.319364 379.381423,331.739179 C370.470578,335.158993 360.387404,336.868875 349.131598,336.868875 C324.181231,336.868875 304.671461,328.694235 290.601705,312.344709 C276.531948,295.995184 269.497176,277.514407 269.497176,256.901824 C269.497176,237.507258 275.453283,220.221056 287.365677,205.0427 C302.467215,185.741827 322.680462,176.091536 348.006024,176.091536 C374.081972,176.091536 394.904899,185.976058 410.475429,205.745398 C421.543638,219.705738 427.171456,237.132478 427.359053,258.026142 L289.757524,258.026142 C290.132717,275.827917 295.807434,290.42047 306.781844,301.804237 C317.756254,313.188004 331.309916,318.879802 347.443236,318.879802 C355.228501,318.879802 362.802607,317.521266 370.165779,314.804153 C377.528951,312.08704 383.789899,308.479892 388.94881,303.982601 C394.10772,299.485311 399.68864,292.224169 405.691736,282.198958 Z M405.691736,241.020846 C403.065382,230.527168 399.243155,222.14172 394.224942,215.864252 C389.206729,209.586784 382.570593,204.527407 374.316336,200.685972 C366.062079,196.844536 357.38586,194.923847 348.287417,194.923847 C333.279677,194.923847 320.382594,199.748992 309.595781,209.399429 C301.716717,216.426445 295.76061,226.966813 291.72728,241.020846 L405.691736,241.020846 Z M451.887205,332.933766 L481.292849,126.199966 L484.669573,126.199966 L568.806296,295.831303 L587.188943,258.393699 L608.182605,258.479289 L571.338839,332.933766 L566.133055,332.933766 L491.98581,183.961755 L471.866159,332.933766 L451.887205,332.933766 Z M721.149729,126.199966 L741.832167,126.199966 L741.832167,332.933766 L721.149729,332.933766 L721.149729,126.199966 Z"/>
    <path fill="#FA0171" d="M680.836533,302.808026 C682.399104,303.616012 683.849749,304.694808 685.188477,306.04442 C688.524319,309.407383 690.192215,313.51761 690.192215,318.375223 C690.192215,323.139421 688.524319,327.226294 685.188477,330.635965 C681.852634,334.045636 677.821885,335.750446 673.096108,335.750446 C668.370331,335.750446 664.339581,334.045636 661.003739,330.635965 C657.667896,327.226294 656,323.139421 656,318.375223 C656,313.51761 657.667896,309.407383 661.003739,306.04442 C661.02511,306.022875 661.046509,306.0014 661.067937,305.979993 L644.501206,185.086072 L626.348526,221.769301 C626.910987,223.511929 627.192215,225.380566 627.192215,227.375223 C627.192215,232.139421 625.524319,236.226294 622.188477,239.635965 C618.852634,243.045636 614.821885,244.750446 610.096108,244.750446 C605.370331,244.750446 601.339581,243.045636 598.003739,239.635965 C594.667896,236.226294 593,232.139421 593,227.375223 C593,222.51761 594.667896,218.407383 598.003739,215.04442 C601.339581,211.681456 605.370331,210 610.096108,210 C610.380686,210 610.662744,210.006097 610.942282,210.018292 L639.429288,152.002427 C638.961555,151.611884 638.505958,151.191805 638.0625,150.742188 C634.687483,147.320295 633,143.218774 633,138.4375 C633,133.562476 634.687483,129.437517 638.0625,126.0625 C641.437517,122.687483 645.515601,121 650.296875,121 C655.078149,121 659.156233,122.687483 662.53125,126.0625 C665.906267,129.437517 667.59375,133.562476 667.59375,138.4375 C667.59375,143.218774 665.906267,147.320295 662.53125,150.742188 C661.538275,151.748954 660.48444,152.607617 659.369745,153.318176 L680.836533,302.808026 Z"/>
  </g>
</svg>
