<svg xmlns="http://www.w3.org/2000/svg" width="862" height="530" viewBox="0 0 862 530">
  <g fill="none" fill-rule="evenodd">
    <rect width="862" height="530" fill="#FFF"/>
    <g transform="translate(0 1)">
      <rect width="863" height="530"/>
      <path fill="#2E3536" d="M3.19892565,37 L3.19892565,10.7116222 L8.64960901,10.7116222 C12.5812691,10.7116222 15.4346584,11.0273417 17.2098626,11.6587901 C19.7594846,12.5523492 21.7520915,14.1011618 23.1877432,16.3052743 C24.6233948,18.5093868 25.3412099,21.1364112 25.3412099,24.1864263 C25.3412099,26.8194472 24.7723191,29.1367091 23.6345205,31.1382815 C22.4967219,33.1398539 21.019393,34.6171828 19.2024894,35.5703126 C17.3855859,36.5234423 14.8389806,37 11.5625972,37 L3.19892565,37 Z M5.71874976,34.5159181 L8.75683557,34.5159181 C12.3906427,34.5159181 14.9104416,34.2895532 16.3163079,33.8368165 C18.2940521,33.193454 19.8488216,32.034823 20.9806632,30.3608889 C22.1125047,28.6869549 22.678417,26.6407352 22.678417,24.2221685 C22.678417,21.6844606 22.064849,19.516123 20.8376944,17.7170906 C19.6105399,15.9180583 17.9008891,14.6849652 15.7086908,14.0177744 C14.064542,13.5173813 11.35412,13.2671885 7.57734343,13.2671885 L5.71874976,13.2671885 L5.71874976,34.5159181 Z M46.3933574,30.5485354 L48.5021464,31.6565432 C47.8111274,33.0147531 47.0128932,34.1108358 46.10742,34.9448243 C45.2019467,35.7788128 44.1833046,36.4132303 43.051463,36.8480957 C41.9196215,37.2829611 40.6388726,37.5003906 39.2091781,37.5003906 C36.0400217,37.5003906 33.5619216,36.4608991 31.7748034,34.3818849 C29.9876851,32.3028707 29.0941394,29.9528454 29.0941394,27.3317387 C29.0941394,24.8655155 29.8506748,22.6673931 31.3637682,20.7373054 C33.2819418,18.2829963 35.8493965,17.0558602 39.0662093,17.0558602 C42.3783351,17.0558602 45.0232304,18.3127812 47.0009746,20.8266608 C48.4068409,22.6018649 49.1216775,24.8178583 49.1455058,27.4747074 L31.6675768,27.4747074 C31.7152333,29.7383905 32.4360268,31.5939871 33.8299791,33.0415529 C35.2239313,34.4891187 36.945496,35.2128907 38.9947249,35.2128907 C39.983597,35.2128907 40.9456479,35.0401385 41.8809065,34.694629 C42.816165,34.3491195 43.6114207,33.8904327 44.2666974,33.3185548 C44.9219741,32.746677 45.6308537,31.8233464 46.3933574,30.5485354 Z M46.3933574,25.3123052 C46.059762,23.9779236 45.5742689,22.9116257 44.9368634,22.1133795 C44.2994579,21.3151334 43.4565464,20.6717805 42.4081037,20.1833015 C41.359661,19.6948225 40.2576213,19.4505867 39.1019515,19.4505867 C37.195692,19.4505867 35.5575249,20.0641547 34.1874009,21.2913092 C33.1866147,22.1848684 32.4300793,23.5251869 31.9177721,25.3123052 L46.3933574,25.3123052 Z M72.6817353,21.5951178 L70.6980439,22.8282232 C68.9824104,20.552626 66.6413206,19.4148445 63.6747044,19.4148445 C61.3037942,19.4148445 59.3350151,20.1773368 57.7683081,21.7023444 C56.2016012,23.2273519 55.4182594,25.0799701 55.4182594,27.2602543 C55.4182594,28.6780348 55.7786562,30.0123964 56.4994605,31.2633791 C57.2202649,32.5143619 58.2091221,33.4853483 59.466062,34.1763673 C60.7230018,34.8673864 62.1318255,35.2128907 63.6925755,35.2128907 C66.5519646,35.2128907 68.8870974,34.0751092 70.6980439,31.7995119 L72.6817353,33.1041017 C71.7524338,34.4980539 70.5044483,35.5792443 68.9377413,36.3477051 C67.3710343,37.1161659 65.5869213,37.5003906 63.5853489,37.5003906 C60.5115055,37.5003906 57.9619218,36.5234473 55.9365211,34.5695314 C53.9111204,32.6156154 52.8984353,30.2387838 52.8984353,27.4389652 C52.8984353,25.556534 53.3720145,23.8081629 54.3191872,22.1937994 C55.2663599,20.579436 56.5679581,19.3195365 58.224021,18.4140633 C59.8800839,17.50859 61.732702,17.0558602 63.7819309,17.0558602 C65.0686561,17.0558602 66.3106846,17.2524403 67.5080538,17.6456063 C68.705423,18.0387723 69.7210867,18.5510718 70.5550752,19.1825203 C71.3890637,19.8139687 72.0979433,20.6181599 72.6817353,21.5951178 Z M93.8589805,30.5485354 L95.9677694,31.6565432 C95.2767504,33.0147531 94.4785162,34.1108358 93.573043,34.9448243 C92.6675697,35.7788128 91.6489276,36.4132303 90.5170861,36.8480957 C89.3852445,37.2829611 88.1044957,37.5003906 86.6748011,37.5003906 C83.5056447,37.5003906 81.0275446,36.4608991 79.2404264,34.3818849 C77.4533081,32.3028707 76.5597624,29.9528454 76.5597624,27.3317387 C76.5597624,24.8655155 77.3162978,22.6673931 78.8293912,20.7373054 C80.7475648,18.2829963 83.3150195,17.0558602 86.5318323,17.0558602 C89.8439581,17.0558602 92.4888534,18.3127812 94.4665976,20.8266608 C95.872464,22.6018649 96.5873005,24.8178583 96.6111288,27.4747074 L79.1331998,27.4747074 C79.1808563,29.7383905 79.9016499,31.5939871 81.2956021,33.0415529 C82.6895543,34.4891187 84.411119,35.2128907 86.460348,35.2128907 C87.44922,35.2128907 88.4112709,35.0401385 89.3465295,34.694629 C90.281788,34.3491195 91.0770437,33.8904327 91.7323204,33.3185548 C92.3875971,32.746677 93.0964767,31.8233464 93.8589805,30.5485354 Z M93.8589805,25.3123052 C93.5253851,23.9779236 93.0398919,22.9116257 92.4024864,22.1133795 C91.7650809,21.3151334 90.9221694,20.6717805 89.8737267,20.1833015 C88.825284,19.6948225 87.7232443,19.4505867 86.5675745,19.4505867 C84.6613151,19.4505867 83.0231479,20.0641547 81.6530239,21.2913092 C80.6522377,22.1848684 79.8957024,23.5251869 79.3833951,25.3123052 L93.8589805,25.3123052 Z M101.275484,17.5562508 L103.777437,17.5562508 L103.777437,21.0411139 C104.778223,19.7067323 105.88622,18.7089396 107.10146,18.0477059 C108.316701,17.3864721 109.639148,17.0558602 111.068843,17.0558602 C112.522366,17.0558602 113.81205,17.4251924 114.937935,18.163868 C116.063819,18.9025435 116.894817,19.8973577 117.430952,21.1483405 C117.967088,22.3993233 118.235151,24.3472529 118.235151,26.9921879 L118.235151,37 L115.751069,37 L115.751069,27.7249027 C115.751069,25.4850479 115.655758,23.989848 115.465132,23.2392584 C115.167279,21.9525333 114.607324,20.9845254 113.785249,20.3352058 C112.963175,19.6858861 111.89092,19.3612312 110.568452,19.3612312 C109.055359,19.3612312 107.700148,19.8616168 106.502779,20.862403 C105.30541,21.8631892 104.516111,23.1022393 104.134859,24.5795904 C103.896577,25.5446342 103.777437,27.3078978 103.777437,29.8694339 L103.777437,37 L101.275484,37 L101.275484,17.5562508 Z M125.776753,10.3363292 L128.296577,10.3363292 L128.296577,17.5562508 L132.263959,17.5562508 L132.263959,19.700782 L128.296577,19.700782 L128.296577,37 L125.776753,37 L125.776753,19.700782 L122.363374,19.700782 L122.363374,17.5562508 L125.776753,17.5562508 L125.776753,10.3363292 Z M135.05185,17.5562508 L137.607416,17.5562508 L137.607416,20.3977546 C138.36992,19.2778272 139.174111,18.4408727 140.020014,17.886866 C140.865916,17.3328594 141.747548,17.0558602 142.664935,17.0558602 C143.355955,17.0558602 144.094619,17.2762681 144.880951,17.7170906 L143.576361,19.8258796 C143.05214,19.5995113 142.611324,19.4863289 142.2539,19.4863289 C141.419912,19.4863289 140.615721,19.8288547 139.841303,20.5139167 C139.066885,21.1989787 138.477145,22.2622981 138.072065,23.7039068 C137.762297,24.8119201 137.607416,27.0517414 137.607416,30.4234378 L137.607416,37 L135.05185,37 L135.05185,17.5562508 Z M166.379876,17.5562508 L166.379876,37 L163.913665,37 L163.913665,33.6581056 C162.865222,34.9329166 161.68872,35.891989 160.384124,36.5353516 C159.079528,37.1787141 157.652833,37.5003906 156.103997,37.5003906 C153.351835,37.5003906 151.00181,36.5025979 149.053851,34.5069825 C147.105892,32.5113672 146.131928,30.0839013 146.131928,27.2245121 C146.131928,24.4246936 147.114828,22.029991 149.080658,20.0403327 C151.046488,18.0506744 153.411406,17.0558602 156.175482,17.0558602 C157.771974,17.0558602 159.21654,17.3954076 160.509222,18.0745125 C161.801904,18.7536174 162.936707,19.7722596 163.913665,21.1304694 L163.913665,17.5562508 L166.379876,17.5562508 Z M156.372064,19.4684578 C154.978112,19.4684578 153.691406,19.8109836 152.511908,20.4960456 C151.33241,21.1811076 150.394187,22.1431585 149.697211,23.3822271 C149.000234,24.6212958 148.651752,25.9318295 148.651752,27.3138676 C148.651752,28.6839916 149.003213,29.9945253 149.706146,31.2455081 C150.409079,32.4964908 151.353259,33.4704556 152.538714,34.1674318 C153.724169,34.8644079 154.995983,35.2128907 156.354193,35.2128907 C157.724317,35.2128907 159.022936,34.8673864 160.250091,34.1763673 C161.477245,33.4853483 162.421425,32.5501037 163.082659,31.3706057 C163.743893,30.1911077 164.074505,28.862703 164.074505,27.385352 C164.074505,25.133583 163.332862,23.25118 161.849554,21.7380866 C160.366246,20.2249931 158.540434,19.4684578 156.372064,19.4684578 Z M171.633977,10.0503917 L174.13593,10.0503917 L174.13593,37 L171.633977,37 L171.633977,10.0503917 Z M180.212102,9.55000114 C180.78398,9.55000114 181.272451,9.75253817 181.677531,10.1576183 C182.082612,10.5626984 182.285149,11.0511701 182.285149,11.6230479 C182.285149,12.1830116 182.082612,12.6655263 181.677531,13.0706065 C181.272451,13.4756866 180.78398,13.6782236 180.212102,13.6782236 C179.652138,13.6782236 179.169623,13.4756866 178.764543,13.0706065 C178.359463,12.6655263 178.156926,12.1830116 178.156926,11.6230479 C178.156926,11.0511701 178.359463,10.5626984 178.764543,10.1576183 C179.169623,9.75253817 179.652138,9.55000114 180.212102,9.55000114 Z M178.961125,17.5562508 L181.480949,17.5562508 L181.480949,37 L178.961125,37 L178.961125,17.5562508 Z M185.073039,17.5562508 L199.352042,17.5562508 L188.343449,34.7839845 L198.994621,34.7839845 L198.994621,37 L184.036516,37 L195.045109,19.7543953 L185.073039,19.7543953 L185.073039,17.5562508 Z M218.581339,30.5485354 L220.690128,31.6565432 C219.999108,33.0147531 219.200874,34.1108358 218.295401,34.9448243 C217.389928,35.7788128 216.371286,36.4132303 215.239444,36.8480957 C214.107603,37.2829611 212.826854,37.5003906 211.397159,37.5003906 C208.228003,37.5003906 205.749903,36.4608991 203.962784,34.3818849 C202.175666,32.3028707 201.282121,29.9528454 201.282121,27.3317387 C201.282121,24.8655155 202.038656,22.6673931 203.551749,20.7373054 C205.469923,18.2829963 208.037378,17.0558602 211.25419,17.0558602 C214.566316,17.0558602 217.211212,18.3127812 219.188956,20.8266608 C220.594822,22.6018649 221.309659,24.8178583 221.333487,27.4747074 L203.855558,27.4747074 C203.903214,29.7383905 204.624008,31.5939871 206.01796,33.0415529 C207.411912,34.4891187 209.133477,35.2128907 211.182706,35.2128907 C212.171578,35.2128907 213.133629,35.0401385 214.068888,34.694629 C215.004146,34.3491195 215.799402,33.8904327 216.454678,33.3185548 C217.109955,32.746677 217.818835,31.8233464 218.581339,30.5485354 Z M218.581339,25.3123052 C218.247743,23.9779236 217.76225,22.9116257 217.124844,22.1133795 C216.487439,21.3151334 215.644528,20.6717805 214.596085,20.1833015 C213.547642,19.6948225 212.445602,19.4505867 211.289933,19.4505867 C209.383673,19.4505867 207.745506,20.0641547 206.375382,21.2913092 C205.374596,22.1848684 204.61806,23.5251869 204.105753,25.3123052 L218.581339,25.3123052 Z M245.405849,10.0503917 L245.405849,37 L242.939638,37 L242.939638,33.6581056 C241.891196,34.9329166 240.714694,35.891989 239.410097,36.5353516 C238.105501,37.1787141 236.678806,37.5003906 235.129971,37.5003906 C232.377809,37.5003906 230.027783,36.5025979 228.079824,34.5069825 C226.131866,32.5113672 225.157901,30.0839013 225.157901,27.2245121 C225.157901,24.4246936 226.140801,22.029991 228.106631,20.0403327 C230.072461,18.0506744 232.437379,17.0558602 235.201455,17.0558602 C236.797947,17.0558602 238.242513,17.3954076 239.535195,18.0745125 C240.827877,18.7536174 241.96268,19.7722596 242.939638,21.1304694 L242.939638,10.0503917 L245.405849,10.0503917 Z M235.398037,19.4684578 C234.004085,19.4684578 232.717379,19.8109836 231.537881,20.4960456 C230.358383,21.1811076 229.42016,22.1431585 228.723184,23.3822271 C228.026208,24.6212958 227.677725,25.9318295 227.677725,27.3138676 C227.677725,28.6839916 228.029186,29.9945253 228.732119,31.2455081 C229.435053,32.4964908 230.379233,33.4704556 231.564688,34.1674318 C232.750143,34.8644079 234.021956,35.2128907 235.380166,35.2128907 C236.75029,35.2128907 238.04891,34.8673864 239.276064,34.1763673 C240.503219,33.4853483 241.447399,32.5501037 242.108632,31.3706057 C242.769866,30.1911077 243.100478,28.862703 243.100478,27.385352 C243.100478,25.133583 242.358835,23.25118 240.875527,21.7380866 C239.392219,20.2249931 237.566407,19.4684578 235.398037,19.4684578 Z M261.61493,10.7116222 L264.295594,10.7116222 L264.295594,20.5764655 L274.785926,10.7116222 L278.342274,10.7116222 L265.707411,22.5065436 L279.325184,37 L275.840321,37 L264.295594,24.7404302 L264.295594,37 L261.61493,37 L261.61493,10.7116222 Z M282.827918,17.5562508 L285.329871,17.5562508 L285.329871,21.0411139 C286.330657,19.7067323 287.438654,18.7089396 288.653894,18.0477059 C289.869135,17.3864721 291.191582,17.0558602 292.621277,17.0558602 C294.0748,17.0558602 295.364484,17.4251924 296.490368,18.163868 C297.616253,18.9025435 298.447251,19.8973577 298.983386,21.1483405 C299.519521,22.3993233 299.787585,24.3472529 299.787585,26.9921879 L299.787585,37 L297.303503,37 L297.303503,27.7249027 C297.303503,25.4850479 297.208192,23.989848 297.017566,23.2392584 C296.719713,21.9525333 296.159757,20.9845254 295.337683,20.3352058 C294.515609,19.6858861 293.443354,19.3612312 292.120886,19.3612312 C290.607793,19.3612312 289.252582,19.8616168 288.055213,20.862403 C286.857843,21.8631892 286.068545,23.1022393 285.687293,24.5795904 C285.44901,25.5446342 285.329871,27.3078978 285.329871,29.8694339 L285.329871,37 L282.827918,37 L282.827918,17.5562508 Z M314.352526,17.0558602 C317.34297,17.0558602 319.821071,18.140029 321.786901,20.3083991 C323.574019,22.2861433 324.467565,24.6272331 324.467565,27.3317387 C324.467565,30.0481584 323.523385,32.4220115 321.634996,34.4533692 C319.746608,36.484727 317.319142,37.5003906 314.352526,37.5003906 C311.373996,37.5003906 308.940573,36.484727 307.052184,34.4533692 C305.163796,32.4220115 304.219616,30.0481584 304.219616,27.3317387 C304.219616,24.6391472 305.113162,22.3040144 306.90028,20.3262702 C308.86611,18.145986 311.350167,17.0558602 314.352526,17.0558602 Z M314.352526,19.5041999 C312.279469,19.5041999 310.498334,20.2726493 309.009069,21.8095709 C307.519804,23.3464926 306.775183,25.2050677 306.775183,27.385352 C306.775183,28.7912183 307.11473,30.101752 307.793835,31.3169924 C308.47294,32.5322328 309.390313,33.4704558 310.545983,34.1316896 C311.701653,34.7929233 312.970488,35.1235352 314.352526,35.1235352 C315.734564,35.1235352 317.003399,34.7929233 318.159069,34.1316896 C319.314739,33.4704558 320.232112,32.5322328 320.911217,31.3169924 C321.590322,30.101752 321.929869,28.7912183 321.929869,27.385352 C321.929869,25.2050677 321.182269,23.3464926 319.687047,21.8095709 C318.191825,20.2726493 316.413669,19.5041999 314.352526,19.5041999 Z M326.486998,17.5562508 L329.060435,17.5562508 L335.011509,31.6744143 L341.248521,17.5562508 L341.695298,17.5562508 L347.914439,31.6744143 L353.972739,17.5562508 L356.581919,17.5562508 L348.146763,37 L347.664243,37 L341.480845,23.0784185 L335.243834,37 L334.779185,37 L326.486998,17.5562508 Z M359.155356,10.0503917 L361.657309,10.0503917 L361.657309,37 L359.155356,37 L359.155356,10.0503917 Z M383.227718,30.5485354 L385.336507,31.6565432 C384.645488,33.0147531 383.847254,34.1108358 382.941781,34.9448243 C382.036308,35.7788128 381.017666,36.4132303 379.885824,36.8480957 C378.753982,37.2829611 377.473234,37.5003906 376.043539,37.5003906 C372.874383,37.5003906 370.396283,36.4608991 368.609164,34.3818849 C366.822046,32.3028707 365.9285,29.9528454 365.9285,27.3317387 C365.9285,24.8655155 366.685036,22.6673931 368.198129,20.7373054 C370.116303,18.2829963 372.683757,17.0558602 375.90057,17.0558602 C379.212696,17.0558602 381.857591,18.3127812 383.835336,20.8266608 C385.241202,22.6018649 385.956038,24.8178583 385.979867,27.4747074 L368.501938,27.4747074 C368.549594,29.7383905 369.270388,31.5939871 370.66434,33.0415529 C372.058292,34.4891187 373.779857,35.2128907 375.829086,35.2128907 C376.817958,35.2128907 377.780009,35.0401385 378.715267,34.694629 C379.650526,34.3491195 380.445782,33.8904327 381.101058,33.3185548 C381.756335,32.746677 382.465215,31.8233464 383.227718,30.5485354 Z M383.227718,25.3123052 C382.894123,23.9779236 382.40863,22.9116257 381.771224,22.1133795 C381.133819,21.3151334 380.290907,20.6717805 379.242465,20.1833015 C378.194022,19.6948225 377.091982,19.4505867 375.936312,19.4505867 C374.030053,19.4505867 372.391886,20.0641547 371.021762,21.2913092 C370.020976,22.1848684 369.26444,23.5251869 368.752133,25.3123052 L383.227718,25.3123052 Z M410.052229,10.0503917 L410.052229,37 L407.586018,37 L407.586018,33.6581056 C406.537575,34.9329166 405.361074,35.891989 404.056477,36.5353516 C402.751881,37.1787141 401.325186,37.5003906 399.776351,37.5003906 C397.024188,37.5003906 394.674163,36.5025979 392.726204,34.5069825 C390.778245,32.5113672 389.804281,30.0839013 389.804281,27.2245121 C389.804281,24.4246936 390.787181,22.029991 392.753011,20.0403327 C394.718841,18.0506744 397.083759,17.0558602 399.847835,17.0558602 C401.444327,17.0558602 402.888893,17.3954076 404.181575,18.0745125 C405.474257,18.7536174 406.60906,19.7722596 407.586018,21.1304694 L407.586018,10.0503917 L410.052229,10.0503917 Z M400.044417,19.4684578 C398.650465,19.4684578 397.363759,19.8109836 396.184261,20.4960456 C395.004763,21.1811076 394.06654,22.1431585 393.369564,23.3822271 C392.672588,24.6212958 392.324105,25.9318295 392.324105,27.3138676 C392.324105,28.6839916 392.675566,29.9945253 393.378499,31.2455081 C394.081432,32.4964908 395.025612,33.4704556 396.211067,34.1674318 C397.396523,34.8644079 398.668336,35.2128907 400.026546,35.2128907 C401.39667,35.2128907 402.69529,34.8673864 403.922444,34.1763673 C405.149599,33.4853483 406.093779,32.5501037 406.755012,31.3706057 C407.416246,30.1911077 407.746858,28.862703 407.746858,27.385352 C407.746858,25.133583 407.005215,23.25118 405.521907,21.7380866 C404.038599,20.2249931 402.212787,19.4684578 400.044417,19.4684578 Z M432.46258,17.5562508 L434.982404,17.5562508 L434.982404,33.0504884 C434.982404,35.7788223 434.744125,37.7744077 434.26756,39.0373046 C433.612283,40.8244228 432.474502,42.2004832 430.854181,43.1655271 C429.233861,44.1305709 427.285931,44.6130856 425.010334,44.6130856 C423.342357,44.6130856 421.844179,44.3777852 420.515754,43.9071774 C419.187329,43.4365696 418.106139,42.8051307 417.272151,42.0128416 C416.438162,41.2205525 415.669713,40.0619216 414.96678,38.536914 L417.683186,38.536914 C418.421861,39.8236391 419.374977,40.7767546 420.542561,41.3962889 C421.710145,42.0158232 423.157689,42.3255857 424.885236,42.3255857 C426.588956,42.3255857 428.027564,42.0068877 429.201105,41.3694822 C430.374646,40.7320767 431.211601,39.9308641 431.711994,38.9658202 C432.212387,38.0007764 432.46258,36.4460068 432.46258,34.301465 L432.46258,33.3006837 C431.521364,34.4920959 430.371669,35.406491 429.013459,36.0438965 C427.655249,36.681302 426.213662,37 424.688654,37 C422.901536,37 421.22167,36.5562056 419.649006,35.6686036 C418.076342,34.7810015 416.86112,33.5866287 416.003303,32.0854494 C415.145486,30.5842701 414.716584,28.934189 414.716584,27.1351567 C414.716584,25.3361243 415.163357,23.6592368 416.056916,22.104444 C416.950475,20.5496511 418.186547,19.3195365 419.765168,18.4140633 C421.343789,17.50859 423.008763,17.0558602 424.760139,17.0558602 C426.213661,17.0558602 427.568872,17.3566873 428.825812,17.9583504 C430.082752,18.5600135 431.294996,19.5518493 432.46258,20.9338874 L432.46258,17.5562508 Z M425.081818,19.4684578 C423.664038,19.4684578 422.347547,19.8109836 421.132307,20.4960456 C419.917066,21.1811076 418.963951,22.1282661 418.272932,23.3375494 C417.581913,24.5468327 417.236408,25.854388 417.236408,27.2602543 C417.236408,29.3928821 417.951245,31.1561456 419.38094,32.5500978 C420.810634,33.9440501 422.663252,34.6410157 424.938849,34.6410157 C427.238275,34.6410157 429.087915,33.950007 430.487824,32.5679689 C431.887733,31.1859308 432.587677,29.3690545 432.587677,27.1172856 C432.587677,25.6518486 432.266001,24.3442934 431.622638,23.1945807 C430.979276,22.0448679 430.067859,21.1364298 428.888361,20.469239 C427.708863,19.8020482 426.440028,19.4684578 425.081818,19.4684578 Z M456.713653,30.5485354 L458.822442,31.6565432 C458.131423,33.0147531 457.333189,34.1108358 456.427715,34.9448243 C455.522242,35.7788128 454.5036,36.4132303 453.371758,36.8480957 C452.239917,37.2829611 450.959168,37.5003906 449.529473,37.5003906 C446.360317,37.5003906 443.882217,36.4608991 442.095099,34.3818849 C440.307981,32.3028707 439.414435,29.9528454 439.414435,27.3317387 C439.414435,24.8655155 440.17097,22.6673931 441.684064,20.7373054 C443.602237,18.2829963 446.169692,17.0558602 449.386505,17.0558602 C452.69863,17.0558602 455.343526,18.3127812 457.32127,20.8266608 C458.727136,22.6018649 459.441973,24.8178583 459.465801,27.4747074 L441.987872,27.4747074 C442.035529,29.7383905 442.756322,31.5939871 444.150274,33.0415529 C445.544227,34.4891187 447.265791,35.2128907 449.31502,35.2128907 C450.303892,35.2128907 451.265943,35.0401385 452.201202,34.694629 C453.13646,34.3491195 453.931716,33.8904327 454.586993,33.3185548 C455.242269,32.746677 455.951149,31.8233464 456.713653,30.5485354 Z M456.713653,25.3123052 C456.380057,23.9779236 455.894564,22.9116257 455.257159,22.1133795 C454.619753,21.3151334 453.776842,20.6717805 452.728399,20.1833015 C451.679956,19.6948225 450.577917,19.4505867 449.422247,19.4505867 C447.515987,19.4505867 445.87782,20.0641547 444.507696,21.2913092 C443.50691,22.1848684 442.750375,23.5251869 442.238068,25.3123052 L456.713653,25.3123052 Z M474.691972,37 L474.691972,10.7116222 L475.263847,10.7116222 L492.741776,30.8344729 L492.741776,10.7116222 L495.333085,10.7116222 L495.333085,37 L494.743339,37 L477.408379,17.1273446 L477.408379,37 L474.691972,37 Z M517.707693,30.5485354 L519.816482,31.6565432 C519.125463,33.0147531 518.327229,34.1108358 517.421756,34.9448243 C516.516283,35.7788128 515.49764,36.4132303 514.365799,36.8480957 C513.233957,37.2829611 511.953208,37.5003906 510.523514,37.5003906 C507.354358,37.5003906 504.876257,36.4608991 503.089139,34.3818849 C501.302021,32.3028707 500.408475,29.9528454 500.408475,27.3317387 C500.408475,24.8655155 501.165011,22.6673931 502.678104,20.7373054 C504.596278,18.2829963 507.163732,17.0558602 510.380545,17.0558602 C513.692671,17.0558602 516.337566,18.3127812 518.31531,20.8266608 C519.721177,22.6018649 520.436013,24.8178583 520.459842,27.4747074 L502.981913,27.4747074 C503.029569,29.7383905 503.750363,31.5939871 505.144315,33.0415529 C506.538267,34.4891187 508.259832,35.2128907 510.309061,35.2128907 C511.297933,35.2128907 512.259984,35.0401385 513.195242,34.694629 C514.130501,34.3491195 514.925757,33.8904327 515.581033,33.3185548 C516.23631,32.746677 516.945189,31.8233464 517.707693,30.5485354 Z M517.707693,25.3123052 C517.374098,23.9779236 516.888605,22.9116257 516.251199,22.1133795 C515.613794,21.3151334 514.770882,20.6717805 513.72244,20.1833015 C512.673997,19.6948225 511.571957,19.4505867 510.416287,19.4505867 C508.510028,19.4505867 506.871861,20.0641547 505.501737,21.2913092 C504.500951,22.1848684 503.744415,23.5251869 503.232108,25.3123052 L517.707693,25.3123052 Z M527.30447,10.3363292 L529.824294,10.3363292 L529.824294,17.5562508 L533.791677,17.5562508 L533.791677,19.700782 L529.824294,19.700782 L529.824294,37 L527.30447,37 L527.30447,19.700782 L523.891091,19.700782 L523.891091,17.5562508 L527.30447,17.5562508 L527.30447,10.3363292 Z M534.899685,17.5562508 L537.473122,17.5562508 L543.424196,31.6744143 L549.661208,17.5562508 L550.107985,17.5562508 L556.327125,31.6744143 L562.385426,17.5562508 L564.994605,17.5562508 L556.559449,37 L556.07693,37 L549.893532,23.0784185 L543.65652,37 L543.191872,37 L534.899685,17.5562508 Z M577.146949,17.0558602 C580.137393,17.0558602 582.615493,18.140029 584.581323,20.3083991 C586.368442,22.2861433 587.261987,24.6272331 587.261987,27.3317387 C587.261987,30.0481584 586.317807,32.4220115 584.429419,34.4533692 C582.541031,36.484727 580.113565,37.5003906 577.146949,37.5003906 C574.168418,37.5003906 571.734995,36.484727 569.846607,34.4533692 C567.958219,32.4220115 567.014039,30.0481584 567.014039,27.3317387 C567.014039,24.6391472 567.907585,22.3040144 569.694703,20.3262702 C571.660533,18.145986 574.14459,17.0558602 577.146949,17.0558602 Z M577.146949,19.5041999 C575.073891,19.5041999 573.292757,20.2726493 571.803492,21.8095709 C570.314227,23.3464926 569.569605,25.2050677 569.569605,27.385352 C569.569605,28.7912183 569.909153,30.101752 570.588257,31.3169924 C571.267362,32.5322328 572.184736,33.4704558 573.340406,34.1316896 C574.496076,34.7929233 575.76491,35.1235352 577.146949,35.1235352 C578.528987,35.1235352 579.797822,34.7929233 580.953491,34.1316896 C582.109161,33.4704558 583.026535,32.5322328 583.70564,31.3169924 C584.384745,30.101752 584.724292,28.7912183 584.724292,27.385352 C584.724292,25.2050677 583.976692,23.3464926 582.48147,21.8095709 C580.986248,20.2726493 579.208092,19.5041999 577.146949,19.5041999 Z M590.961303,17.5562508 L593.51687,17.5562508 L593.51687,20.3977546 C594.279374,19.2778272 595.083565,18.4408727 595.929467,17.886866 C596.77537,17.3328594 597.657002,17.0558602 598.574389,17.0558602 C599.265408,17.0558602 600.004073,17.2762681 600.790405,17.7170906 L599.485815,19.8258796 C598.961594,19.5995113 598.520778,19.4863289 598.163354,19.4863289 C597.329365,19.4863289 596.525174,19.8288547 595.750756,20.5139167 C594.976339,21.1989787 594.386598,22.2622981 593.981518,23.7039068 C593.671751,24.8119201 593.51687,27.0517414 593.51687,30.4234378 L593.51687,37 L590.961303,37 L590.961303,17.5562508 Z M602.899194,10.0503917 L605.419018,10.0503917 L605.419018,25.3837895 L614.408178,17.5562508 L618.089623,17.5562508 L607.42058,26.8313481 L618.715111,37 L615.176635,37 L605.419018,28.2610355 L605.419018,37 L602.899194,37 L602.899194,10.0503917 Z" transform="translate(121 408)"/>
    </g>
    <path fill="#2E3536" d="M121.155787,294.425906 L138.742894,283.885434 C151.12428,306.652968 165.428317,318.036565 181.655436,318.036565 C188.596516,318.036565 195.115405,316.420375 201.2123,313.187947 C207.309194,309.95552 211.952144,305.622258 215.141289,300.188031 C218.330434,294.753805 219.924982,288.991738 219.924982,282.901656 C219.924982,275.968333 217.580058,269.175652 212.890139,262.52341 C206.418051,253.341441 194.599633,242.285767 177.434531,229.356057 C160.175629,216.332652 149.435877,206.916591 145.21495,201.10759 C137.898676,191.363461 134.240595,180.823094 134.240595,169.486173 C134.240595,160.491592 136.397925,152.293528 140.71265,144.891737 C145.027375,137.489947 151.100729,131.65761 158.932893,127.394553 C166.765058,123.131496 175.277133,121 184.469374,121 C194.224405,121 203.34616,123.412573 211.834913,128.237791 C220.323666,133.063009 229.304725,141.940341 238.778361,154.870051 L221.894738,167.659158 C214.109473,157.352867 207.473338,150.560186 201.986133,147.280911 C196.498928,144.001637 190.519371,142.362024 184.047283,142.362024 C175.699228,142.362024 168.875498,144.891712 163.57589,149.951164 C158.276282,155.010616 155.626517,161.241144 155.626517,168.642935 C155.626517,173.140226 156.564487,177.496911 158.440454,181.713121 C160.316422,185.929331 163.740011,190.520247 168.711325,195.486005 C171.431478,198.109425 180.34219,204.995798 195.443729,216.145331 C213.359218,229.356123 225.646621,241.114488 232.306306,251.420779 C238.965991,261.72707 242.295783,272.080053 242.295783,282.480038 C242.295783,297.471007 236.597617,310.494216 225.201114,321.550055 C213.804612,332.605895 199.94611,338.133732 183.625192,338.133732 C171.05621,338.133732 159.659878,334.784238 149.435855,328.085148 C139.211832,321.386059 129.785237,310.166424 121.155787,294.425906 Z M405.691736,282.198958 L422.293966,290.912415 C416.85366,301.593481 410.569263,310.213159 403.440586,316.771708 C396.31191,323.330257 388.292269,328.319364 379.381423,331.739179 C370.470578,335.158993 360.387404,336.868875 349.131598,336.868875 C324.181231,336.868875 304.671461,328.694235 290.601705,312.344709 C276.531948,295.995184 269.497176,277.514407 269.497176,256.901824 C269.497176,237.507258 275.453283,220.221056 287.365677,205.0427 C302.467215,185.741827 322.680462,176.091536 348.006024,176.091536 C374.081972,176.091536 394.904899,185.976058 410.475429,205.745398 C421.543638,219.705738 427.171456,237.132478 427.359053,258.026142 L289.757524,258.026142 C290.132717,275.827917 295.807434,290.42047 306.781844,301.804237 C317.756254,313.188004 331.309916,318.879802 347.443236,318.879802 C355.228501,318.879802 362.802607,317.521266 370.165779,314.804153 C377.528951,312.08704 383.789899,308.479892 388.94881,303.982601 C394.10772,299.485311 399.68864,292.224169 405.691736,282.198958 Z M405.691736,241.020846 C403.065382,230.527168 399.243155,222.14172 394.224942,215.864252 C389.206729,209.586784 382.570593,204.527407 374.316336,200.685972 C366.062079,196.844536 357.38586,194.923847 348.287417,194.923847 C333.279677,194.923847 320.382594,199.748992 309.595781,209.399429 C301.716717,216.426445 295.76061,226.966813 291.72728,241.020846 L405.691736,241.020846 Z M451.887205,332.933766 L481.292849,126.199966 L484.669573,126.199966 L568.806296,295.831303 L587.188943,258.393699 L608.182605,258.479289 L571.338839,332.933766 L566.133055,332.933766 L491.98581,183.961755 L471.866159,332.933766 L451.887205,332.933766 Z M721.149729,126.199966 L741.832167,126.199966 L741.832167,332.933766 L721.149729,332.933766 L721.149729,126.199966 Z"/>
    <path fill="#FA0171" d="M680.836533,302.808026 C682.399104,303.616012 683.849749,304.694808 685.188477,306.04442 C688.524319,309.407383 690.192215,313.51761 690.192215,318.375223 C690.192215,323.139421 688.524319,327.226294 685.188477,330.635965 C681.852634,334.045636 677.821885,335.750446 673.096108,335.750446 C668.370331,335.750446 664.339581,334.045636 661.003739,330.635965 C657.667896,327.226294 656,323.139421 656,318.375223 C656,313.51761 657.667896,309.407383 661.003739,306.04442 C661.02511,306.022875 661.046509,306.0014 661.067937,305.979993 L644.501206,185.086072 L626.348526,221.769301 C626.910987,223.511929 627.192215,225.380566 627.192215,227.375223 C627.192215,232.139421 625.524319,236.226294 622.188477,239.635965 C618.852634,243.045636 614.821885,244.750446 610.096108,244.750446 C605.370331,244.750446 601.339581,243.045636 598.003739,239.635965 C594.667896,236.226294 593,232.139421 593,227.375223 C593,222.51761 594.667896,218.407383 598.003739,215.04442 C601.339581,211.681456 605.370331,210 610.096108,210 C610.380686,210 610.662744,210.006097 610.942282,210.018292 L639.429288,152.002427 C638.961555,151.611884 638.505958,151.191805 638.0625,150.742188 C634.687483,147.320295 633,143.218774 633,138.4375 C633,133.562476 634.687483,129.437517 638.0625,126.0625 C641.437517,122.687483 645.515601,121 650.296875,121 C655.078149,121 659.156233,122.687483 662.53125,126.0625 C665.906267,129.437517 667.59375,133.562476 667.59375,138.4375 C667.59375,143.218774 665.906267,147.320295 662.53125,150.742188 C661.538275,151.748954 660.48444,152.607617 659.369745,153.318176 L680.836533,302.808026 Z"/>
  </g>
</svg>
