<svg xmlns="http://www.w3.org/2000/svg" width="862" height="530" viewBox="0 0 862 530">
  <g fill="none" fill-rule="evenodd">
    <rect width="862" height="530" fill="none"/>
    <g transform="translate(0 1)">
      <rect width="863" height="530"/>
      <path fill="#2E3536" d="M28.0604969,15.2979501 L25.9591298,16.9102059 C24.799749,15.4005956 23.4079092,14.2563281 21.7835684,13.4773691 C20.1592277,12.6984102 18.374895,12.3089366 16.4305169,12.3089366 C14.3049855,12.3089366 12.3364832,12.8191772 10.5249507,13.8396738 C8.71341832,14.8601704 7.30950175,16.230876 6.31315892,17.9518318 C5.31681609,19.6727876 4.81865215,21.6080791 4.81865215,23.7577642 C4.81865215,27.0064457 5.93272787,29.7176652 8.16091275,31.8915041 C10.3890976,34.065343 13.1999499,35.1522462 16.593554,35.1522462 C20.3253108,35.1522462 23.4471382,33.6909653 25.9591298,30.7683596 L28.0604969,32.3625002 C26.7320398,34.0532638 25.0745125,35.3605667 23.0878653,36.2844483 C21.101218,37.2083298 18.8821241,37.6702636 16.4305169,37.6702636 C11.7688401,37.6702636 8.09148449,36.1184075 5.39833962,33.0146486 C3.13996254,30.393965 2.01079093,27.2298692 2.01079093,23.5222662 C2.01079093,19.621433 3.37847739,16.3395894 6.11389135,13.6766367 C8.84930531,11.013684 12.2760694,9.68222769 16.3942864,9.68222769 C18.8821243,9.68222769 21.1283908,10.1743533 23.1331533,11.1586192 C25.1379159,12.1428852 26.7803473,13.5226483 28.0604969,15.2979501 Z M42.3171858,16.7833993 C45.3484833,16.7833993 47.8604373,17.8823791 49.8531229,20.0803718 C51.6646554,22.0851343 52.570408,24.4582062 52.570408,27.1996586 C52.570408,29.9531879 51.6133294,32.3594707 49.6991435,34.4185792 C47.7849575,36.4776877 45.3243296,37.5072265 42.3171858,37.5072265 C39.2979651,37.5072265 36.8312987,36.4776877 34.9171128,34.4185792 C33.0029269,32.3594707 32.0458483,29.9531879 32.0458483,27.1996586 C32.0458483,24.4702831 32.9516009,22.1032496 34.7631333,20.098487 C36.755819,17.8884175 39.2738113,16.7833993 42.3171858,16.7833993 Z M42.3171858,19.2651863 C40.2158082,19.2651863 38.4103413,20.0441335 36.9007309,21.6020514 C35.3911206,23.1599693 34.6363267,25.0439348 34.6363267,27.2540043 C34.6363267,28.6790765 34.9805127,30.0075137 35.668895,31.2393557 C36.3572773,32.4711978 37.2871834,33.422238 38.458641,34.092505 C39.6300986,34.762772 40.9162674,35.0979005 42.3171858,35.0979005 C43.7181042,35.0979005 45.0042729,34.762772 46.1757305,34.092505 C47.3471882,33.422238 48.2770942,32.4711978 48.9654765,31.2393557 C49.6538588,30.0075137 49.9980448,28.6790765 49.9980448,27.2540043 C49.9980448,25.0439348 49.2402318,23.1599693 47.724583,21.6020514 C46.2089342,20.0441335 44.4064865,19.2651863 42.3171858,19.2651863 Z M56.8999488,9.68222769 L59.4360815,9.68222769 L59.4360815,37 L56.8999488,37 L56.8999488,9.68222769 Z M64.3271946,9.68222769 L66.8633273,9.68222769 L66.8633273,37 L64.3271946,37 L64.3271946,9.68222769 Z M91.7717736,17.2906258 L91.7717736,37 L89.2718713,37 L89.2718713,33.6124513 C88.2091056,34.9046778 87.0165314,35.8768523 85.6941127,36.5290039 C84.371694,37.1811556 82.925509,37.5072265 81.3555142,37.5072265 C78.5657543,37.5072265 76.1836249,36.4958028 74.2090546,34.4729249 C72.2344842,32.450047 71.2472139,29.9894191 71.2472139,27.0909672 C71.2472139,24.2528997 72.2435418,21.8254827 74.2362274,19.8086433 C76.2289131,17.7918039 78.6261384,16.7833993 81.4279752,16.7833993 C83.0462775,16.7833993 84.5105775,17.1275853 85.8209193,17.8159676 C87.1312611,18.5043499 88.2815669,19.5369079 89.2718713,20.9136725 L89.2718713,17.2906258 L91.7717736,17.2906258 Z M81.6272427,19.2289558 C80.2142474,19.2289558 78.9099637,19.576161 77.7143523,20.2705817 C76.5187409,20.9650025 75.5677006,21.9401962 74.861203,23.196192 C74.1547053,24.4521878 73.8014618,25.780625 73.8014618,27.1815434 C73.8014618,28.5703849 74.1577245,29.8988221 74.8702606,31.1668948 C75.5827967,32.4349675 76.5398753,33.4222378 77.7415251,34.1287355 C78.943175,34.8352331 80.2323629,35.1884766 81.6091275,35.1884766 C82.997969,35.1884766 84.3143295,34.8382523 85.5582484,34.1377931 C86.8021674,33.4373339 87.759246,32.4893128 88.429513,31.2937014 C89.09978,30.09809 89.4349084,28.7515378 89.4349084,27.2540043 C89.4349084,24.9714735 88.6831338,23.0633546 87.1795618,21.5295905 C85.6759899,19.9958264 83.8252354,19.2289558 81.6272427,19.2289558 Z M97.6411093,37 L97.6411093,9.68222769 L100.159127,9.68222769 L100.159127,20.6781745 C101.221892,19.3738712 102.411448,18.3986775 103.727828,17.7525643 C105.044208,17.106451 106.487374,16.7833993 108.057369,16.7833993 C110.847129,16.7833993 113.229258,17.794823 115.203828,19.8177009 C117.178399,21.8405788 118.165669,24.2951684 118.165669,27.1815434 C118.165669,30.0316877 117.169341,32.4651431 115.176655,34.4819825 C113.18397,36.498822 110.786744,37.5072265 107.984908,37.5072265 C106.378682,37.5072265 104.92344,37.1630405 103.619136,36.4746582 C102.314833,35.7862759 101.161508,34.7537179 100.159127,33.3769533 L100.159127,37 L97.6411093,37 Z M107.78564,35.06167 C109.198635,35.06167 110.502919,34.7144648 111.698531,34.0200441 C112.894142,33.3256233 113.845182,32.3504296 114.55168,31.0944338 C115.258178,29.838438 115.611421,28.5100008 115.611421,27.1090824 C115.611421,25.708164 115.255158,24.3736885 114.542622,23.1056158 C113.830086,21.8375431 112.873008,20.8502728 111.671358,20.1437751 C110.469708,19.4372775 109.186558,19.0840339 107.821871,19.0840339 C106.433029,19.0840339 105.113649,19.4372775 103.863692,20.1437751 C102.613735,20.8502728 101.653637,21.801313 100.98337,22.9969244 C100.313103,24.1925358 99.9779744,25.539088 99.9779744,27.0366215 C99.9779744,29.3191524 100.729749,31.2272712 102.233321,32.7610353 C103.736893,34.2947994 105.587647,35.06167 107.78564,35.06167 Z M132.114399,16.7833993 C135.145696,16.7833993 137.65765,17.8823791 139.650336,20.0803718 C141.461868,22.0851343 142.367621,24.4582062 142.367621,27.1996586 C142.367621,29.9531879 141.410542,32.3594707 139.496357,34.4185792 C137.582171,36.4776877 135.121543,37.5072265 132.114399,37.5072265 C129.095178,37.5072265 126.628512,36.4776877 124.714326,34.4185792 C122.80014,32.3594707 121.843061,29.9531879 121.843061,27.1996586 C121.843061,24.4702831 122.748814,22.1032496 124.560346,20.098487 C126.553032,17.8884175 129.071024,16.7833993 132.114399,16.7833993 Z M132.114399,19.2651863 C130.013021,19.2651863 128.207554,20.0441335 126.697944,21.6020514 C125.188334,23.1599693 124.43354,25.0439348 124.43354,27.2540043 C124.43354,28.6790765 124.777726,30.0075137 125.466108,31.2393557 C126.15449,32.4711978 127.084396,33.422238 128.255854,34.092505 C129.427312,34.762772 130.71348,35.0979005 132.114399,35.0979005 C133.515317,35.0979005 134.801486,34.762772 135.972944,34.092505 C137.144401,33.422238 138.074307,32.4711978 138.76269,31.2393557 C139.451072,30.0075137 139.795258,28.6790765 139.795258,27.2540043 C139.795258,25.0439348 139.037445,23.1599693 137.521796,21.6020514 C136.006147,20.0441335 134.2037,19.2651863 132.114399,19.2651863 Z M146.117474,17.2906258 L148.707953,17.2906258 L148.707953,20.170948 C149.480873,19.035721 150.296051,18.1873327 151.153509,17.6257576 C152.010968,17.0641826 152.904644,16.7833993 153.834564,16.7833993 C154.535023,16.7833993 155.283779,17.0068182 156.080853,17.4536629 L154.758441,19.5912605 C154.227058,19.3617997 153.78022,19.247071 153.417914,19.247071 C152.572532,19.247071 151.757354,19.5942762 150.972357,20.288697 C150.18736,20.9831177 149.589563,22.0609634 149.178949,23.5222662 C148.86495,24.6454163 148.707953,26.9158362 148.707953,30.333594 L148.707953,37 L146.117474,37 L146.117474,17.2906258 Z M177.873479,17.2906258 L177.873479,37 L175.373577,37 L175.373577,33.6124513 C174.310811,34.9046778 173.118237,35.8768523 171.795818,36.5290039 C170.473399,37.1811556 169.027214,37.5072265 167.45722,37.5072265 C164.66746,37.5072265 162.28533,36.4958028 160.31076,34.4729249 C158.33619,32.450047 157.348919,29.9894191 157.348919,27.0909672 C157.348919,24.2528997 158.345247,21.8254827 160.337933,19.8086433 C162.330619,17.7918039 164.727844,16.7833993 167.529681,16.7833993 C169.147983,16.7833993 170.612283,17.1275853 171.922625,17.8159676 C173.232967,18.5043499 174.383272,19.5369079 175.373577,20.9136725 L175.373577,17.2906258 L177.873479,17.2906258 Z M167.728948,19.2289558 C166.315953,19.2289558 165.011669,19.576161 163.816058,20.2705817 C162.620446,20.9650025 161.669406,21.9401962 160.962908,23.196192 C160.256411,24.4521878 159.903167,25.780625 159.903167,27.1815434 C159.903167,28.5703849 160.25943,29.8988221 160.971966,31.1668948 C161.684502,32.4349675 162.641581,33.4222378 163.843231,34.1287355 C165.04488,34.8352331 166.334068,35.1884766 167.710833,35.1884766 C169.099674,35.1884766 170.416035,34.8382523 171.659954,34.1377931 C172.903873,33.4373339 173.860951,32.4893128 174.531218,31.2937014 C175.201485,30.09809 175.536614,28.7515378 175.536614,27.2540043 C175.536614,24.9714735 174.784839,23.0633546 173.281267,21.5295905 C171.777695,19.9958264 169.926941,19.2289558 167.728948,19.2289558 Z M185.789836,9.97207142 L188.344084,9.97207142 L188.344084,17.2906258 L192.365666,17.2906258 L192.365666,19.4644538 L188.344084,19.4644538 L188.344084,37 L185.789836,37 L185.789836,19.4644538 L182.329826,19.4644538 L182.329826,17.2906258 L185.789836,17.2906258 L185.789836,9.97207142 Z M197.039396,9.17500114 C197.619087,9.17500114 198.114231,9.38030507 198.524845,9.79091909 C198.935459,10.2015331 199.140763,10.6966779 199.140763,11.2763682 C199.140763,11.8439817 198.935459,12.3330882 198.524845,12.7437022 C198.114231,13.1543162 197.619087,13.3596201 197.039396,13.3596201 C196.471783,13.3596201 195.982676,13.1543162 195.572062,12.7437022 C195.161448,12.3330882 194.956144,11.8439817 194.956144,11.2763682 C194.956144,10.6966779 195.161448,10.2015331 195.572062,9.79091909 C195.982676,9.38030507 196.471783,9.17500114 197.039396,9.17500114 Z M195.77133,17.2906258 L198.325578,17.2906258 L198.325578,37 L195.77133,37 L195.77133,17.2906258 Z M201.713126,17.2906258 L204.412296,17.2906258 L211.006241,31.6378908 L217.545841,17.2906258 L220.263126,17.2906258 L211.241739,37 L210.788859,37 L201.713126,17.2906258 Z M240.73334,30.4604007 L242.870937,31.5835451 C242.170478,32.9603098 241.361339,34.0713663 240.443496,34.9167481 C239.525653,35.7621299 238.493095,36.4052143 237.345791,36.8460205 C236.198487,37.2868267 234.900242,37.5072265 233.451016,37.5072265 C230.238565,37.5072265 227.726611,36.4535343 225.915079,34.3461183 C224.103546,32.2387022 223.197794,29.8565728 223.197794,27.1996586 C223.197794,24.6997439 223.964664,22.4715924 225.498428,20.5151374 C227.442806,18.0272995 230.045336,16.7833993 233.306094,16.7833993 C236.663467,16.7833993 239.344495,18.0574913 241.349258,20.6057136 C242.77433,22.4051691 243.498932,24.6514356 243.523086,27.3445805 L225.806387,27.3445805 C225.854695,29.6391882 226.585335,31.5201345 227.99833,32.9874758 C229.411326,34.454817 231.156409,35.1884766 233.233633,35.1884766 C234.236014,35.1884766 235.211208,35.0133645 236.159243,34.6631349 C237.107279,34.3129053 237.913398,33.8479522 238.577627,33.2682619 C239.241855,32.6885715 239.960419,31.7526271 240.73334,30.4604007 Z M240.73334,25.1526372 C240.395187,23.8000263 239.903061,22.7191615 239.256948,21.9100104 C238.610835,21.1008592 237.756408,20.4487173 236.693643,19.9535652 C235.630877,19.458413 234.513782,19.2108406 233.342324,19.2108406 C231.410023,19.2108406 229.749477,19.8327907 228.360635,21.0767096 C227.346177,21.9824758 226.579306,23.3411048 226.06,25.1526372 L240.73334,25.1526372 Z M258.93915,10.3524913 L261.656435,10.3524913 L261.656435,20.3521003 L272.290077,10.3524913 L275.895008,10.3524913 L263.087538,22.3085455 L276.891346,37 L273.358875,37 L261.656435,24.5729497 L261.656435,37 L258.93915,37 L258.93915,10.3524913 Z M280.441932,17.2906258 L282.978065,17.2906258 L282.978065,20.8230964 C283.992523,19.4704855 285.115656,18.4590617 286.347498,17.7887947 C287.57934,17.1185277 288.919854,16.7833993 290.36908,16.7833993 C291.84246,16.7833993 293.149763,17.157777 294.291028,17.9065438 C295.432293,18.6553105 296.274643,19.6637151 296.818103,20.9317878 C297.361563,22.1998605 297.633289,24.1744012 297.633289,26.8554692 L297.633289,37 L295.115271,37 L295.115271,27.5981937 C295.115271,25.3277398 295.018657,23.8121137 294.825427,23.0512701 C294.523505,21.7469668 293.9559,20.7657348 293.122595,20.1075446 C292.28929,19.4493545 291.202387,19.1202644 289.861853,19.1202644 C288.328089,19.1202644 286.954364,19.6274859 285.740638,20.641944 C284.526911,21.6564022 283.726829,22.9123792 283.340369,24.4099126 C283.098832,25.3881401 282.978065,27.175492 282.978065,29.7720218 L282.978065,37 L280.441932,37 L280.441932,17.2906258 Z M312.397204,16.7833993 C315.428502,16.7833993 317.940455,17.8823791 319.933141,20.0803718 C321.744674,22.0851343 322.650426,24.4582062 322.650426,27.1996586 C322.650426,29.9531879 321.693348,32.3594707 319.779162,34.4185792 C317.864976,36.4776877 315.404348,37.5072265 312.397204,37.5072265 C309.377983,37.5072265 306.911317,36.4776877 304.997131,34.4185792 C303.082945,32.3594707 302.125866,29.9531879 302.125866,27.1996586 C302.125866,24.4702831 303.031619,22.1032496 304.843152,20.098487 C306.835837,17.8884175 309.353829,16.7833993 312.397204,16.7833993 Z M312.397204,19.2651863 C310.295826,19.2651863 308.490359,20.0441335 306.980749,21.6020514 C305.471139,23.1599693 304.716345,25.0439348 304.716345,27.2540043 C304.716345,28.6790765 305.060531,30.0075137 305.748913,31.2393557 C306.437296,32.4711978 307.367202,33.422238 308.538659,34.092505 C309.710117,34.762772 310.996286,35.0979005 312.397204,35.0979005 C313.798122,35.0979005 315.084291,34.762772 316.255749,34.092505 C317.427206,33.422238 318.357112,32.4711978 319.045495,31.2393557 C319.733877,30.0075137 320.078063,28.6790765 320.078063,27.2540043 C320.078063,25.0439348 319.32025,23.1599693 317.804601,21.6020514 C316.288952,20.0441335 314.486505,19.2651863 312.397204,19.2651863 Z M324.697448,17.2906258 L327.306041,17.2906258 L333.338414,31.6016604 L339.660631,17.2906258 L340.113511,17.2906258 L346.417613,31.6016604 L352.558677,17.2906258 L355.203501,17.2906258 L346.653111,37 L346.163999,37 L339.896129,22.888233 L333.573912,37 L333.102916,37 L324.697448,17.2906258 Z M357.812095,9.68222769 L360.348227,9.68222769 L360.348227,37 L357.812095,37 L357.812095,9.68222769 Z M382.213314,30.4604007 L384.350912,31.5835451 C383.650453,32.9603098 382.841314,34.0713663 381.923471,34.9167481 C381.005628,35.7621299 379.97307,36.4052143 378.825766,36.8460205 C377.678462,37.2868267 376.380216,37.5072265 374.93099,37.5072265 C371.71854,37.5072265 369.206586,36.4535343 367.395053,34.3461183 C365.583521,32.2387022 364.677768,29.8565728 364.677768,27.1996586 C364.677768,24.6997439 365.444639,22.4715924 366.978403,20.5151374 C368.922781,18.0272995 371.52531,16.7833993 374.786069,16.7833993 C378.143442,16.7833993 380.82447,18.0574913 382.829232,20.6057136 C384.254304,22.4051691 384.978907,24.6514356 385.00306,27.3445805 L367.286362,27.3445805 C367.334669,29.6391882 368.06531,31.5201345 369.478305,32.9874758 C370.8913,34.454817 372.636384,35.1884766 374.713608,35.1884766 C375.715989,35.1884766 376.691183,35.0133645 377.639218,34.6631349 C378.587253,34.3129053 379.393373,33.8479522 380.057602,33.2682619 C380.72183,32.6885715 381.440394,31.7526271 382.213314,30.4604007 Z M382.213314,25.1526372 C381.875162,23.8000263 381.383036,22.7191615 380.736923,21.9100104 C380.09081,21.1008592 379.236383,20.4487173 378.173617,19.9535652 C377.110852,19.458413 375.993757,19.2108406 374.822299,19.2108406 C372.889998,19.2108406 371.229451,19.8327907 369.84061,21.0767096 C368.826152,21.9824758 368.059281,23.3411048 367.539975,25.1526372 L382.213314,25.1526372 Z M409.40428,9.68222769 L409.40428,37 L406.904378,37 L406.904378,33.6124513 C405.841612,34.9046778 404.649038,35.8768523 403.326619,36.5290039 C402.0042,37.1811556 400.558015,37.5072265 398.988021,37.5072265 C396.198261,37.5072265 393.816131,36.4958028 391.841561,34.4729249 C389.866991,32.450047 388.87972,29.9894191 388.87972,27.0909672 C388.87972,24.2528997 389.876048,21.8254827 391.868734,19.8086433 C393.86142,17.7918039 396.258645,16.7833993 399.060482,16.7833993 C400.678784,16.7833993 402.143084,17.1275853 403.453426,17.8159676 C404.763768,18.5043499 405.914073,19.5369079 406.904378,20.9136725 L406.904378,9.68222769 L409.40428,9.68222769 Z M399.259749,19.2289558 C397.846754,19.2289558 396.54247,19.576161 395.346859,20.2705817 C394.151247,20.9650025 393.200207,21.9401962 392.493709,23.196192 C391.787212,24.4521878 391.433968,25.780625 391.433968,27.1815434 C391.433968,28.5703849 391.790231,29.8988221 392.502767,31.1668948 C393.215303,32.4349675 394.172382,33.4222378 395.374032,34.1287355 C396.575681,34.8352331 397.864869,35.1884766 399.241634,35.1884766 C400.630475,35.1884766 401.946836,34.8382523 403.190755,34.1377931 C404.434674,33.4373339 405.391752,32.4893128 406.062019,31.2937014 C406.732286,30.09809 407.067415,28.7515378 407.067415,27.2540043 C407.067415,24.9714735 406.31564,23.0633546 404.812068,21.5295905 C403.308496,19.9958264 401.457742,19.2289558 399.259749,19.2289558 Z M432.120783,17.2906258 L434.675031,17.2906258 L434.675031,32.9965334 C434.675031,35.7621395 434.433497,37.7849871 433.950422,39.0651366 C433.286193,40.8766691 432.132868,42.2715281 430.490412,43.2497556 C428.847956,44.2279831 426.873415,44.7170895 424.566731,44.7170895 C422.875967,44.7170895 421.357322,44.4785747 420.010749,44.0015378 C418.664177,43.5245009 417.568216,42.8844357 416.722834,42.081323 C415.877453,41.2782103 415.098505,40.1037511 414.385969,38.5579101 L417.139485,38.5579101 C417.888252,39.8622134 418.854388,40.8283496 420.037922,41.4563475 C421.221457,42.0843454 422.688776,42.3983396 424.439924,42.3983396 C426.166918,42.3983396 427.62518,42.0752879 428.814753,41.4291746 C430.004326,40.7830614 430.852714,39.9709032 431.359943,38.9926757 C431.867172,38.0144482 432.120783,36.4384386 432.120783,34.2645997 L432.120783,33.2501466 C431.166709,34.4578349 430.001308,35.3847218 428.624543,36.030835 C427.247778,36.6769482 425.786497,37 424.240656,37 C422.429124,37 420.726309,36.5501429 419.13216,35.6504151 C417.538012,34.7506873 416.306188,33.539998 415.436653,32.0183108 C414.567117,30.4966235 414.132356,28.8240003 414.132356,27.000391 C414.132356,25.1767817 414.585232,23.476986 415.490999,21.9009528 C416.396765,20.3249196 417.649723,19.0780001 419.24991,18.160157 C420.850096,17.2423139 422.537816,16.7833993 424.313117,16.7833993 C425.786497,16.7833993 427.160222,17.088336 428.434333,17.6982186 C429.708444,18.3081011 430.937248,19.3134866 432.120783,20.714405 L432.120783,17.2906258 Z M424.639192,19.2289558 C423.202042,19.2289558 421.867567,19.576161 420.635725,20.2705817 C419.403883,20.9650025 418.437747,21.9251003 417.737288,23.1509039 C417.036828,24.3767075 416.686604,25.7021255 416.686604,27.1271977 C416.686604,29.2889597 417.411206,31.0763115 418.860432,32.4893068 C420.309658,33.9023021 422.187585,34.6087892 424.49427,34.6087892 C426.825108,34.6087892 428.700016,33.9083405 430.11905,32.5074221 C431.538083,31.1065037 432.24759,29.2648067 432.24759,26.9822758 C432.24759,25.4968192 431.921519,24.1714012 431.269367,23.005982 C430.617215,21.8405628 429.693348,20.9197143 428.497736,20.2434089 C427.302125,19.5671035 426.015956,19.2289558 424.639192,19.2289558 Z M456.703155,30.4604007 L458.840753,31.5835451 C458.140293,32.9603098 457.331154,34.0713663 456.413311,34.9167481 C455.495468,35.7621299 454.46291,36.4052143 453.315606,36.8460205 C452.168302,37.2868267 450.870057,37.5072265 449.420831,37.5072265 C446.20838,37.5072265 443.696426,36.4535343 441.884894,34.3461183 C440.073362,32.2387022 439.167609,29.8565728 439.167609,27.1996586 C439.167609,24.6997439 439.934479,22.4715924 441.468244,20.5151374 C443.412622,18.0272995 446.015151,16.7833993 449.275909,16.7833993 C452.633283,16.7833993 455.31431,18.0574913 457.319073,20.6057136 C458.744145,22.4051691 459.468747,24.6514356 459.492901,27.3445805 L441.776203,27.3445805 C441.82451,29.6391882 442.555151,31.5201345 443.968146,32.9874758 C445.381141,34.454817 447.126224,35.1884766 449.203448,35.1884766 C450.20583,35.1884766 451.181023,35.0133645 452.129059,34.6631349 C453.077094,34.3129053 453.883214,33.8479522 454.547442,33.2682619 C455.211671,32.6885715 455.930235,31.7526271 456.703155,30.4604007 Z M456.703155,25.1526372 C456.365002,23.8000263 455.872877,22.7191615 455.226764,21.9100104 C454.58065,21.1008592 453.726224,20.4487173 452.663458,19.9535652 C451.600692,19.458413 450.483597,19.2108406 449.31214,19.2108406 C447.379838,19.2108406 445.719292,19.8327907 444.33045,21.0767096 C443.315992,21.9824758 442.549122,23.3411048 442.029816,25.1526372 L456.703155,25.1526372 Z M474.92708,37 L474.92708,10.3524913 L475.506768,10.3524913 L493.223466,30.7502444 L493.223466,10.3524913 L495.850175,10.3524913 L495.850175,37 L495.252372,37 L477.680596,16.8558602 L477.680596,37 L474.92708,37 Z M518.530447,30.4604007 L520.668045,31.5835451 C519.967586,32.9603098 519.158447,34.0713663 518.240604,34.9167481 C517.322761,35.7621299 516.290203,36.4052143 515.142899,36.8460205 C513.995595,37.2868267 512.697349,37.5072265 511.248124,37.5072265 C508.035673,37.5072265 505.523719,36.4535343 503.712186,34.3461183 C501.900654,32.2387022 500.994901,29.8565728 500.994901,27.1996586 C500.994901,24.6997439 501.761772,22.4715924 503.295536,20.5151374 C505.239914,18.0272995 507.842443,16.7833993 511.103202,16.7833993 C514.460575,16.7833993 517.141603,18.0574913 519.146365,20.6057136 C520.571438,22.4051691 521.29604,24.6514356 521.320193,27.3445805 L503.603495,27.3445805 C503.651802,29.6391882 504.382443,31.5201345 505.795438,32.9874758 C507.208433,34.454817 508.953517,35.1884766 511.030741,35.1884766 C512.033122,35.1884766 513.008316,35.0133645 513.956351,34.6631349 C514.904386,34.3129053 515.710506,33.8479522 516.374735,33.2682619 C517.038963,32.6885715 517.757527,31.7526271 518.530447,30.4604007 Z M518.530447,25.1526372 C518.192295,23.8000263 517.700169,22.7191615 517.054056,21.9100104 C516.407943,21.1008592 515.553516,20.4487173 514.49075,19.9535652 C513.427985,19.458413 512.31089,19.2108406 511.139432,19.2108406 C509.207131,19.2108406 507.546584,19.8327907 506.157743,21.0767096 C505.143285,21.9824758 504.376414,23.3411048 503.857108,25.1526372 L518.530447,25.1526372 Z M528.258328,9.97207142 L530.812576,9.97207142 L530.812576,17.2906258 L534.834158,17.2906258 L534.834158,19.4644538 L530.812576,19.4644538 L530.812576,37 L528.258328,37 L528.258328,19.4644538 L524.798318,19.4644538 L524.798318,17.2906258 L528.258328,17.2906258 L528.258328,9.97207142 Z M535.957302,17.2906258 L538.565896,17.2906258 L544.598269,31.6016604 L550.920485,17.2906258 L551.373366,17.2906258 L557.677467,31.6016604 L563.818531,17.2906258 L566.463356,17.2906258 L557.912965,37 L557.423854,37 L551.155983,22.888233 L544.833767,37 L544.362771,37 L535.957302,17.2906258 Z M578.781714,16.7833993 C581.813012,16.7833993 584.324966,17.8823791 586.317652,20.0803718 C588.129184,22.0851343 589.034937,24.4582062 589.034937,27.1996586 C589.034937,29.9531879 588.077858,32.3594707 586.163672,34.4185792 C584.249486,36.4776877 581.788858,37.5072265 578.781714,37.5072265 C575.762494,37.5072265 573.295827,36.4776877 571.381642,34.4185792 C569.467456,32.3594707 568.510377,29.9531879 568.510377,27.1996586 C568.510377,24.4702831 569.41613,22.1032496 571.227662,20.098487 C573.220348,17.8884175 575.73834,16.7833993 578.781714,16.7833993 Z M578.781714,19.2651863 C576.680337,19.2651863 574.87487,20.0441335 573.36526,21.6020514 C571.855649,23.1599693 571.100855,25.0439348 571.100855,27.2540043 C571.100855,28.6790765 571.445041,30.0075137 572.133424,31.2393557 C572.821806,32.4711978 573.751712,33.422238 574.92317,34.092505 C576.094627,34.762772 577.380796,35.0979005 578.781714,35.0979005 C580.182633,35.0979005 581.468802,34.762772 582.640259,34.092505 C583.811717,33.422238 584.741623,32.4711978 585.430005,31.2393557 C586.118388,30.0075137 586.462574,28.6790765 586.462574,27.2540043 C586.462574,25.0439348 585.704761,23.1599693 584.189112,21.6020514 C582.673463,20.0441335 580.871015,19.2651863 578.781714,19.2651863 Z M592.78479,17.2906258 L595.375268,17.2906258 L595.375268,20.170948 C596.148189,19.035721 596.963366,18.1873327 597.820825,17.6257576 C598.678284,17.0641826 599.57196,16.7833993 600.50188,16.7833993 C601.202339,16.7833993 601.951094,17.0068182 602.748169,17.4536629 L601.425757,19.5912605 C600.894374,19.3617997 600.447536,19.247071 600.085229,19.247071 C599.239847,19.247071 598.42467,19.5942762 597.639673,20.288697 C596.854675,20.9831177 596.256879,22.0609634 595.846265,23.5222662 C595.532266,24.6454163 595.375268,26.9158362 595.375268,30.333594 L595.375268,37 L592.78479,37 L592.78479,17.2906258 Z M604.885766,9.68222769 L607.440014,9.68222769 L607.440014,25.2250981 L616.551977,17.2906258 L620.283715,17.2906258 L609.46892,26.6924321 L620.917748,37 L617.330932,37 L607.440014,28.1416508 L607.440014,37 L604.885766,37 L604.885766,9.68222769 Z" transform="translate(121 408)"/>
    </g>
    <path fill="#2E3536" d="M121.155787,294.425906 L138.742894,283.885434 C151.12428,306.652968 165.428317,318.036565 181.655436,318.036565 C188.596516,318.036565 195.115405,316.420375 201.2123,313.187947 C207.309194,309.95552 211.952144,305.622258 215.141289,300.188031 C218.330434,294.753805 219.924982,288.991738 219.924982,282.901656 C219.924982,275.968333 217.580058,269.175652 212.890139,262.52341 C206.418051,253.341441 194.599633,242.285767 177.434531,229.356057 C160.175629,216.332652 149.435877,206.916591 145.21495,201.10759 C137.898676,191.363461 134.240595,180.823094 134.240595,169.486173 C134.240595,160.491592 136.397925,152.293528 140.71265,144.891737 C145.027375,137.489947 151.100729,131.65761 158.932893,127.394553 C166.765058,123.131496 175.277133,121 184.469374,121 C194.224405,121 203.34616,123.412573 211.834913,128.237791 C220.323666,133.063009 229.304725,141.940341 238.778361,154.870051 L221.894738,167.659158 C214.109473,157.352867 207.473338,150.560186 201.986133,147.280911 C196.498928,144.001637 190.519371,142.362024 184.047283,142.362024 C175.699228,142.362024 168.875498,144.891712 163.57589,149.951164 C158.276282,155.010616 155.626517,161.241144 155.626517,168.642935 C155.626517,173.140226 156.564487,177.496911 158.440454,181.713121 C160.316422,185.929331 163.740011,190.520247 168.711325,195.486005 C171.431478,198.109425 180.34219,204.995798 195.443729,216.145331 C213.359218,229.356123 225.646621,241.114488 232.306306,251.420779 C238.965991,261.72707 242.295783,272.080053 242.295783,282.480038 C242.295783,297.471007 236.597617,310.494216 225.201114,321.550055 C213.804612,332.605895 199.94611,338.133732 183.625192,338.133732 C171.05621,338.133732 159.659878,334.784238 149.435855,328.085148 C139.211832,321.386059 129.785237,310.166424 121.155787,294.425906 Z M405.691736,282.198958 L422.293966,290.912415 C416.85366,301.593481 410.569263,310.213159 403.440586,316.771708 C396.31191,323.330257 388.292269,328.319364 379.381423,331.739179 C370.470578,335.158993 360.387404,336.868875 349.131598,336.868875 C324.181231,336.868875 304.671461,328.694235 290.601705,312.344709 C276.531948,295.995184 269.497176,277.514407 269.497176,256.901824 C269.497176,237.507258 275.453283,220.221056 287.365677,205.0427 C302.467215,185.741827 322.680462,176.091536 348.006024,176.091536 C374.081972,176.091536 394.904899,185.976058 410.475429,205.745398 C421.543638,219.705738 427.171456,237.132478 427.359053,258.026142 L289.757524,258.026142 C290.132717,275.827917 295.807434,290.42047 306.781844,301.804237 C317.756254,313.188004 331.309916,318.879802 347.443236,318.879802 C355.228501,318.879802 362.802607,317.521266 370.165779,314.804153 C377.528951,312.08704 383.789899,308.479892 388.94881,303.982601 C394.10772,299.485311 399.68864,292.224169 405.691736,282.198958 Z M405.691736,241.020846 C403.065382,230.527168 399.243155,222.14172 394.224942,215.864252 C389.206729,209.586784 382.570593,204.527407 374.316336,200.685972 C366.062079,196.844536 357.38586,194.923847 348.287417,194.923847 C333.279677,194.923847 320.382594,199.748992 309.595781,209.399429 C301.716717,216.426445 295.76061,226.966813 291.72728,241.020846 L405.691736,241.020846 Z M451.887205,332.933766 L481.292849,126.199966 L484.669573,126.199966 L568.806296,295.831303 L587.188943,258.393699 L608.182605,258.479289 L571.338839,332.933766 L566.133055,332.933766 L491.98581,183.961755 L471.866159,332.933766 L451.887205,332.933766 Z M721.149729,126.199966 L741.832167,126.199966 L741.832167,332.933766 L721.149729,332.933766 L721.149729,126.199966 Z"/>
    <path fill="#FA0171" d="M680.836533,302.808026 C682.399104,303.616012 683.849749,304.694808 685.188477,306.04442 C688.524319,309.407383 690.192215,313.51761 690.192215,318.375223 C690.192215,323.139421 688.524319,327.226294 685.188477,330.635965 C681.852634,334.045636 677.821885,335.750446 673.096108,335.750446 C668.370331,335.750446 664.339581,334.045636 661.003739,330.635965 C657.667896,327.226294 656,323.139421 656,318.375223 C656,313.51761 657.667896,309.407383 661.003739,306.04442 C661.02511,306.022875 661.046509,306.0014 661.067937,305.979993 L644.501206,185.086072 L626.348526,221.769301 C626.910987,223.511929 627.192215,225.380566 627.192215,227.375223 C627.192215,232.139421 625.524319,236.226294 622.188477,239.635965 C618.852634,243.045636 614.821885,244.750446 610.096108,244.750446 C605.370331,244.750446 601.339581,243.045636 598.003739,239.635965 C594.667896,236.226294 593,232.139421 593,227.375223 C593,222.51761 594.667896,218.407383 598.003739,215.04442 C601.339581,211.681456 605.370331,210 610.096108,210 C610.380686,210 610.662744,210.006097 610.942282,210.018292 L639.429288,152.002427 C638.961555,151.611884 638.505958,151.191805 638.0625,150.742188 C634.687483,147.320295 633,143.218774 633,138.4375 C633,133.562476 634.687483,129.437517 638.0625,126.0625 C641.437517,122.687483 645.515601,121 650.296875,121 C655.078149,121 659.156233,122.687483 662.53125,126.0625 C665.906267,129.437517 667.59375,133.562476 667.59375,138.4375 C667.59375,143.218774 665.906267,147.320295 662.53125,150.742188 C661.538275,151.748954 660.48444,152.607617 659.369745,153.318176 L680.836533,302.808026 Z"/>
  </g>
</svg>
