<svg height="530" width="862" xmlns="http://www.w3.org/2000/svg"><g fill="none" fill-rule="evenodd"><path d="m0 0h862v530h-862z" fill="none"/><path d="m0 1h863v530h-863z"/><path d="m149.0605 424.298-2.1014 1.6122c-1.1594-1.5096-2.5512-2.6539-4.1755-3.4328-1.6244-.779-3.4087-1.1685-5.353-1.1685-2.1256 0-4.0941.5103-5.9056 1.5308-1.8116 1.0205-3.2155 2.3912-4.2118 4.1121-.9964 1.721-1.4945 3.6563-1.4945 5.806 0 3.2486 1.114 5.9599 3.3422 8.1337s5.039 3.2607 8.4327 3.2607c3.7317 0 6.8535-1.4612 9.3655-4.3838l2.1014 1.5941c-1.3285 1.6908-2.986 2.998-4.9726 3.922-1.9867.9238-4.2058 1.3858-6.6574 1.3858-4.6617 0-8.339-1.5519-11.0322-4.6557-2.2583-2.6206-3.3875-5.7847-3.3875-9.4923 0-3.9009 1.3677-7.1827 4.103-9.8457 2.7355-2.663 6.1623-3.9944 10.2805-3.9944 2.4878 0 4.734.4922 6.7389 1.4764 2.0047.9843 3.6471 2.364 4.9273 4.1394zm14.2567 1.4854c3.0313 0 5.5432 1.099 7.536 3.297 1.8115 2.0047 2.7172 4.3778 2.7172 7.1193 0 2.7535-.957 5.1598-2.8713 7.2189-1.9141 2.059-4.3748 3.0886-7.382 3.0886-3.0191 0-5.4858-1.0295-7.4-3.0886s-2.8713-4.4654-2.8713-7.219c0-2.7293.9058-5.0964 2.7173-7.1011 1.9927-2.21 4.5107-3.3151 7.554-3.3151zm0 2.4818c-2.1014 0-3.9069.779-5.4165 2.3369s-2.2644 3.4418-2.2644 5.6519c0 1.425.3442 2.7535 1.0326 3.9854.6884 1.2318 1.6183 2.1828 2.7897 2.8531 1.1715.6703 2.4577 1.0054 3.8586 1.0054s2.687-.3351 3.8585-1.0054 2.1014-1.6213 2.7898-2.8531c.6884-1.2319 1.0325-2.5603 1.0325-3.9854 0-2.21-.7578-4.094-2.2734-5.652-1.5157-1.5579-3.3181-2.3368-5.4074-2.3368zm14.5827-9.583h2.5362v27.3178h-2.5362zm7.4273 0h2.5361v27.3178h-2.5361zm27.4446 7.6084v19.7094h-2.5v-3.3875c-1.0627 1.2922-2.2553 2.2644-3.5777 2.9165-1.3224.6522-2.7686.9782-4.3386.9782-2.7897 0-5.1719-1.0114-7.1464-3.0343-1.9746-2.0229-2.9619-4.4835-2.9619-7.382 0-2.838.9963-5.2654 2.989-7.2823 1.9927-2.0168 4.39-3.0252 7.1918-3.0252 1.6183 0 3.0826.3442 4.393 1.0326 1.3103.6883 2.4606 1.721 3.4509 3.0977v-3.623h2.4999zm-10.1446 1.9384c-1.413 0-2.7172.3472-3.9128 1.0416-1.1957.6944-2.1467 1.6696-2.8532 2.9256s-1.0597 2.5844-1.0597 3.9853c0 1.3889.3562 2.7173 1.0688 3.9854.7125 1.268 1.6696 2.2553 2.8712 2.9618 1.2017.7065 2.4909 1.0598 3.8676 1.0598 1.3889 0 2.7052-.3502 3.9491-1.0507 1.244-.7005 2.201-1.6485 2.8713-2.8441s1.0054-2.5422 1.0054-4.0397c0-2.2825-.7518-4.1906-2.2553-5.7244-1.5036-1.5338-3.3544-2.3006-5.5524-2.3006zm16.014 17.771v-27.3178h2.518v10.996c1.0627-1.3043 2.2522-2.2795 3.5686-2.9256s2.7596-.9692 4.3296-.9692c2.7897 0 5.1719 1.0114 7.1464 3.0343 1.9746 2.0229 2.9619 4.4775 2.9619 7.3638 0 2.8502-.9964 5.2836-2.989 7.3005-1.9927 2.0168-4.39 3.0252-7.1918 3.0252-1.6062 0-3.0615-.3442-4.3658-1.0325-1.3043-.6884-2.4576-1.721-3.46-3.0977v3.623h-2.518zm10.1444-1.9383c1.413 0 2.7173-.3472 3.913-1.0417 1.1955-.6944 2.1466-1.6696 2.853-2.9256.7066-1.256 1.0598-2.5844 1.0598-3.9853 0-1.401-.3562-2.7354-1.0688-4.0035-.7125-1.268-1.6696-2.2553-2.8712-2.9618-1.2017-.7065-2.4848-1.0598-3.8495-1.0598-1.3889 0-2.7083.3533-3.9582 1.0598-1.25.7065-2.21 1.6575-2.8803 2.8531s-1.0054 2.5422-1.0054 4.0397c0 2.2826.7517 4.1907 2.2553 5.7244 1.5036 1.5338 3.3543 2.3007 5.5523 2.3007zm24.3288-18.2783c3.0313 0 5.5433 1.099 7.536 3.297 1.8115 2.0047 2.7172 4.3778 2.7172 7.1193 0 2.7535-.957 5.1598-2.8712 7.2189-1.9142 2.059-4.3749 3.0886-7.382 3.0886-3.0192 0-5.4859-1.0295-7.4-3.0886-1.9143-2.0591-2.8713-4.4654-2.8713-7.219 0-2.7293.9057-5.0964 2.7172-7.1011 1.9927-2.21 4.5107-3.3151 7.5541-3.3151zm0 2.4818c-2.1014 0-3.9068.779-5.4165 2.3369-1.5096 1.5579-2.2644 3.4418-2.2644 5.6519 0 1.425.3442 2.7535 1.0326 3.9854.6884 1.2318 1.6183 2.1828 2.7898 2.8531 1.1714.6703 2.4576 1.0054 3.8585 1.0054 1.401 0 2.687-.3351 3.8585-1.0054s2.1014-1.6213 2.7898-2.8531c.6884-1.2319 1.0326-2.5603 1.0326-3.9854 0-2.21-.7579-4.094-2.2735-5.652-1.5157-1.5579-3.3181-2.3368-5.4074-2.3368zm14.003-1.9746h2.5906v2.8803c.7729-1.1352 1.588-1.9836 2.4455-2.5451.8575-.5616 1.7511-.8424 2.681-.8424.7005 0 1.4493.2234 2.2464.6703l-1.3225 2.1376c-.5313-.2295-.9782-.3442-1.3405-.3442-.8454 0-1.6605.3472-2.4455 1.0416s-1.3828 1.7723-1.7935 3.2336c-.314 1.1231-.471 3.3935-.471 6.8113v6.6664h-2.5904v-19.7094zm31.756 0v19.7094h-2.4998v-3.3875c-1.0628 1.2922-2.2554 2.2644-3.5778 2.9165-1.3224.6522-2.7686.9782-4.3386.9782-2.7897 0-5.1719-1.0114-7.1464-3.0343-1.9746-2.0229-2.9619-4.4835-2.9619-7.382 0-2.838.9963-5.2654 2.989-7.2823 1.9927-2.0168 4.39-3.0252 7.1918-3.0252 1.6183 0 3.0826.3442 4.393 1.0326 1.3103.6883 2.4606 1.721 3.4509 3.0977v-3.623h2.4999zm-10.1445 1.9384c-1.413 0-2.7172.3472-3.9128 1.0416-1.1957.6944-2.1467 1.6696-2.8532 2.9256s-1.0597 2.5844-1.0597 3.9853c0 1.3889.3562 2.7173 1.0688 3.9854.7125 1.268 1.6696 2.2553 2.8712 2.9618 1.2017.7065 2.4909 1.0598 3.8676 1.0598 1.3889 0 2.7052-.3502 3.9492-1.0507 1.2439-.7005 2.201-1.6485 2.8712-2.8441.6703-1.1956 1.0054-2.5422 1.0054-4.0397 0-2.2825-.7518-4.1906-2.2553-5.7244-1.5036-1.5338-3.3544-2.3006-5.5524-2.3006zm18.061-9.257h2.5542v7.3186h4.0216v2.1739h-4.0216v17.5355h-2.5543v-17.5355h-3.46v-2.1739h3.46v-7.3185zm11.2495-.797c.5797 0 1.0748.2053 1.4854.616.4107.4105.616.9057.616 1.4854 0 .5676-.2053 1.0567-.616 1.4673-.4106.4106-.9057.616-1.4854.616-.5676 0-1.0567-.2054-1.4673-.616-.4107-.4106-.616-.8997-.616-1.4673 0-.5797.2053-1.0749.616-1.4855.4106-.4106.8997-.6159 1.4673-.6159zm-1.268 8.1156h2.5542v19.7094h-2.5543v-19.7094zm5.9417 0h2.6992l6.594 14.3473 6.5395-14.3473h2.7173l-9.0214 19.7094h-.4528zm39.0202 13.1698 2.1376 1.1231c-.7004 1.3768-1.5096 2.4879-2.4274 3.3332-.9178.8454-1.9504 1.4885-3.0977 1.9293s-2.4456.6612-3.8948.6612c-3.2124 0-5.7244-1.0537-7.536-3.161-1.8115-2.1075-2.7172-4.4896-2.7172-7.1465 0-2.5.7669-4.7281 2.3006-6.6846 1.9444-2.4878 4.547-3.7317 7.8077-3.7317 3.3574 0 6.0384 1.274 8.0432 3.8223 1.425 1.7995 2.1496 4.0457 2.1738 6.7389h-17.7167c.0483 2.2946.779 4.1755 2.192 5.6429 1.413 1.4673 3.158 2.201 5.2352 2.201 1.0024 0 1.9776-.1751 2.9256-.5254.948-.3502 1.7542-.8151 2.4184-1.3948.6643-.5797 1.3828-1.5157 2.1557-2.8079zm0-5.3078c-.3381-1.3526-.8302-2.4334-1.4764-3.2426-.646-.8091-1.5005-1.4613-2.5633-1.9564-1.0627-.4952-2.1798-.7428-3.3513-.7428-1.9323 0-3.5928.622-4.9817 1.866-1.0144.9057-1.7813 2.2643-2.3006 4.0758zm18.2058-14.8001h2.7173v9.9996l10.6337-9.9996h3.605l-12.8076 11.956 13.8038 14.6915h-3.5324l-11.7025-12.427v12.427h-2.7173zm21.5028 6.9381h2.5362v3.5325c1.0144-1.3526 2.1376-2.364 3.3694-3.0343s2.5724-1.0054 4.0216-1.0054c1.4734 0 2.7807.3744 3.922 1.1231 1.1412.7488 1.9835 1.7572 2.527 3.0253.5435 1.268.8152 3.2426.8152 5.9237v10.1445h-2.518v-9.4018c0-2.2705-.0966-3.786-.2899-4.547-.3019-1.3042-.8695-2.2855-1.7028-2.9437-.8333-.6581-1.9202-.9872-3.2607-.9872-1.5338 0-2.9075.5072-4.1213 1.5216-1.2137 1.0145-2.0138 2.2705-2.4002 3.768-.2416.9782-.3623 2.7656-.3623 5.3621v7.228h-2.5362zm31.9553-.5072c3.0313 0 5.5433 1.099 7.536 3.297 1.8115 2.0047 2.7172 4.3778 2.7172 7.1193 0 2.7535-.957 5.1598-2.8712 7.2189-1.9142 2.059-4.3749 3.0886-7.382 3.0886-3.0192 0-5.4859-1.0295-7.4-3.0886-1.9143-2.0591-2.8713-4.4654-2.8713-7.219 0-2.7293.9057-5.0964 2.7173-7.1011 1.9926-2.21 4.5106-3.3151 7.554-3.3151zm0 2.4818c-2.1014 0-3.9068.779-5.4165 2.3369-1.5096 1.5579-2.2644 3.4418-2.2644 5.6519 0 1.425.3442 2.7535 1.0326 3.9854.6884 1.2318 1.6183 2.1828 2.7898 2.8531 1.1714.6703 2.4576 1.0054 3.8585 1.0054 1.401 0 2.687-.3351 3.8585-1.0054s2.1014-1.6213 2.7898-2.8531c.6884-1.2319 1.0326-2.5603 1.0326-3.9854 0-2.21-.7579-4.094-2.2735-5.652-1.5156-1.5579-3.318-2.3368-5.4074-2.3368zm12.3002-1.9746h2.6086l6.0324 14.311 6.3222-14.311h.453l6.304 14.311 6.141-14.311h2.6449l-8.5504 19.7094h-.4891l-6.2679-14.1118-6.3221 14.1118h-.471l-8.4055-19.7094zm33.1147-7.6084h2.5361v27.3178h-2.5361zm24.4012 20.7782 2.1376 1.1231c-.7004 1.3768-1.5096 2.4879-2.4274 3.3332-.9179.8454-1.9504 1.4885-3.0977 1.9293s-2.4456.6612-3.8948.6612c-3.2125 0-5.7244-1.0537-7.536-3.161-1.8115-2.1075-2.7172-4.4896-2.7172-7.1465 0-2.5.7668-4.7281 2.3006-6.6846 1.9444-2.4878 4.547-3.7317 7.8077-3.7317 3.3573 0 6.0384 1.274 8.0431 3.8223 1.4251 1.7995 2.1497 4.0457 2.1739 6.7389h-17.7167c.0483 2.2946.779 4.1755 2.1919 5.6429 1.413 1.4673 3.158 2.201 5.2353 2.201 1.0024 0 1.9776-.1751 2.9256-.5254.948-.3502 1.7542-.8151 2.4184-1.3948s1.3828-1.5157 2.1557-2.8079zm0-5.3078c-.3381-1.3526-.8303-2.4334-1.4764-3.2426-.646-.8091-1.5005-1.4613-2.5633-1.9564-1.0627-.4952-2.1798-.7428-3.3513-.7428-1.9323 0-3.5928.622-4.9817 1.866-1.0144.9057-1.7813 2.2643-2.3006 4.0758zm27.191-15.4704v27.3178h-2.5v-3.3875c-1.0627 1.2922-2.2553 2.2644-3.5777 2.9165-1.3224.6522-2.7686.9782-4.3386.9782-2.7897 0-5.1719-1.0114-7.1464-3.0343-1.9746-2.0229-2.9619-4.4835-2.9619-7.382 0-2.838.9963-5.2654 2.989-7.2823 1.9927-2.0168 4.39-3.0252 7.1918-3.0252 1.6183 0 3.0826.3442 4.393 1.0326 1.3103.6883 2.4606 1.721 3.4509 3.0977v-11.2315zm-10.1446 9.5468c-1.413 0-2.7172.3472-3.9128 1.0416-1.1957.6944-2.1467 1.6696-2.8532 2.9256s-1.0597 2.5844-1.0597 3.9853c0 1.3889.3562 2.7173 1.0688 3.9854.7125 1.268 1.6696 2.2553 2.8712 2.9618 1.2017.7065 2.4909 1.0598 3.8676 1.0598 1.3889 0 2.7052-.3502 3.9492-1.0507 1.2439-.7005 2.201-1.6485 2.8712-2.8441.6703-1.1956 1.0054-2.5422 1.0054-4.0397 0-2.2825-.7518-4.1906-2.2553-5.7244-1.5036-1.5338-3.3544-2.3006-5.5524-2.3006zm32.861-1.9384h2.5543v15.706c0 2.7655-.2415 4.7884-.7246 6.0685-.6642 1.8116-1.8175 3.2064-3.46 4.1847-1.6424.9782-3.617 1.4673-5.9237 1.4673-1.6907 0-3.2094-.2385-4.556-.7156-1.3465-.477-2.4425-1.117-3.2879-1.9202-.8453-.803-1.6243-1.9775-2.3368-3.5234h2.7535c.7488 1.3043 1.7149 2.2704 2.8984 2.8984 1.1836.628 2.6509.942 4.402.942 1.727 0 3.1853-.323 4.3749-.9691 1.1895-.6461 2.038-1.4583 2.5451-2.4365.5073-.9783.7609-2.5543.7609-4.7281v-1.0145c-.954 1.2077-2.1195 2.1346-3.4963 2.7807-1.3767.6461-2.838.9692-4.3838.9692-1.8116 0-3.5144-.4499-5.1085-1.3496-1.5942-.8997-2.826-2.1104-3.6955-3.632-.8696-1.5218-1.3043-3.1944-1.3043-5.018s.4528-3.5234 1.3586-5.0994 2.1587-2.823 3.759-3.7408c1.6001-.9179 3.2878-1.3768 5.0631-1.3768 1.4734 0 2.8471.305 4.1212.9148 1.2741.6099 2.503 1.6153 3.6865 3.0162v-3.4238zm-7.4815 1.9384c-1.4372 0-2.7716.3472-4.0035 1.0416-1.2318.6944-2.198 1.6545-2.8984 2.8803-.7005 1.2258-1.0507 2.5512-1.0507 3.9763 0 2.1618.7246 3.9491 2.1738 5.3621 1.4493 1.413 3.3272 2.1195 5.6339 2.1195 2.3308 0 4.2057-.7005 5.6247-2.1014s2.1286-3.2426 2.1286-5.5251c0-1.4855-.326-2.8109-.9782-3.9763s-1.576-2.0863-2.7717-2.7626c-1.1956-.6763-2.4817-1.0144-3.8585-1.0144zm32.064 11.2314 2.1376 1.1231c-.7005 1.3768-1.5096 2.4879-2.4275 3.3332-.9178.8454-1.9504 1.4885-3.0977 1.9293s-2.4455.6612-3.8948.6612c-3.2124 0-5.7244-1.0537-7.536-3.161-1.8114-2.1075-2.7172-4.4896-2.7172-7.1465 0-2.5.7669-4.7281 2.3006-6.6846 1.9444-2.4878 4.547-3.7317 7.8077-3.7317 3.3574 0 6.0384 1.274 8.0432 3.8223 1.425 1.7995 2.1496 4.0457 2.1738 6.7389h-17.7167c.0483 2.2946.779 4.1755 2.192 5.6429 1.413 1.4673 3.158 2.201 5.2352 2.201 1.0024 0 1.9776-.1751 2.9257-.5254.948-.3502 1.7541-.8151 2.4183-1.3948.6643-.5797 1.3828-1.5157 2.1558-2.8079zm0-5.3078c-.3382-1.3526-.8303-2.4334-1.4764-3.2426-.6462-.8091-1.5006-1.4613-2.5633-1.9564-1.0628-.4952-2.1799-.7428-3.3514-.7428-1.9323 0-3.5928.622-4.9817 1.866-1.0144.9057-1.7813 2.2643-2.3006 4.0758zm18.2238 11.8474v-26.6475h.5797l17.7167 20.3977v-20.3977h2.6267v26.6475h-.5978l-17.5718-20.1441v20.1441zm43.6033-6.5396 2.1376 1.1231c-.7004 1.3768-1.5096 2.4879-2.4274 3.3332-.9178.8454-1.9504 1.4885-3.0977 1.9293s-2.4456.6612-3.8948.6612c-3.2124 0-5.7244-1.0537-7.536-3.161-1.8114-2.1075-2.7172-4.4896-2.7172-7.1465 0-2.5.7669-4.7281 2.3006-6.6846 1.9444-2.4878 4.547-3.7317 7.8077-3.7317 3.3574 0 6.0384 1.274 8.0432 3.8223 1.425 1.7995 2.1496 4.0457 2.1738 6.7389h-17.7167c.0483 2.2946.779 4.1755 2.192 5.6429 1.413 1.4673 3.158 2.201 5.2352 2.201 1.0024 0 1.9776-.1751 2.9257-.5254.948-.3502 1.7541-.8151 2.4183-1.3948.6643-.5797 1.3828-1.5157 2.1557-2.8079zm0-5.3078c-.3381-1.3526-.8302-2.4334-1.4763-3.2426-.6462-.8091-1.5006-1.4613-2.5634-1.9564-1.0627-.4952-2.1798-.7428-3.3513-.7428-1.9323 0-3.5928.622-4.9817 1.866-1.0144.9057-1.7813 2.2643-2.3006 4.0758zm9.728-15.1805h2.5542v7.3185h4.0216v2.1739h-4.0216v17.5355h-2.5543v-17.5355h-3.46v-2.1739h3.46v-7.3185zm7.6989 7.3185h2.6086l6.0324 14.311 6.3222-14.311h.4529l6.304 14.311 6.1411-14.311h2.6449l-8.5503 19.7094h-.4891l-6.268-14.1118-6.322 14.1118h-.471l-8.4055-19.7094zm42.8244-.5072c3.0313 0 5.5433 1.099 7.536 3.297 1.8115 2.0047 2.7172 4.3778 2.7172 7.1193 0 2.7535-.957 5.1598-2.8712 7.2189-1.9142 2.059-4.3748 3.0886-7.382 3.0886-3.0192 0-5.4859-1.0295-7.4-3.0886-1.9142-2.0591-2.8713-4.4654-2.8713-7.219 0-2.7293.9057-5.0964 2.7173-7.1011 1.9926-2.21 4.5106-3.3151 7.554-3.3151zm0 2.4818c-2.1014 0-3.9068.779-5.4164 2.3369-1.5097 1.5579-2.2644 3.4418-2.2644 5.6519 0 1.425.3441 2.7535 1.0325 3.9854.6884 1.2318 1.6183 2.1828 2.7898 2.8531 1.1714.6703 2.4576 1.0054 3.8585 1.0054 1.401 0 2.6871-.3351 3.8586-1.0054 1.1714-.6703 2.1013-1.6213 2.7897-2.8531.6884-1.2319 1.0326-2.5603 1.0326-3.9854 0-2.21-.7578-4.094-2.2735-5.652-1.5156-1.5579-3.318-2.3368-5.4074-2.3368zm14.003-1.9746h2.5906v2.8803c.7729-1.1352 1.588-1.9836 2.4455-2.5451.8575-.5616 1.7512-.8424 2.681-.8424.7005 0 1.4493.2234 2.2464.6703l-1.3224 2.1376c-.5314-.2295-.9783-.3442-1.3406-.3442-.8454 0-1.6605.3472-2.4455 1.0416s-1.3828 1.7723-1.7934 3.2336c-.314 1.1231-.471 3.3935-.471 6.8113v6.6664h-2.5905v-19.7094zm12.101-7.6084h2.5543v15.5429l9.112-7.9345h3.7317l-10.8148 9.4018 11.4489 10.3076h-3.5868l-9.8909-8.8583v8.8583h-2.5542v-27.3178zm-604.7298-124.2562 17.587-10.5406c12.3815 22.7676 26.6855 34.1512 42.9126 34.1512 6.9411 0 13.46-1.6162 19.5569-4.8487 6.0969-3.2324 10.7398-7.5656 13.929-12.9999 3.1891-5.4342 4.7837-11.1963 4.7837-17.2863 0-6.9334-2.345-13.726-7.0349-20.3783-6.472-9.182-18.2905-20.2376-35.4556-33.1673-17.2589-13.0234-27.9986-22.4395-32.2196-28.2485-7.3162-9.7441-10.9743-20.2845-10.9743-31.6214 0-8.9946 2.1573-17.1927 6.472-24.5945 4.3148-7.4018 10.3881-13.234 18.2203-17.4971 7.8321-4.2631 16.3441-6.3946 25.5365-6.3946 9.755 0 18.8768 2.4126 27.3655 7.2378 8.4888 4.8252 17.4698 13.7025 26.9435 26.6323l-16.8837 12.789c-7.7852-10.3062-14.4214-17.099-19.9086-20.3782-5.4872-3.2793-11.4667-4.9189-17.9388-4.9189-8.348 0-15.1718 2.5297-20.4714 7.5892-5.2996 5.0594-7.9494 11.29-7.9494 18.6917 0 4.4973.938 8.854 2.814 13.0702s5.2995 8.8071 10.2708 13.773c2.7202 2.6233 11.6309 9.5097 26.7324 20.6592 17.9155 13.2108 30.203 24.9692 36.8626 35.2755 6.6597 10.3063 9.9895 20.6593 9.9895 31.0592 0 14.991-5.6982 28.0142-17.0947 39.07-11.3965 11.0559-25.255 16.5837-41.576 16.5837-12.5689 0-23.9652-3.3495-34.1892-10.0486-10.224-6.699-19.6507-17.9187-28.2801-33.6592zm284.536-12.227 16.6022 8.7134c-5.4403 10.681-11.7247 19.3008-18.8534 25.8593-7.1287 6.5586-15.1483 11.5477-24.0592 14.9675-8.9108 3.4198-18.994 5.1297-30.2498 5.1297-24.9504 0-44.4601-8.1747-58.5299-24.5242s-21.1045-34.8303-21.1045-55.4429c0-19.3945 5.956-36.6807 17.8685-51.8591 15.1015-19.3009 35.3148-28.9512 60.6403-28.9512 26.076 0 46.8989 9.8846 62.4694 29.6539 11.0682 13.9603 16.696 31.387 16.8837 52.2807h-137.6016c.3752 17.8018 6.05 32.3944 17.0243 43.7781 10.9745 11.3838 24.5281 17.0756 40.6614 17.0756 7.7853 0 15.3594-1.3585 22.7226-4.0756 7.3632-2.7172 13.6241-6.3243 18.783-10.8216 5.159-4.4973 10.7398-11.7584 16.743-21.7836zm0-41.1782c-2.6264-10.4936-6.4486-18.879-11.4669-25.1565-5.0182-6.2775-11.6543-11.3369-19.9086-15.1783-8.2542-3.8415-16.9304-5.7622-26.0289-5.7622-15.0077 0-27.9048 4.8252-38.6916 14.4756-7.879 7.027-13.8352 17.5674-17.8685 31.6214h113.9644zm46.1954 91.913 29.4056-206.7338h3.3768l84.1367 169.6313 18.3826-37.4376 20.9937.0856-36.8438 74.4545h-5.2057l-74.1473-148.972-20.1196 148.972zm269.2625-206.7338h20.6825v206.7338h-20.6825z" fill="#2e3536"/><path d="m680.8365 302.808c1.5626.808 3.0132 1.8868 4.352 3.2364 3.3358 3.363 5.0037 7.4732 5.0037 12.3308 0 4.7642-1.6679 8.851-5.0037 12.2608-3.3359 3.4096-7.3666 5.1144-12.0924 5.1144s-8.7565-1.7048-12.0924-5.1144c-3.3357-3.4097-5.0037-7.4966-5.0037-12.2608 0-4.8576 1.6679-8.9678 5.0037-12.3308l.0642-.0644-16.5667-120.894-18.1527 36.6833c.5625 1.7426.8437 3.6113.8437 5.606 0 4.7641-1.6679 8.851-5.0037 12.2607-3.3359 3.4096-7.3666 5.1144-12.0924 5.1144s-8.7565-1.7048-12.0924-5.1144c-3.3357-3.4097-5.0037-7.4966-5.0037-12.2608 0-4.8576 1.6679-8.9678 5.0037-12.3308 3.3359-3.363 7.3666-5.0444 12.0924-5.0444.2846 0 .5666.0061.8462.0183l28.487-58.0159a19.2482 19.2482 0 0 1 -1.3668-1.2602c-3.375-3.422-5.0625-7.5234-5.0625-12.3047 0-4.875 1.6875-9 5.0625-12.375s7.4531-5.0625 12.2344-5.0625c4.7812 0 8.8593 1.6875 12.2343 5.0625s5.0625 7.5 5.0625 12.375c0 4.7813-1.6874 8.8828-5.0625 12.3047-.993 1.0068-2.0468 1.8654-3.1615 2.576z" fill="#fa0171"/></g></svg>