<svg height="430" width="214" xmlns="http://www.w3.org/2000/svg" xmlns:xlink="http://www.w3.org/1999/xlink"><defs><path id="b" d="m28 203 11 22 2 26 10 24 3 42 17 25 5 28 21 23 5 18 12 19 10-11 19-11 6-25 9-16 4-26 5-7 7-17 9-60 13-36 13-15 5-28h-214zm61 148-17-53-16-41 26 10 4 43 21 10 2 63zm12-134 8 49 5 38-25-18-3-40-19-16-17-41z"/><path id="d" d="m207 103h-12l-4-18h-7l-10-10-19-10-2-3-10-23-8-3-4-12-23-24-13 13-10 9v8l-18 15v14l-20 26-6 12-9 5-2 16-30 23h214zm-130-50 15-25 15-15 2 19-8 20-2 19-19 8-10-7zm32 54-15 11-14 15h-20l17-29 5-18 20-10 11 9-6 8z"/></defs><g fill="none" fill-rule="evenodd"><use fill="url(#a)" xlink:href="#b"/><use fill="#00152b" xlink:href="#b"/><path d="m13 160h189" stroke="#d9c539" stroke-linecap="square" stroke-width="4"/><use fill="url(#c)" xlink:href="#d"/><use fill="#ebf802" xlink:href="#d"/><use fill="#eaeaea" xlink:href="#d"/><use fill="#d1d1d1" xlink:href="#d"/></g></svg>