<svg width="863" height="531" xmlns="http://www.w3.org/2000/svg"><g fill="none" fill-rule="evenodd"><path d="M0 0h862v459H0z"/><path fill="#FFF" d="M0 1h863v530H0z"/><path d="M118.737 416.334v-3.194h18.028v3.194h-7.327V446h-3.351v-29.666h-7.35zm22.227-4.021h3.128v13.738c1.266-1.668 2.658-2.915 4.177-3.741 1.52-.827 3.165-1.24 4.937-1.24 1.817 0 3.43.461 4.836 1.385a8.26 8.26 0 0 1 3.117 3.72c.67 1.556 1.005 3.994 1.005 7.315V446h-3.128v-11.594c0-2.8-.111-4.669-.335-5.607-.387-1.608-1.09-2.818-2.11-3.63-1.02-.812-2.357-1.217-4.01-1.217-1.892 0-3.586.625-5.083 1.876-1.496 1.251-2.483 2.8-2.96 4.646-.297 1.192-.446 3.396-.446 6.613V446h-3.128v-33.687zm48.364 25.623l2.636 1.385c-.864 1.697-1.862 3.068-2.993 4.11a11.887 11.887 0 0 1-3.82 2.38c-1.415.543-3.016.814-4.803.814-3.962 0-7.06-1.299-9.293-3.898-2.234-2.598-3.351-5.536-3.351-8.812 0-3.083.946-5.83 2.837-8.243 2.398-3.068 5.607-4.602 9.628-4.602 4.14 0 7.446 1.571 9.919 4.713 1.757 2.22 2.65 4.99 2.68 8.31h-21.847c.06 2.83.96 5.15 2.703 6.959 1.742 1.81 3.894 2.714 6.456 2.714 1.236 0 2.438-.216 3.607-.648 1.17-.432 2.164-1.005 2.983-1.72.819-.715 1.705-1.869 2.658-3.462zm0-6.546c-.417-1.668-1.024-3-1.82-3.998-.797-.998-1.851-1.802-3.162-2.413a9.671 9.671 0 0 0-4.132-.916c-2.383 0-4.43.767-6.143 2.301-1.251 1.117-2.197 2.792-2.837 5.026h18.094zm20.596-18.25h3.374l6.679 23.679 9.427-23.68h.67l9.315 23.68 6.814-23.68h3.35L240.128 446h-.626l-9.74-24.863-9.94 24.863h-.626l-9.27-32.86zm54.664 7.93c3.738 0 6.835 1.355 9.293 4.065 2.234 2.473 3.35 5.399 3.35 8.78 0 3.395-1.18 6.363-3.54 8.902-2.36 2.539-5.395 3.808-9.103 3.808-3.724 0-6.765-1.27-9.126-3.808-2.36-2.54-3.54-5.507-3.54-8.902 0-3.366 1.116-6.285 3.35-8.757 2.458-2.726 5.563-4.088 9.316-4.088zm0 3.06c-2.592 0-4.818.96-6.68 2.882-1.861 1.921-2.792 4.244-2.792 6.97 0 1.757.424 3.395 1.273 4.914.85 1.52 1.996 2.692 3.44 3.519 1.445.826 3.031 1.24 4.759 1.24 1.727 0 3.313-.414 4.758-1.24 1.444-.827 2.591-2 3.44-3.519a9.911 9.911 0 0 0 1.273-4.914c0-2.726-.934-5.049-2.803-6.97-1.87-1.921-4.092-2.882-6.668-2.882zm17.268-2.435h3.194v3.552c.953-1.4 1.958-2.446 3.016-3.138 1.057-.693 2.16-1.04 3.306-1.04.864 0 1.787.276 2.77.827l-1.63 2.636c-.656-.283-1.207-.424-1.654-.424-1.042 0-2.048.428-3.016 1.284-.968.857-1.705 2.186-2.211 3.988-.387 1.385-.581 4.185-.581 8.4V446h-3.194v-24.305zm14.475-9.382h3.128V446h-3.128v-33.687zm33.888 0V446h-3.083v-4.177c-1.31 1.593-2.78 2.792-4.411 3.596-1.631.804-3.415 1.206-5.35 1.206-3.44 0-6.378-1.247-8.813-3.741-2.435-2.495-3.653-5.53-3.653-9.103 0-3.5 1.229-6.494 3.686-8.98 2.458-2.488 5.414-3.731 8.869-3.731 1.995 0 3.801.424 5.417 1.273 1.616.849 3.034 2.122 4.255 3.82v-13.85h3.083zm-12.51 11.773c-1.742 0-3.35.428-4.825 1.284-1.474.856-2.647 2.059-3.518 3.608s-1.307 3.187-1.307 4.914c0 1.713.44 3.351 1.318 4.915.879 1.564 2.059 2.781 3.54 3.652a9.252 9.252 0 0 0 4.77 1.307c1.713 0 3.336-.432 4.87-1.296 1.534-.863 2.714-2.032 3.54-3.507.827-1.474 1.24-3.135 1.24-4.981 0-2.815-.927-5.168-2.78-7.06-1.855-1.89-4.137-2.836-6.848-2.836zm23.858.491l-1.72-.983c.566-1.132.946-2.018 1.14-2.658.193-.64.335-1.467.424-2.48h-1.966v-6.143h4.044v3.842c0 1.921-.13 3.43-.391 4.524-.261 1.095-.771 2.394-1.53 3.898zm24.015-.223l-2.01 2.077c-1.669-1.623-3.3-2.435-4.893-2.435-1.013 0-1.88.335-2.603 1.005-.722.67-1.083 1.452-1.083 2.346 0 .79.298 1.541.894 2.256.595.73 1.846 1.586 3.753 2.57 2.323 1.206 3.901 2.367 4.735 3.484a6.357 6.357 0 0 1 1.229 3.82c0 1.996-.7 3.686-2.1 5.071-1.4 1.385-3.15 2.077-5.25 2.077-1.4 0-2.736-.305-4.01-.915a8.71 8.71 0 0 1-3.16-2.525l1.966-2.234c1.593 1.802 3.283 2.703 5.07 2.703 1.251 0 2.316-.402 3.195-1.206.879-.804 1.318-1.75 1.318-2.837 0-.893-.29-1.69-.871-2.39-.581-.685-1.892-1.549-3.932-2.591-2.19-1.132-3.678-2.25-4.468-3.351-.789-1.102-1.184-2.36-1.184-3.776 0-1.846.63-3.38 1.888-4.601 1.258-1.222 2.848-1.832 4.77-1.832 2.233 0 4.482 1.094 6.746 3.284zM384.302 446v-32.86h6.813c4.915 0 8.481.394 10.7 1.183 3.187 1.117 5.678 3.053 7.473 5.809 1.794 2.755 2.691 6.039 2.691 9.851 0 3.291-.71 6.188-2.133 8.69-1.422 2.502-3.269 4.348-5.54 5.54-2.271 1.191-5.454 1.787-9.55 1.787h-10.454zm3.15-3.105h3.797c4.542 0 7.692-.283 9.45-.849 2.472-.804 4.415-2.252 5.83-4.345 1.415-2.092 2.122-4.65 2.122-7.673 0-3.172-.767-5.883-2.3-8.132-1.535-2.248-3.672-3.79-6.412-4.624-2.055-.625-5.443-.938-10.164-.938h-2.324v26.56zm54.596-21.2V446h-3.083v-4.177c-1.31 1.593-2.781 2.792-4.412 3.596-1.63.804-3.414 1.206-5.35 1.206-3.44 0-6.378-1.247-8.813-3.741-2.435-2.495-3.652-5.53-3.652-9.103 0-3.5 1.228-6.494 3.686-8.98 2.457-2.488 5.413-3.731 8.868-3.731 1.996 0 3.801.424 5.417 1.273 1.616.849 3.035 2.122 4.256 3.82v-4.468h3.083zm-12.51 2.39c-1.743 0-3.351.429-4.825 1.285-1.475.856-2.648 2.059-3.519 3.608-.87 1.549-1.307 3.187-1.307 4.914 0 1.713.44 3.351 1.318 4.915.88 1.564 2.06 2.781 3.541 3.652a9.252 9.252 0 0 0 4.77 1.307c1.712 0 3.335-.432 4.87-1.296 1.533-.863 2.714-2.032 3.54-3.507.827-1.474 1.24-3.135 1.24-4.981 0-2.815-.927-5.168-2.781-7.06-1.854-1.89-4.137-2.836-6.847-2.836zm22.272-11.415h3.15v9.025h4.959v2.681h-4.96V446h-3.15v-21.624h-4.266v-2.68h4.267v-9.026zm36.993 9.025V446h-3.083v-4.177c-1.31 1.593-2.781 2.792-4.412 3.596-1.63.804-3.414 1.206-5.35 1.206-3.44 0-6.378-1.247-8.813-3.741-2.435-2.495-3.652-5.53-3.652-9.103 0-3.5 1.229-6.494 3.686-8.98 2.457-2.488 5.413-3.731 8.868-3.731 1.996 0 3.802.424 5.418 1.273 1.615.849 3.034 2.122 4.255 3.82v-4.468h3.083zm-12.51 2.39c-1.742 0-3.35.429-4.825 1.285-1.474.856-2.647 2.059-3.518 3.608-.872 1.549-1.307 3.187-1.307 4.914 0 1.713.439 3.351 1.318 4.915.878 1.564 2.059 2.781 3.54 3.652a9.252 9.252 0 0 0 4.77 1.307c1.712 0 3.336-.432 4.87-1.296 1.534-.863 2.714-2.032 3.54-3.507.827-1.474 1.24-3.135 1.24-4.981 0-2.815-.927-5.168-2.781-7.06-1.854-1.89-4.136-2.836-6.847-2.836zm32.727-10.945h16.463v3.239h-13.202v10.276h13.202v3.239h-13.202V446h-3.261v-32.86zm42.13 24.796l2.637 1.385c-.864 1.697-1.862 3.068-2.994 4.11a11.887 11.887 0 0 1-3.82 2.38c-1.415.543-3.015.814-4.803.814-3.961 0-7.059-1.299-9.293-3.898-2.233-2.598-3.35-5.536-3.35-8.812 0-3.083.945-5.83 2.837-8.243 2.397-3.068 5.607-4.602 9.628-4.602 4.14 0 7.446 1.571 9.918 4.713 1.757 2.22 2.651 4.99 2.68 8.31h-21.847c.06 2.83.961 5.15 2.703 6.959 1.743 1.81 3.895 2.714 6.456 2.714 1.236 0 2.439-.216 3.608-.648 1.17-.432 2.163-1.005 2.982-1.72.82-.715 1.706-1.869 2.659-3.462zm0-6.546c-.416-1.668-1.023-3-1.82-3.998-.797-.998-1.85-1.802-3.16-2.413a9.671 9.671 0 0 0-4.134-.916c-2.382 0-4.43.767-6.143 2.301-1.25 1.117-2.196 2.792-2.837 5.026h18.095zm33.531-19.077V446H581.6v-4.177c-1.311 1.593-2.782 2.792-4.412 3.596-1.631.804-3.415 1.206-5.35 1.206-3.44 0-6.378-1.247-8.813-3.741-2.435-2.495-3.653-5.53-3.653-9.103 0-3.5 1.229-6.494 3.686-8.98 2.458-2.488 5.414-3.731 8.869-3.731 1.995 0 3.801.424 5.417 1.273 1.616.849 3.034 2.122 4.256 3.82v-13.85h3.082zm-12.51 11.773c-1.742 0-3.35.428-4.825 1.284-1.474.856-2.647 2.059-3.518 3.608s-1.307 3.187-1.307 4.914c0 1.713.44 3.351 1.318 4.915.879 1.564 2.059 2.781 3.54 3.652a9.252 9.252 0 0 0 4.77 1.307c1.713 0 3.336-.432 4.87-1.296 1.534-.863 2.714-2.032 3.54-3.507.827-1.474 1.24-3.135 1.24-4.981 0-2.815-.926-5.168-2.78-7.06-1.855-1.89-4.137-2.836-6.847-2.836zm40.054 13.85l2.636 1.385c-.864 1.697-1.861 3.068-2.993 4.11a11.887 11.887 0 0 1-3.82 2.38c-1.415.543-3.016.814-4.803.814-3.962 0-7.06-1.299-9.293-3.898-2.234-2.598-3.35-5.536-3.35-8.812 0-3.083.945-5.83 2.836-8.243 2.398-3.068 5.607-4.602 9.628-4.602 4.14 0 7.446 1.571 9.919 4.713 1.757 2.22 2.65 4.99 2.68 8.31h-21.847c.06 2.83.96 5.15 2.703 6.959 1.742 1.81 3.894 2.714 6.456 2.714 1.236 0 2.438-.216 3.608-.648 1.169-.432 2.163-1.005 2.982-1.72.819-.715 1.705-1.869 2.658-3.462zm0-6.546c-.417-1.668-1.024-3-1.82-3.998-.797-.998-1.85-1.802-3.161-2.413a9.671 9.671 0 0 0-4.133-.916c-2.383 0-4.43.767-6.143 2.301-1.251 1.117-2.197 2.792-2.837 5.026h18.094zm8.087-9.695h3.194v3.552c.953-1.4 1.959-2.446 3.016-3.138 1.057-.693 2.16-1.04 3.306-1.04.864 0 1.787.276 2.77.827l-1.63 2.636c-.656-.283-1.207-.424-1.654-.424-1.042 0-2.047.428-3.015 1.284-.968.857-1.706 2.186-2.212 3.988-.387 1.385-.58 4.185-.58 8.4V446h-3.195v-24.305zm39.16 0V446h-3.083v-4.177c-1.31 1.593-2.781 2.792-4.412 3.596-1.63.804-3.414 1.206-5.35 1.206-3.44 0-6.378-1.247-8.813-3.741-2.435-2.495-3.652-5.53-3.652-9.103 0-3.5 1.228-6.494 3.686-8.98 2.457-2.488 5.413-3.731 8.868-3.731 1.996 0 3.802.424 5.417 1.273 1.616.849 3.035 2.122 4.256 3.82v-4.468h3.083zm-12.51 2.39c-1.742 0-3.35.429-4.825 1.285-1.475.856-2.647 2.059-3.519 3.608-.87 1.549-1.306 3.187-1.306 4.914 0 1.713.439 3.351 1.318 4.915.878 1.564 2.059 2.781 3.54 3.652a9.252 9.252 0 0 0 4.77 1.307c1.712 0 3.336-.432 4.87-1.296 1.534-.863 2.714-2.032 3.54-3.507.827-1.474 1.24-3.135 1.24-4.981 0-2.815-.927-5.168-2.781-7.06-1.854-1.89-4.137-2.836-6.847-2.836zm22.272-11.415h3.15v9.025h4.959v2.681h-4.96V446h-3.15v-21.624h-4.266v-2.68h4.267v-9.026zm13.872-.983c.715 0 1.326.254 1.832.76s.76 1.117.76 1.832c0 .7-.254 1.303-.76 1.81a2.496 2.496 0 0 1-1.832.759c-.7 0-1.303-.253-1.81-.76-.505-.506-.759-1.11-.759-1.81 0-.714.254-1.325.76-1.831s1.11-.76 1.81-.76zm-1.563 10.008h3.15V446h-3.15v-24.305zm21.132-.625c3.738 0 6.836 1.355 9.293 4.065 2.234 2.473 3.351 5.399 3.351 8.78 0 3.395-1.18 6.363-3.54 8.902-2.361 2.539-5.396 3.808-9.104 3.808-3.723 0-6.765-1.27-9.125-3.808-2.36-2.54-3.541-5.507-3.541-8.902 0-3.366 1.117-6.285 3.35-8.757 2.458-2.726 5.563-4.088 9.316-4.088zm0 3.06c-2.591 0-4.818.96-6.68 2.882-1.86 1.921-2.792 4.244-2.792 6.97 0 1.757.425 3.395 1.274 4.914.849 1.52 1.995 2.692 3.44 3.519 1.445.826 3.03 1.24 4.758 1.24 1.728 0 3.314-.414 4.758-1.24 1.445-.827 2.592-2 3.44-3.519a9.911 9.911 0 0 0 1.274-4.914c0-2.726-.935-5.049-2.804-6.97-1.869-1.921-4.091-2.882-6.668-2.882zm18.452-2.435h3.128v4.356c1.25-1.668 2.635-2.915 4.155-3.741 1.519-.827 3.172-1.24 4.959-1.24 1.817 0 3.429.461 4.836 1.385a8.25 8.25 0 0 1 3.116 3.73c.67 1.564 1.006 4 1.006 7.305V446h-3.105v-11.594c0-2.8-.12-4.669-.358-5.607-.372-1.608-1.072-2.818-2.1-3.63-1.027-.812-2.368-1.217-4.02-1.217-1.892 0-3.586.625-5.083 1.876-1.497 1.251-2.483 2.8-2.96 4.646-.298 1.207-.446 3.41-.446 6.613V446h-3.128v-24.305z" fill="#00152B"/><path d="M121.156 294.426l17.587-10.54c12.381 22.767 26.685 34.15 42.912 34.15 6.942 0 13.46-1.616 19.557-4.848 6.097-3.232 10.74-7.566 13.93-13 3.188-5.434 4.783-11.196 4.783-17.286 0-6.934-2.345-13.726-7.035-20.379-6.472-9.182-18.29-20.237-35.455-33.167-17.26-13.023-28-22.44-32.22-28.248-7.316-9.745-10.974-20.285-10.974-31.622 0-8.994 2.157-17.192 6.472-24.594 4.314-7.402 10.388-13.234 18.22-17.497 7.832-4.264 16.344-6.395 25.536-6.395 9.755 0 18.877 2.413 27.366 7.238 8.489 4.825 17.47 13.702 26.943 26.632l-16.883 12.79c-7.786-10.307-14.422-17.1-19.909-20.38-5.487-3.278-11.467-4.918-17.939-4.918-8.348 0-15.172 2.53-20.471 7.59-5.3 5.059-7.95 11.29-7.95 18.69 0 4.498.938 8.855 2.814 13.071 1.876 4.216 5.3 8.807 10.271 13.773 2.72 2.623 11.631 9.51 26.733 20.66 17.915 13.21 30.203 24.968 36.862 35.275 6.66 10.306 9.99 20.66 9.99 31.059 0 14.991-5.698 28.014-17.095 39.07-11.396 11.056-25.255 16.584-41.576 16.584-12.569 0-23.965-3.35-34.19-10.049-10.223-6.699-19.65-17.919-28.28-33.66zm284.536-12.227l16.602 8.713c-5.44 10.681-11.725 19.301-18.853 25.86-7.13 6.558-15.149 11.547-24.06 14.967-8.91 3.42-18.994 5.13-30.25 5.13-24.95 0-44.46-8.175-58.53-24.524-14.07-16.35-21.104-34.83-21.104-55.443 0-19.395 5.956-36.68 17.869-51.86 15.101-19.3 35.314-28.95 60.64-28.95 26.076 0 46.899 9.884 62.47 29.653 11.068 13.96 16.695 31.387 16.883 52.281H289.758c.375 17.802 6.05 32.394 17.024 43.778s24.528 17.076 40.661 17.076c7.786 0 15.36-1.359 22.723-4.076 7.363-2.717 13.624-6.324 18.783-10.821 5.159-4.498 10.74-11.759 16.743-21.784zm0-41.178c-2.627-10.494-6.449-18.88-11.467-25.157-5.018-6.277-11.654-11.337-19.909-15.178-8.254-3.841-16.93-5.762-26.029-5.762-15.007 0-27.904 4.825-38.691 14.475-7.88 7.027-13.835 17.568-17.869 31.622h113.965zm46.195 91.913L481.293 126.2h3.377l84.136 169.631 18.383-37.437 20.994.085-36.844 74.455h-5.206l-74.147-148.972-20.12 148.972h-19.979zM721.15 126.2h20.682v206.734H721.15V126.2z" fill="#2E3536"/><path d="M680.837 302.808c1.562.808 3.013 1.887 4.351 3.236 3.336 3.363 5.004 7.474 5.004 12.331 0 4.764-1.668 8.851-5.004 12.261-3.335 3.41-7.366 5.114-12.092 5.114-4.726 0-8.756-1.704-12.092-5.114-3.336-3.41-5.004-7.497-5.004-12.26 0-4.858 1.668-8.969 5.004-12.332l.064-.064L644.5 185.086 626.35 221.77c.562 1.743.843 3.612.843 5.606 0 4.764-1.668 8.851-5.004 12.261-3.335 3.41-7.366 5.114-12.092 5.114-4.726 0-8.756-1.704-12.092-5.114-3.336-3.41-5.004-7.497-5.004-12.26 0-4.858 1.668-8.969 5.004-12.332 3.336-3.363 7.366-5.044 12.092-5.044.285 0 .567.006.846.018l28.487-58.016c-.467-.39-.923-.81-1.366-1.26-3.376-3.422-5.063-7.523-5.063-12.304 0-4.876 1.687-9 5.063-12.375 3.375-3.376 7.453-5.063 12.234-5.063s8.86 1.687 12.234 5.063c3.375 3.375 5.063 7.5 5.063 12.374 0 4.782-1.688 8.883-5.063 12.305a18.138 18.138 0 0 1-3.161 2.576l21.467 149.49z" fill="#FA0171"/></g></svg>