<svg width="862" height="459" xmlns="http://www.w3.org/2000/svg"><g fill="none" fill-rule="evenodd"><path fill="#FFF" d="M0 0h862v459H0z"/><path d="M121.156 294.426l17.587-10.54c12.381 22.767 26.685 34.15 42.912 34.15 6.942 0 13.46-1.616 19.557-4.848 6.097-3.232 10.74-7.566 13.93-13 3.188-5.434 4.783-11.196 4.783-17.286 0-6.934-2.345-13.726-7.035-20.379-6.472-9.182-18.29-20.237-35.455-33.167-17.26-13.023-28-22.44-32.22-28.248-7.316-9.745-10.974-20.285-10.974-31.622 0-8.994 2.157-17.192 6.472-24.594 4.314-7.402 10.388-13.234 18.22-17.497 7.832-4.264 16.344-6.395 25.536-6.395 9.755 0 18.877 2.413 27.366 7.238 8.489 4.825 17.47 13.702 26.943 26.632l-16.883 12.79c-7.786-10.307-14.422-17.1-19.909-20.38-5.487-3.278-11.467-4.918-17.939-4.918-8.348 0-15.172 2.53-20.471 7.59-5.3 5.059-7.95 11.29-7.95 18.69 0 4.498.938 8.855 2.814 13.071 1.876 4.216 5.3 8.807 10.271 13.773 2.72 2.623 11.631 9.51 26.733 20.66 17.915 13.21 30.203 24.968 36.862 35.275 6.66 10.306 9.99 20.66 9.99 31.059 0 14.991-5.698 28.014-17.095 39.07-11.396 11.056-25.255 16.584-41.576 16.584-12.569 0-23.965-3.35-34.19-10.049-10.223-6.699-19.65-17.919-28.28-33.66zm284.536-12.227l16.602 8.713c-5.44 10.681-11.725 19.301-18.853 25.86-7.13 6.558-15.149 11.547-24.06 14.967-8.91 3.42-18.994 5.13-30.25 5.13-24.95 0-44.46-8.175-58.53-24.524-14.07-16.35-21.104-34.83-21.104-55.443 0-19.395 5.956-36.68 17.869-51.86 15.101-19.3 35.314-28.95 60.64-28.95 26.076 0 46.899 9.884 62.47 29.653 11.068 13.96 16.695 31.387 16.883 52.281H289.758c.375 17.802 6.05 32.394 17.024 43.778s24.528 17.076 40.661 17.076c7.786 0 15.36-1.359 22.723-4.076 7.363-2.717 13.624-6.324 18.783-10.821 5.159-4.498 10.74-11.759 16.743-21.784zm0-41.178c-2.627-10.494-6.449-18.88-11.467-25.157-5.018-6.277-11.654-11.337-19.909-15.178-8.254-3.841-16.93-5.762-26.029-5.762-15.007 0-27.904 4.825-38.691 14.475-7.88 7.027-13.835 17.568-17.869 31.622h113.965zm46.195 91.913L481.293 126.2h3.377l84.136 169.631 18.383-37.437 20.994.085-36.844 74.455h-5.206l-74.147-148.972-20.12 148.972h-19.979zM721.15 126.2h20.682v206.734H721.15V126.2z" fill="#00374F"/><path d="M680.663 303.02c1.56.808 3.007 1.888 4.343 3.24 3.33 3.366 4.994 7.481 4.994 12.345 0 4.77-1.665 8.86-4.994 12.275-3.33 3.413-7.352 5.12-12.068 5.12-4.717 0-8.74-1.707-12.069-5.12-3.329-3.414-4.994-7.506-4.994-12.275 0-4.864 1.665-8.979 4.994-12.346l.064-.064L644.4 185.161l-18.116 36.725c.56 1.745.842 3.616.842 5.613 0 4.77-1.665 8.861-4.994 12.275-3.33 3.413-7.352 5.12-12.069 5.12-4.716 0-8.739-1.707-12.068-5.12-3.33-3.414-4.994-7.505-4.994-12.275 0-4.863 1.665-8.978 4.994-12.345 3.33-3.367 7.352-5.05 12.068-5.05.284 0 .566.006.845.018l28.43-58.084a19.233 19.233 0 0 1-1.364-1.261c-3.368-3.426-5.052-7.532-5.052-12.32 0-4.88 1.684-9.01 5.052-12.389 3.369-3.379 7.439-5.068 12.21-5.068 4.772 0 8.842 1.69 12.21 5.068 3.37 3.38 5.053 7.51 5.053 12.39 0 4.787-1.684 8.893-5.052 12.319a18.113 18.113 0 0 1-3.156 2.579l21.425 149.663z" fill="#38D611"/></g></svg>