<svg xmlns="http://www.w3.org/2000/svg" width="169" height="169"><g fill="none" fill-rule="evenodd"><path stroke="#FFF" stroke-width="2" d="M88.358 80.484v-41.87a4 4 0 0 0-4-4H64.232a4 4 0 0 0-4 4v61.89a4 4 0 0 0 4 4H76.17m-55.1 2.037V66.165m127.408 39.892v-23.21"/><path fill="#FFF" fill-rule="nonzero" d="M21.07 53.868c4.114 0 7.462 3.348 7.462 7.462s-3.348 7.462-7.462 7.462c-4.113 0-7.462-3.348-7.462-7.462s3.349-7.462 7.462-7.462m0-1a8.462 8.462 0 1 0 0 16.924 8.462 8.462 0 0 0 0-16.924m127.408 17.924c4.114 0 7.462 3.348 7.462 7.462s-3.348 7.462-7.462 7.462c-4.115 0-7.463-3.348-7.463-7.462s3.347-7.462 7.463-7.462m0-1a8.463 8.463 0 1 0 0 16.926 8.463 8.463 0 0 0 0-16.926"/><path stroke="#FFF" stroke-width="2" d="M76.171 104.648c0-16.557 13.421-29.977 29.977-29.977 16.555 0 29.975 13.42 29.975 29.977m22.877.77v-.697H10.069v.537c20.585 11.48 46.479 18.322 74.608 18.322 28 0 53.785-6.779 74.323-18.162z"/><path fill="#FFF" fill-rule="nonzero" d="M81.454 105.18c0-13.639 11.125-24.696 24.85-24.696 13.723 0 24.848 11.057 24.848 24.696M25.906 61.33a4.835 4.835 0 1 1-9.671 0 4.835 4.835 0 1 1 9.671 0m127.406 16.923a4.836 4.836 0 1 1-9.671 0 4.836 4.836 0 0 1 9.671 0"/><path stroke="#FFF" stroke-width="2" d="M116.942 76.226l-.03-31.812"/><path fill="#FFF" fill-rule="nonzero" d="M116.942 34.142c4.114 0 7.461 3.348 7.461 7.462s-3.347 7.462-7.461 7.462c-4.114 0-7.463-3.348-7.463-7.462s3.349-7.462 7.463-7.462m0-1a8.462 8.462 0 1 0-.002 16.924 8.462 8.462 0 0 0 .002-16.924"/><path fill="#FFF" fill-rule="nonzero" d="M121.777 41.604a4.836 4.836 0 1 1-9.672 0 4.836 4.836 0 0 1 9.672 0"/><path stroke="#FFF" stroke-width="2" d="M62.639 123.68v5.967c-.07 3.061-2.557 6.818-2.557 6.818s-2.485-3.758-2.556-6.818v-5.967m53.695.425v5.967c-.07 3.061-2.557 6.818-2.557 6.818s-2.485-3.758-2.557-6.818v-5.967M55.244 121.01v2.67h9.676v-1.334M113.501 121.01v2.67h-9.675v-1.334M56.232 76.376H36.105a4 4 0 0 0-4 4v20.127a4 4 0 0 0 4 4h20.127a4 4 0 0 0 4-4V80.376a4 4 0 0 0-4-4z"/></g></svg>