<svg xmlns="http://www.w3.org/2000/svg" width="200" height="200"><g fill="#FFF"><path d="M55.714 165.609h18.675V38.666l-5.394-3.583h-7.913l-5.368 3.578v126.948zm21.006 4.662H53.383a2.33 2.33 0 0 1-2.33-2.33V37.414c0-.778.389-1.506 1.037-1.939l6.992-4.661a2.335 2.335 0 0 1 1.294-.392h9.323c.459 0 .907.135 1.29.389l7.02 4.662a2.33 2.33 0 0 1 1.042 1.941v130.528a2.33 2.33 0 0 1-2.331 2.329z"/><path d="M90.677 170.271H37.068a2.33 2.33 0 1 1 0-4.662h53.609a2.331 2.331 0 0 1 0 4.662M46.39 65.383h4.662V46.738H46.39v18.645zm6.993 4.662H44.06a2.33 2.33 0 0 1-2.331-2.33V44.406a2.331 2.331 0 0 1 2.331-2.33h9.323a2.332 2.332 0 0 1 2.331 2.33v23.309a2.331 2.331 0 0 1-2.331 2.33z"/><path d="M53.412 170.271a2.329 2.329 0 0 1-1.559-4.062l21.267-19.141-21.164-16.932a2.33 2.33 0 0 1 0-3.64l21.033-16.828-21.033-16.824a2.33 2.33 0 0 1 0-3.64l23.309-18.646a2.326 2.326 0 0 1 3.274.361 2.332 2.332 0 0 1-.363 3.279L57.141 91.024l21.035 16.826c.551.441.876 1.111.876 1.818 0 .711-.325 1.379-.876 1.822l-21.035 16.826 21.035 16.826a2.32 2.32 0 0 1 .874 1.754 2.32 2.32 0 0 1-.772 1.799L54.97 169.674c-.444.4-1.003.597-1.558.597"/><path d="M76.719 170.271a2.305 2.305 0 0 1-1.557-.598l-23.308-20.979a2.314 2.314 0 0 1-.772-1.799 2.32 2.32 0 0 1 .874-1.754l21.034-16.826-21.034-16.826a2.336 2.336 0 0 1-.877-1.822c0-.707.325-1.377.877-1.818L72.99 91.023 51.956 74.197a2.332 2.332 0 0 1 2.911-3.64l23.309 18.646a2.33 2.33 0 0 1 0 3.64l-21.034 16.824 21.034 16.828a2.33 2.33 0 0 1 0 3.64l-21.164 16.932 21.267 19.141a2.329 2.329 0 0 1-1.56 4.063"/><path d="M53.385 74.707a2.328 2.328 0 0 1-1.911-.996 2.328 2.328 0 0 1 .573-3.244l23.309-16.314a2.328 2.328 0 1 1 2.672 3.816L54.719 74.285a2.317 2.317 0 0 1-1.334.422"/><path d="M76.689 74.707a2.31 2.31 0 0 1-1.333-.422L52.047 57.969a2.327 2.327 0 0 1-.573-3.244 2.326 2.326 0 0 1 3.244-.572l23.309 16.314a2.327 2.327 0 0 1 .573 3.244 2.325 2.325 0 0 1-1.911.996"/><path d="M53.385 58.391a2.326 2.326 0 0 1-1.911-.994 2.327 2.327 0 0 1 .573-3.244l23.309-16.317a2.33 2.33 0 1 1 2.672 3.818L54.719 57.969a2.317 2.317 0 0 1-1.334.422"/><path d="M76.689 58.391a2.31 2.31 0 0 1-1.333-.422L52.047 41.654a2.329 2.329 0 1 1 2.671-3.818l23.309 16.317a2.326 2.326 0 0 1 .573 3.244 2.323 2.323 0 0 1-1.911.994m74.592 11.654a2.326 2.326 0 0 1-1.912-.994l-16.316-23.309a2.33 2.33 0 1 1 3.818-2.672l16.316 23.309a2.327 2.327 0 0 1-.573 3.244 2.311 2.311 0 0 1-1.333.422"/><path d="M134.961 70.045c-.462 0-.928-.137-1.334-.422a2.327 2.327 0 0 1-.573-3.244L149.37 43.07a2.328 2.328 0 0 1 3.244-.572 2.326 2.326 0 0 1 .573 3.244l-16.315 23.309a2.327 2.327 0 0 1-1.911.994"/><path d="M79.05 65.385h80.112l-9.323-18.647H79.05v18.647zm83.884 4.662H76.72a2.332 2.332 0 0 1-2.33-2.332V44.408a2.331 2.331 0 0 1 2.33-2.331h74.56c.883 0 1.689.495 2.084 1.286l11.654 23.311a2.332 2.332 0 0 1-2.084 3.373z"/><path d="M134.992 70.047a2.32 2.32 0 0 1-1.82-.875l-16.826-21.033-16.83 21.033c-.883 1.105-2.753 1.105-3.638 0L77.231 45.863a2.33 2.33 0 1 1 3.639-2.912l16.828 21.034 16.827-21.034c.883-1.105 2.755-1.105 3.638 0L136.81 66.26a2.33 2.33 0 0 1-1.818 3.787"/><path d="M79.05 70.047a2.33 2.33 0 0 1-1.818-3.787l18.647-23.309c.883-1.105 2.755-1.105 3.638 0l16.827 21.034 16.828-21.034a2.33 2.33 0 1 1 3.638 2.912l-18.646 23.309c-.885 1.105-2.757 1.105-3.639 0l-16.83-21.033-16.826 21.033a2.32 2.32 0 0 1-1.819.875m55.913 20.976a2.332 2.332 0 0 1-2.331-2.332V67.712a2.332 2.332 0 0 1 4.662 0v20.979a2.332 2.332 0 0 1-2.331 2.332"/><path d="M132.632 100.346h4.662v-.398c0-2.756-.816-5.387-2.331-7.617a13.49 13.49 0 0 0-2.331 7.617v.398zm6.992 4.662h-9.323a2.33 2.33 0 0 1-2.33-2.33v-2.73c0-4.877 1.896-9.459 5.344-12.902a2.327 2.327 0 0 1 3.296 0 18.113 18.113 0 0 1 5.345 12.902v2.73a2.332 2.332 0 0 1-2.332 2.33z"/><path d="M134.963 112a2.33 2.33 0 0 1-2.331-2.33v-6.992a2.332 2.332 0 0 1 2.331-2.332 2.333 2.333 0 0 1 2.331 2.332v6.992a2.331 2.331 0 0 1-2.331 2.33"/><path d="M134.963 125.986c-5.143 0-9.323-4.182-9.323-9.324a2.33 2.33 0 0 1 4.661 0 4.667 4.667 0 0 0 4.662 4.662 4.667 4.667 0 0 0 4.661-4.662 4.665 4.665 0 0 0-4.661-4.662 2.33 2.33 0 1 1 0-4.66c5.142 0 9.323 4.182 9.323 9.322 0 5.143-4.182 9.324-9.323 9.324m-25.64 32.631h51.278v-9.322h-51.278v9.322zm53.61 4.662h-55.94a2.332 2.332 0 0 1-2.331-2.33v-13.986a2.33 2.33 0 0 1 2.331-2.33h55.94a2.331 2.331 0 0 1 2.331 2.33v13.986a2.333 2.333 0 0 1-2.331 2.33z"/><path d="M162.932 149.295a2.322 2.322 0 0 1-1.491-.541l-26.479-22.064-26.477 22.064a2.336 2.336 0 0 1-3.284-.299 2.331 2.331 0 0 1 .299-3.281l27.97-23.309a2.325 2.325 0 0 1 2.985 0l27.971 23.309a2.331 2.331 0 0 1-1.494 4.121"/></g></svg>