<svg xmlns="http://www.w3.org/2000/svg" width="169" height="169"><g fill="none" fill-rule="evenodd" transform="translate(1 2)"><path stroke="#FFF" stroke-width="2" d="M80.83 50.976H67.683a4 4 0 0 0-4 4v44.549a4 4 0 0 0 4 4H80.83a4 4 0 0 0 4-4V54.976a4 4 0 0 0-4-4zm-46.593 54.081V74.699m95.795 29.994V87.242"/><path fill="#10182A" fill-rule="nonzero" d="M34.237 76.926a5.869 5.869 0 0 1-5.862-5.862 5.87 5.87 0 0 1 5.862-5.863 5.87 5.87 0 0 1 5.862 5.863 5.868 5.868 0 0 1-5.862 5.862"/><path fill="#FFF" fill-rule="nonzero" d="M34.237 65.702a5.368 5.368 0 0 1 5.363 5.362 5.37 5.37 0 0 1-5.363 5.362 5.368 5.368 0 0 1-5.362-5.362 5.368 5.368 0 0 1 5.362-5.362m0-1a6.36 6.36 0 0 0-6.362 6.362 6.363 6.363 0 1 0 6.362-6.362"/><path fill="#10182A" fill-rule="nonzero" d="M130.032 89.65a5.868 5.868 0 0 1-5.862-5.861 5.87 5.87 0 0 1 5.862-5.864 5.87 5.87 0 0 1 5.862 5.864 5.868 5.868 0 0 1-5.862 5.861"/><path fill="#FFF" fill-rule="nonzero" d="M130.032 78.426a5.368 5.368 0 0 1 5.362 5.363 5.367 5.367 0 0 1-5.362 5.361 5.367 5.367 0 0 1-5.362-5.361 5.368 5.368 0 0 1 5.362-5.363m0-1a6.362 6.362 0 1 0 0 12.724 6.362 6.362 0 1 0 0-12.724"/><circle cx="83.228" cy="82.377" r="82.347" stroke="#FFF" stroke-width="3"/><path fill="#10182A" fill-rule="nonzero" d="M75.667 103.633c0-12.447 10.09-22.538 22.538-22.538 12.447 0 22.538 10.09 22.538 22.538"/><path stroke="#FFF" stroke-width="2" d="M75.667 103.633c0-12.447 10.09-22.538 22.538-22.538 12.447 0 22.538 10.09 22.538 22.538"/><path fill="#10182A" fill-rule="nonzero" d="M137.944 104.213v-.523H25.967v.404c15.477 8.631 34.945 13.773 56.096 13.773 21.052 0 40.439-5.096 55.881-13.654"/><path stroke="#FFF" stroke-width="2" d="M137.944 104.213v-.523H25.967v.404c15.477 8.631 34.945 13.773 56.096 13.773 21.052 0 40.439-5.096 55.881-13.654z"/><path fill="#FFF" fill-rule="nonzero" d="M79.639 104.033c0-10.254 8.365-18.568 18.684-18.568s18.684 8.314 18.684 18.568M37.873 71.064a3.635 3.635 0 1 1-7.27 0 3.635 3.635 0 0 1 7.27 0m95.795 12.725a3.635 3.635 0 1 1-7.271-.001 3.635 3.635 0 0 1 7.271.001"/><path stroke="#FFF" stroke-width="2" d="M106.321 82.264l-.023-23.918"/><path fill="#10182A" fill-rule="nonzero" d="M106.321 62.095a5.87 5.87 0 0 1-5.862-5.863 5.87 5.87 0 0 1 5.862-5.863 5.87 5.87 0 0 1 5.862 5.863 5.869 5.869 0 0 1-5.862 5.863"/><path fill="#FFF" fill-rule="nonzero" d="M106.321 50.87a5.368 5.368 0 0 1 5.362 5.362 5.368 5.368 0 0 1-5.362 5.362 5.368 5.368 0 0 1-5.362-5.362 5.368 5.368 0 0 1 5.362-5.362m0-1a6.362 6.362 0 1 0 0 12.724 6.362 6.362 0 0 0 0-12.724"/><path fill="#FFF" fill-rule="nonzero" d="M109.957 56.232a3.635 3.635 0 1 1-7.271.001 3.635 3.635 0 0 1 7.271-.001"/><path stroke="#FFF" stroke-width="2" d="M65.492 117.943v4.486c-.054 2.301-1.923 5.127-1.923 5.127s-1.868-2.826-1.922-5.127v-4.486m40.373.321v4.486c-.054 2.301-1.922 5.127-1.922 5.127s-1.869-2.826-1.923-5.127v-4.486"/><path stroke="#FFF" stroke-width="2" d="M59.933 115.936v2.007h7.274v-1.004M103.734 115.936v2.007H96.46v-1.004M59.683 82.377H46.536a4 4 0 0 0-4 4v13.146a4 4 0 0 0 4 4h13.147a4 4 0 0 0 4-4V86.377a4 4 0 0 0-4-4z"/></g></svg>