<svg xmlns="http://www.w3.org/2000/svg" width="200" height="200"><g fill="none" fill-rule="evenodd" stroke="#FFF" stroke-linecap="round" stroke-linejoin="round" stroke-width="4"><path d="M60.317 27.993v25.013m87.547 87.547h25.014M50.312 163.064h2.501m10.006 0h2.501m10.006 0h2.501m10.005 0h2.502m10.005 0h2.502m10.005 0h2.501m10.006 0h2.501m10.005 0h2.501m10.005 0h2.502M162.872 173.07v-10.006h10.006M152.867 37.999h-2.502m-10.005 0h-2.501m-10.005 0h-2.501m-10.006 0h-2.501m-10.005 0h-2.502m-10.005 0h-2.502m-10.005 0h-2.501m-10.006 0h-5.003m-10.005 0h-2.5M162.872 27.993v10.006h10.006M37.806 27.993v10.006H27.801M37.806 50.504v2.502m0 10.006v2.502m0 10.004v2.502m0 10.005v2.5m0 10.006v2.502m0 10.004v2.502m0 10.006v2.5m0 10.006v2.502m0 10.006v2.5M162.872 48.003v2.501m0 10.006v2.502m0 10.006v2.5m0 10.005v2.502m0 10.004v2.502m0 10.006v2.5m0 10.006v2.502m0 10.006v5.002m0 10.006v2.5M27.801 163.064h10.005v10.006M55.315 63.012h80.042v85.045H55.315zM62.819 115.539h65.035"/><path d="M120.35 123.043l7.504-7.504-7.504-7.504M70.323 108.035l-7.504 7.504 7.504 7.504M107.843 70.516v70.037M100.339 133.049l7.504 7.504 7.504-7.504M115.347 78.02l-7.504-7.504-7.505 7.504"/></g></svg>