<svg xmlns="http://www.w3.org/2000/svg" width="168" height="169"><g fill="none" fill-rule="evenodd" transform="translate(1 2)"><path stroke="#FFF" stroke-width="2" d="M106.492 103.471l.161-44.484"/><path fill="#AF9F22" fill-rule="nonzero" d="M75.381 90.816c0-12.447 10.091-22.538 22.538-22.538 12.447 0 22.538 10.091 22.538 22.538H75.381z"/><path stroke="#FFF" stroke-width="2" d="M75.381 90.816c0-12.447 10.091-22.538 22.538-22.538 12.447 0 22.538 10.091 22.538 22.538H75.381z"/><path fill="#FFF" fill-rule="nonzero" d="M79.353 90.936c0-10.255 8.365-18.569 18.684-18.569s18.684 8.313 18.684 18.569"/><path stroke="#FFF" stroke-width="2" d="M81.826 39.441H68.678a4 4 0 0 0-4 4v10.585a4 4 0 0 0 4 4h13.148a4 4 0 0 0 4-4V43.441a4 4 0 0 0-4-4zm-47.875 65.616V74.699m95.795 29.994V87.242"/><path fill="#AF9F22" fill-rule="nonzero" d="M33.951 76.926a5.869 5.869 0 0 1-5.862-5.862 5.87 5.87 0 0 1 5.862-5.863 5.87 5.87 0 0 1 5.863 5.863 5.87 5.87 0 0 1-5.863 5.862"/><path fill="#FFF" fill-rule="nonzero" d="M33.952 65.702a5.367 5.367 0 0 1 5.361 5.362 5.368 5.368 0 0 1-5.361 5.362 5.37 5.37 0 0 1-5.363-5.362 5.368 5.368 0 0 1 5.363-5.362m0-1a6.362 6.362 0 1 0-.001 12.725 6.362 6.362 0 0 0 .001-12.725"/><path fill="#AF9F22" fill-rule="nonzero" d="M129.746 89.65a5.868 5.868 0 0 1-5.862-5.861 5.87 5.87 0 0 1 5.862-5.864 5.87 5.87 0 0 1 5.862 5.864 5.868 5.868 0 0 1-5.862 5.861"/><path fill="#FFF" fill-rule="nonzero" d="M129.746 78.426a5.368 5.368 0 0 1 5.362 5.363 5.367 5.367 0 0 1-5.362 5.361 5.367 5.367 0 0 1-5.362-5.361 5.37 5.37 0 0 1 5.362-5.363m0-1a6.362 6.362 0 1 0 0 12.725 6.362 6.362 0 0 0 0-12.725"/><circle cx="82.942" cy="82.377" r="82.347" stroke="#FFF" stroke-width="3"/><path fill="#AF9F22" fill-rule="nonzero" d="M137.658 104.213v-.523H25.68v.404c15.477 8.631 34.947 13.773 56.096 13.773 21.053 0 40.44-5.096 55.882-13.654"/><path stroke="#FFF" stroke-width="2" d="M137.658 104.213v-.523H25.68v.404c15.477 8.631 34.947 13.773 56.096 13.773 21.053 0 40.44-5.096 55.882-13.654z"/><path fill="#FFF" fill-rule="nonzero" d="M37.587 71.064a3.635 3.635 0 0 1-3.636 3.635 3.634 3.634 0 0 1-3.635-3.635 3.635 3.635 0 1 1 7.271 0m95.795 12.725a3.635 3.635 0 1 1-7.27 0 3.635 3.635 0 0 1 7.27 0"/><path fill="#AF9F22" fill-rule="nonzero" d="M106.676 61.454a5.869 5.869 0 0 1-5.862-5.862 5.87 5.87 0 0 1 5.862-5.863 5.87 5.87 0 0 1 5.863 5.863 5.87 5.87 0 0 1-5.863 5.862"/><path fill="#FFF" fill-rule="nonzero" d="M106.677 50.229a5.367 5.367 0 0 1 5.361 5.362 5.367 5.367 0 0 1-5.361 5.362 5.368 5.368 0 0 1-5.363-5.362 5.368 5.368 0 0 1 5.363-5.362m0-1a6.363 6.363 0 1 0 0 12.726 6.363 6.363 0 0 0 0-12.726"/><path fill="#FFF" fill-rule="nonzero" d="M110.312 55.591a3.635 3.635 0 1 1-7.271.001 3.635 3.635 0 0 1 7.271-.001"/><path stroke="#FFF" stroke-dasharray="5 5" stroke-width=".75" d="M137.413 103.846V32.712M25.907 103.846v-68.57"/><path stroke="#FFF" stroke-width="2" d="M60.678 82.377H47.531a4 4 0 0 0-4 4v13.146a4 4 0 0 0 4 4h13.147a4 4 0 0 0 4-4V86.377a4 4 0 0 0-4-4z"/><path stroke="#FFF" stroke-dasharray="5 5" stroke-width=".75" d="M65.319 39.121l9.903-9.613V8.681m9.322 30.44l-9.321-9.613m26.464 104.402v-17.301M64.518 133.27v-16.661m24.06-46.781l9.904-9.613V9.91m9.322 59.918l-9.322-9.613"/><path stroke="#FFF" stroke-width="2" d="M61.088 131.316v2.008h7.275v-1.004M104.891 131.316v2.008h-7.275v-1.004M66.648 133.324v4.484c-.055 2.303-1.923 5.127-1.923 5.127s-1.869-2.824-1.923-5.127v-4.484m40.374.321v4.484c-.054 2.303-1.923 5.127-1.923 5.127s-1.868-2.824-1.922-5.127v-4.484"/></g></svg>