<svg xmlns="http://www.w3.org/2000/svg" width="169" height="169"><g fill="none" fill-rule="evenodd" transform="translate(2 1)"><path stroke="#FFF" stroke-width="2" d="M82.625 104.324l5.761-15.736m-1.596 15.736l6.671-18.222m-2.505 18.222l6.763-18.222m-2.598 18.222l6.52-17.81m-2.355 17.81l5.761-15.736m-1.595 15.736l5.346-14.605m-1.181 14.605l4.292-11.726m-.127 11.726l2.674-7.303m16.255 8.307v-2.5"/><path stroke="#FFF" stroke-dasharray="4.15 4.15" stroke-width="2" d="M130.711 98.678v-6.225"/><path stroke="#FFF" stroke-width="2" d="M130.711 90.377v-2.5"/><path fill="#40d42c" fill-rule="nonzero" d="M137.073 84.424a6.363 6.363 0 1 1-12.726 0 6.363 6.363 0 0 1 12.726 0"/><path stroke="#FFF" stroke-dasharray="4.99 2.994" stroke-width="2" d="M130.71 90.787a6.363 6.363 0 1 0 0-12.726 6.363 6.363 0 0 0 0 12.726z"/><circle cx="82.625" cy="83.013" r="82.347" stroke="#FFF" stroke-width="3"/><path fill="#40d42c" fill-rule="nonzero" d="M43.534 104.324H25.363v.404c15.477 8.631 34.946 13.775 56.096 13.775 21.053 0 40.439-5.096 55.882-13.656v-.523h-15.305"/><path stroke="#FFF" stroke-width="2" d="M43.534 104.324h-2.5"/><path stroke="#FFF" stroke-dasharray="5.987 3.592" stroke-width="2" d="M37.442 104.324h-7.783"/><path stroke="#FFF" stroke-width="2" d="M27.863 104.324h-2.5v.404c.724.404 1.456.801 2.198 1.188"/><path stroke="#FFF" stroke-dasharray="4.848 2.909" stroke-width="2" d="M30.156 107.227c14.62 7.117 32.282 11.275 51.304 11.275 19.49 0 37.554-4.367 52.382-11.807"/><path stroke="#FFF" stroke-width="2" d="M135.14 106.029a85.361 85.361 0 0 0 2.201-1.182v-.523h-2.5"/><path stroke="#FFF" stroke-dasharray="4.684 2.81" stroke-width="2" d="M132.03 104.324h-6.089"/><path stroke="#FFF" stroke-width="2" d="M124.536 104.324h-2.5m-43 .346c0-10.256 8.364-18.568 18.683-18.568 10.319 0 18.684 8.312 18.684 18.568"/><path stroke="#FFF" stroke-dasharray="5 5" stroke-width=".75" d="M130.711 88.059a3.635 3.635 0 1 0 0-7.27 3.635 3.635 0 0 0 0 7.27z"/><path stroke="#FFF" stroke-width="2" d="M59.329 116.572v2.008h7.274v-1.004M103.132 116.572v2.008h-7.275v-1.004M64.89 118.58v2.5m-.753 4.906c-.539 1.252-1.171 2.205-1.171 2.205s-.631-.953-1.17-2.205m-.752-4.906v-2.5m40.373.32v2.5m-.752 4.907c-.539 1.252-1.171 2.205-1.171 2.205s-.633-.953-1.171-2.205m-.752-4.907v-2.5m9.43-35.359l-.003-2.5"/><path stroke="#FFF" stroke-dasharray="6.306 6.306" stroke-width="2" d="M106.991 74.735l-.009-9.46"/><path stroke="#FFF" stroke-width="2" d="M106.979 62.123l-.001-2.5"/><path fill="#40d42c" fill-rule="nonzero" d="M113.362 56.227a6.362 6.362 0 1 1-12.724 0 6.362 6.362 0 0 1 12.724 0"/><path stroke="#FFF" stroke-dasharray="4.99 2.994" stroke-width="2" d="M107 62.59a6.363 6.363 0 1 0 0-12.726 6.363 6.363 0 0 0 0 12.726z"/><path stroke="#FFF" stroke-dasharray="5 5" stroke-width=".75" d="M107 59.862a3.635 3.635 0 1 0 0-7.27 3.635 3.635 0 0 0 0 7.27z"/><path stroke="#FFF" stroke-width="2" d="M87.431 83.824v-2.5"/><path stroke="#FFF" stroke-dasharray="4.855 2.913" stroke-width="2" d="M87.431 78.411V54.176a2.562 2.562 0 0 0-2.563-2.563H68.847a2.562 2.562 0 0 0-2.562 2.563v43.463"/><path stroke="#FFF" stroke-width="2" d="M66.284 99.098v2.5m-4.001-18.476H49.136a4 4 0 0 0-4 4v13.146a4 4 0 0 0 4 4h13.147a4 4 0 0 0 4-4V87.122a4 4 0 0 0-4-4z"/><path stroke="#FFF" stroke-dasharray="5 5" stroke-width=".75" d="M82.305 51.932H33.92m11.377-10.787v43.31m42.454-43.31V52.68"/><path stroke="#FFF" stroke-width=".75" d="M51.536 41.145h30.777"/><path fill="#FFF" fill-rule="nonzero" d="M53.642 43.922l-1.181-2.777 1.181-2.777-6.583 2.777zM80.206 43.922l1.18-2.777-1.18-2.777 6.584 2.777z"/><path stroke="#FFF" stroke-width=".75" d="M33.921 58.759v39.108"/><path fill="#FFF" fill-rule="nonzero" d="M31.144 60.866l2.776-1.18 2.778 1.18-2.778-6.584zM31.144 95.762l2.776 1.179 2.778-1.179-2.778 6.582z"/><path stroke="#FFF" stroke-width="2" d="M75.063 104.27c0-12.447 10.091-22.539 22.538-22.539 12.447 0 22.537 10.091 22.537 22.539H75.063z"/><path stroke="#FFF" stroke-dasharray="5 5" stroke-width="2" d="M66.283 101.062v3.206h7.69"/></g></svg>