<svg xmlns="http://www.w3.org/2000/svg" width="200" height="200"><g fill="#FFF"><path d="M177.829 168.92h-5.18V78.783c0-1.244-.829-2.072-2.072-2.072h-2.694V45.628c0-1.243-.828-2.072-2.072-2.072H154.83V28.844c0-1.243-.829-2.072-2.072-2.072s-2.073.829-2.073 2.072v14.712h-10.981c-1.243 0-2.072.829-2.072 2.072v31.083h-3.108c-1.243 0-2.072.828-2.072 2.072v90.137h-4.973V51.43c0-.829-.416-1.45-1.036-1.865a1.884 1.884 0 0 0-2.072 0L77.748 77.746c-.829.414-1.036 1.244-1.036 2.072l5.802 32.119 1.658 33.568-8.289 23.207h-4.352V45.421c0-.829-.621-1.658-1.243-1.865L30.5 27.808c-.621-.207-1.45-.207-1.864.207-.829.414-1.036 1.036-1.036 1.865v139.247h-5.181c-1.243 0-2.072.828-2.072 2.072 0 1.244.829 2.072 2.072 2.072h155.617c1.244 0 2.072-.828 2.072-2.072a2.299 2.299 0 0 0-2.279-2.279zM67.385 139.08v29.84H31.744V64.071L67.385 78.16v60.92zm0-65.478l-35.641-14.09v-26.73l35.641 14.09v26.73zm40.406 95.318h-8.496v-10.566a4.156 4.156 0 0 1 4.145-4.145 4.156 4.156 0 0 1 4.145 4.145v10.566h.206zm15.541 0h-11.397v-10.566c0-4.561-3.729-8.289-8.288-8.289s-8.288 3.729-8.288 8.289v10.566H80.438l8.082-22.172c0-.207.207-.621.207-.828l-1.657-33.982v-.207l-5.595-30.875 42.272-25.488V168.92h-.415zm18.442-121.219h22.172v29.01h-22.172v-29.01zm26.731 121.219h-31.911V80.856h31.911v88.064z"/><path d="M95.979 103.027c1.244 0 2.072-.83 2.072-2.072v-6.838c0-1.244-.828-2.072-2.072-2.072-1.243 0-2.071.828-2.071 2.072v6.838c0 1.242 1.036 2.072 2.071 2.072m9.947 0c1.244 0 2.072-.83 2.072-2.072v-6.838c0-1.244-.828-2.072-2.072-2.072-1.243 0-2.071.828-2.071 2.072v6.838c-.001 1.242.828 2.072 2.071 2.072m9.739 0c1.243 0 2.072-.83 2.072-2.072v-6.838c0-1.244-.829-2.072-2.072-2.072s-2.072.828-2.072 2.072v6.838c0 1.242 1.036 2.072 2.072 2.072m-19.686 17.821c1.244 0 2.072-.83 2.072-2.072v-6.838c0-1.244-.828-2.072-2.072-2.072-1.243 0-2.071.828-2.071 2.072v6.838c0 1.242 1.036 2.072 2.071 2.072m9.947 0c1.244 0 2.072-.83 2.072-2.072v-6.838c0-1.244-.828-2.072-2.072-2.072-1.243 0-2.071.828-2.071 2.072v6.838c-.001 1.242.828 2.072 2.071 2.072m9.739 0c1.243 0 2.072-.83 2.072-2.072v-6.838c0-1.244-.829-2.072-2.072-2.072s-2.072.828-2.072 2.072v6.838c0 1.242 1.036 2.072 2.072 2.072m-19.686 18.027c1.244 0 2.072-.83 2.072-2.072v-6.838c0-1.244-.828-2.072-2.072-2.072-1.243 0-2.071.828-2.071 2.072v6.838c0 1.035 1.036 2.072 2.071 2.072m9.947 0c1.244 0 2.072-.83 2.072-2.072v-6.838c0-1.244-.828-2.072-2.072-2.072-1.243 0-2.071.828-2.071 2.072v6.838c-.001 1.035.828 2.072 2.071 2.072m9.739 0c1.243 0 2.072-.83 2.072-2.072v-6.838c0-1.244-.829-2.072-2.072-2.072s-2.072.828-2.072 2.072v6.838c0 1.035 1.036 2.072 2.072 2.072m28.389-5.182c1.243 0 2.072-.828 2.072-2.072v-16.162c0-1.244-.829-2.072-2.072-2.072s-2.072.828-2.072 2.072v16.162c-.001 1.244.829 2.072 2.072 2.072m8.495 0c1.244 0 2.072-.828 2.072-2.072v-16.162c0-1.244-.828-2.072-2.072-2.072-1.243 0-2.071.828-2.071 2.072v16.162c0 1.244 1.036 2.072 2.071 2.072m8.703 0c1.243 0 2.072-.828 2.072-2.072v-16.162c0-1.244-.829-2.072-2.072-2.072s-2.072.828-2.072 2.072v16.162c0 1.244.829 2.072 2.072 2.072m-17.198-25.9c1.243 0 2.072-.83 2.072-2.072V89.559c0-1.246-.829-2.072-2.072-2.072s-2.072.826-2.072 2.072v16.162c-.001 1.242.829 2.072 2.072 2.072m8.495 0c1.244 0 2.072-.83 2.072-2.072V89.559c0-1.246-.828-2.072-2.072-2.072-1.243 0-2.071.826-2.071 2.072v16.162c0 1.242 1.036 2.072 2.071 2.072m8.703 0c1.243 0 2.072-.83 2.072-2.072V89.559c0-1.246-.829-2.072-2.072-2.072s-2.072.826-2.072 2.072v16.162c0 1.242.829 2.072 2.072 2.072m-17.198 31.082c-1.243 0-2.072.828-2.072 2.072v16.162c0 1.244.829 2.072 2.072 2.072s2.072-.828 2.072-2.072v-16.162c0-1.037-1.036-2.072-2.072-2.072m8.495 0c-1.243 0-2.071.828-2.071 2.072v16.162c0 1.244.828 2.072 2.071 2.072 1.244 0 2.072-.828 2.072-2.072v-16.162c0-1.037-.828-2.072-2.072-2.072m8.703 0c-1.243 0-2.072.828-2.072 2.072v16.162c0 1.244.829 2.072 2.072 2.072s2.072-.828 2.072-2.072v-16.162c0-1.037-1.036-2.072-2.072-2.072m-120.391-5.182c1.243 0 2.072-.828 2.072-2.072v-16.162c0-1.244-.829-2.072-2.072-2.072s-2.072.828-2.072 2.072v16.162c0 1.244 1.036 2.072 2.072 2.072m8.703 0c1.243 0 2.072-.828 2.072-2.072v-16.162c0-1.244-.829-2.072-2.072-2.072s-2.072.828-2.072 2.072v16.162c0 1.244.829 2.072 2.072 2.072m8.496 0c1.243 0 2.072-.828 2.072-2.072v-16.162c0-1.244-.829-2.072-2.072-2.072s-2.072.828-2.072 2.072v16.162c-.001 1.244 1.035 2.072 2.072 2.072m-17.199-25.9c1.243 0 2.072-.83 2.072-2.072V89.559c0-1.246-.829-2.072-2.072-2.072s-2.072.826-2.072 2.072v16.162c0 1.242 1.036 2.072 2.072 2.072m8.703 0c1.243 0 2.072-.83 2.072-2.072V89.559c0-1.246-.829-2.072-2.072-2.072s-2.072.826-2.072 2.072v16.162c0 1.242.829 2.072 2.072 2.072m8.496 0c1.243 0 2.072-.83 2.072-2.072V89.559c0-1.246-.829-2.072-2.072-2.072s-2.072.826-2.072 2.072v16.162c-.001 1.242 1.035 2.072 2.072 2.072m-17.199 31.082c-1.243 0-2.072.828-2.072 2.072v16.162c0 1.244.829 2.072 2.072 2.072s2.072-.828 2.072-2.072v-16.162c.001-1.037-.829-2.072-2.072-2.072m8.703 0c-1.243 0-2.072.828-2.072 2.072v16.162c0 1.244.829 2.072 2.072 2.072s2.072-.828 2.072-2.072v-16.162c.001-1.037-1.035-2.072-2.072-2.072m8.496 0c-1.243 0-2.072.828-2.072 2.072v16.162c0 1.244.829 2.072 2.072 2.072s2.072-.828 2.072-2.072v-16.162c0-1.037-.829-2.072-2.072-2.072"/></g></svg>