<svg xmlns="http://www.w3.org/2000/svg" xmlns:xlink="http://www.w3.org/1999/xlink" viewBox="0 0 721 605"><defs><style>.cls-1{isolation:isolate;}.cls-10,.cls-11,.cls-12,.cls-2,.cls-4,.cls-7,.cls-8,.cls-9{fill:none;stroke-miterlimit:10;}.cls-2,.cls-4{stroke:#00152b;stroke-width:0.5px;}.cls-2,.cls-3{opacity:0.2;}.cls-5,.cls-6{fill:#00152b;}.cls-14,.cls-15,.cls-16,.cls-17,.cls-18,.cls-19,.cls-5{opacity:0.3;}.cls-6{opacity:0.1;}.cls-12,.cls-7,.cls-8,.cls-9{stroke:#fa0171;}.cls-10,.cls-7,.cls-8,.cls-9{stroke-linecap:round;stroke-width:4px;}.cls-8{stroke-dasharray:0 6.01;}.cls-10,.cls-9{stroke-dasharray:0 6;}.cls-10,.cls-11{stroke:#38d611;}.cls-11,.cls-12{stroke-width:3px;}.cls-13{mix-blend-mode:lighten;}.cls-14{fill:url(#linear-gradient);}.cls-15{fill:url(#linear-gradient-2);}.cls-16{fill:url(#linear-gradient-3);}.cls-17{fill:url(#linear-gradient-4);}.cls-18{fill:url(#linear-gradient-5);}.cls-19{fill:url(#linear-gradient-6);}</style><linearGradient id="linear-gradient" x1="209.99" y1="265.23" x2="260.95" y2="265.23" gradientUnits="userSpaceOnUse"><stop offset="0" stop-color="#364a68"/><stop offset="1" stop-color="#38d611"/></linearGradient><linearGradient id="linear-gradient-2" x1="592.51" y1="370.04" x2="643.47" y2="370.04" gradientTransform="matrix(-1, 0, 0, 1, 1031.99, 0)" xlink:href="#linear-gradient"/><linearGradient id="linear-gradient-3" x1="720" y1="383.24" x2="770.95" y2="383.24" gradientTransform="matrix(-1, 0, 0, 1, 1031.99, 0)" gradientUnits="userSpaceOnUse"><stop offset="0" stop-color="#364a68"/><stop offset="1" stop-color="#fa0171"/></linearGradient><linearGradient id="linear-gradient-4" x1="411.68" y1="279.78" x2="513.76" y2="279.78" gradientTransform="matrix(1, 0, 0, 1, 0, 0)" xlink:href="#linear-gradient-3"/><linearGradient id="linear-gradient-5" x1="286.66" y1="294.77" x2="388.75" y2="294.77" gradientTransform="matrix(1, 0, 0, 1, 0, 0)" xlink:href="#linear-gradient-3"/><linearGradient id="linear-gradient-6" x1="337.7" y1="204.83" x2="439.79" y2="204.83" xlink:href="#linear-gradient"/></defs><title>semi1</title><g class="cls-1"><g id="main_grid" data-name="main grid"><polygon class="cls-2" points="260.96 250.52 260.96 221.1 235.49 206.39 210.01 221.1 210.01 250.52 235.49 265.23 260.96 250.52"/><polyline class="cls-2" points="235.49 265.25 235.49 235.81 210.01 221.1 184.53 206.39 184.53 187.2"/><polyline class="cls-2" points="260.96 221.1 235.49 235.81 210.01 250.52"/><line class="cls-2" x1="260.96" y1="250.52" x2="235.49" y2="235.81"/><polyline class="cls-2" points="311.92 250.51 286.44 265.22 286.44 294.64 311.92 309.35 337.39 294.64 337.39 265.22"/><polyline class="cls-2" points="286.44 265.22 311.92 279.93 311.92 309.37 311.92 339.11"/><polyline class="cls-2" points="337.39 265.22 311.92 279.93 286.44 294.64"/><polyline class="cls-2" points="311.92 279.93 337.39 294.64 354.9 305.28 363.05 310.23 363.04 309.56 363.04 279.81 363.05 250.38 388.52 235.67"/><polygon class="cls-2" points="311.92 250.51 311.92 221.09 286.44 206.38 260.96 221.09 260.96 250.51 286.44 265.22 311.92 250.51"/><polyline class="cls-2" points="260.96 250.51 286.44 235.8 311.92 221.09 337.39 207.28 337.39 235.8"/><polyline class="cls-2" points="235.49 294.65 235.49 265.23 210.01 250.52 184.53 265.23 184.53 294.65 210.01 309.36"/><polyline class="cls-2" points="184.53 246.2 167.49 255.7 184.53 265.23 210.01 279.94 210.01 309.38"/><polyline class="cls-2" points="235.49 265.23 210.01 279.94 184.53 294.65 184.53 324.95 158.9 339.11 158.9 310.11"/><line class="cls-2" x1="235.49" y1="294.65" x2="210.01" y2="279.94"/><polygon class="cls-2" points="286.44 294.64 286.44 265.22 260.96 250.51 235.49 265.22 235.49 294.64 260.96 309.35 286.44 294.64"/><polyline class="cls-2" points="235.49 265.22 260.96 279.93 260.96 309.37 235.49 324.78 260.96 339.78 286.44 324.95"/><polyline class="cls-2" points="286.44 265.22 260.96 279.93 235.49 294.64"/><line class="cls-2" x1="167.49" y1="216.2" x2="184.53" y2="206.39"/><line class="cls-2" x1="167.49" y1="274.95" x2="167.49" y2="255.7"/><polyline class="cls-2" points="260.96 162.61 260.96 191.95 235.49 206.39 235.49 176.78"/><polyline class="cls-2" points="311.92 250.51 286.44 235.8 286.44 206.38 286.44 187.2 303.9 176.95"/><line class="cls-2" x1="320.74" y1="196.79" x2="337.39" y2="207.28"/><line class="cls-2" x1="210.01" y1="339.11" x2="184.53" y2="324.95"/><polygon class="cls-2" points="507.38 363.93 507.38 334.51 481.9 319.8 456.42 334.51 456.42 363.93 481.9 378.64 507.38 363.93"/><polyline class="cls-2" points="507.38 334.51 481.9 349.22 456.42 363.93"/><polyline class="cls-2" points="481.9 408.06 481.9 378.64 456.42 363.93 430.95 378.64 430.95 408.06 456.42 422.76"/><polyline class="cls-2" points="413.9 369.1 430.95 378.64 456.42 393.35 456.42 422.78"/><polyline class="cls-2" points="430.95 437.35 430.95 408.06 456.42 393.35 481.9 378.64 481.9 349.19"/><line class="cls-2" x1="481.9" y1="408.05" x2="456.42" y2="393.35"/><polygon class="cls-2" points="414 220.97 414 191.55 439.48 176.84 464.95 191.55 464.95 220.97 439.48 235.68 414 220.97"/><polyline class="cls-2" points="439.48 235.69 439.48 206.26 464.95 191.55 490.43 176.84 490.43 157.64"/><polyline class="cls-2" points="414 191.55 439.48 206.26 464.95 220.97"/><line class="cls-2" x1="414" y1="220.97" x2="439.48" y2="206.26"/><polyline class="cls-2" points="363.04 220.96 388.52 235.67 388.52 265.09 363.04 279.8 337.57 265.09 337.57 235.67"/><polyline class="cls-2" points="337.57 235.67 363.05 250.38 388.52 265.09"/><line class="cls-2" x1="363.04" y1="250.38" x2="337.57" y2="265.09"/><polygon class="cls-2" points="363.05 220.96 363.05 191.54 388.52 176.83 414 191.54 414 220.96 388.52 235.67 363.05 220.96"/><polyline class="cls-2" points="413.83 220.96 388.35 206.25 362.87 191.54 337.39 177.73 337.39 207.25"/><polyline class="cls-2" points="439.48 265.1 439.48 235.68 464.95 220.97 490.43 235.68 490.43 265.1 464.95 279.8"/><polyline class="cls-2" points="490.43 216.64 507.48 226.14 490.43 235.68 464.95 250.39 464.95 279.82"/><polyline class="cls-2" points="439.48 235.68 464.95 250.39 490.43 265.1 490.43 295.39 516.06 309.56 516.06 280.56"/><line class="cls-2" x1="439.48" y1="265.09" x2="464.95" y2="250.39"/><polygon class="cls-2" points="388.52 265.09 388.52 235.67 414 220.96 439.48 235.67 439.48 265.09 414 279.8 388.52 265.09"/><polyline class="cls-2" points="439.48 235.67 414 250.38 414 279.81 439.48 295.23 414 310.23 388.43 295.34"/><polyline class="cls-2" points="388.52 235.67 414 250.38 439.48 265.09"/><polyline class="cls-2" points="414 133.05 414 162.39 439.48 176.84 439.48 147.23"/><polyline class="cls-2" points="363.05 220.96 388.52 206.25 388.52 176.83 388.52 157.64 371.06 147.39"/><line class="cls-2" x1="354.05" y1="167.24" x2="337.39" y2="177.73"/><g class="cls-3"><polygon class="cls-4" points="337.47 384.03 337.47 413.45 311.99 428.15 286.52 413.45 286.52 384.03 311.99 369.32 337.47 384.03"/><polyline class="cls-4" points="311.99 369.3 311.99 398.74 286.52 413.45 261.04 428.15 261.04 447.35"/><polyline class="cls-4" points="337.47 413.45 311.99 398.74 286.52 384.03"/><line class="cls-4" x1="337.47" y1="384.03" x2="311.99" y2="398.74"/><polyline class="cls-4" points="388.43 384.04 362.95 369.33 362.95 339.91 388.43 325.2 413.9 339.91 413.9 369.33"/><polyline class="cls-4" points="362.95 369.33 388.43 354.62 388.43 325.18 388.43 295.34"/><polyline class="cls-4" points="413.9 369.33 388.43 354.62 362.95 339.91"/><polyline class="cls-4" points="388.43 354.62 413.9 339.91 431.41 329.27"/><polygon class="cls-4" points="388.43 384.04 388.43 413.45 362.95 428.16 337.47 413.45 337.47 384.04 362.95 369.33 388.43 384.04"/><polyline class="cls-4" points="337.47 384.04 362.95 398.75 388.43 413.45 407.54 423.82 430.95 436.73"/><polyline class="cls-4" points="311.99 339.9 311.99 369.32 286.52 384.03 261.04 369.32 261.04 339.9"/><polyline class="cls-4" points="261.04 388.35 243.99 378.85 261.04 369.32 286.52 354.61 286.52 325.17"/><line class="cls-4" x1="311.99" y1="339.9" x2="286.52" y2="354.61"/><polygon class="cls-4" points="362.95 339.91 362.95 369.33 337.47 384.04 311.99 369.33 311.99 339.91 337.47 325.2 362.95 339.91"/><polyline class="cls-4" points="311.99 369.33 337.47 354.62 337.47 325.18 311.99 309.77"/><polyline class="cls-4" points="362.95 369.33 337.47 354.62 311.99 339.91"/><line class="cls-4" x1="243.99" y1="418.35" x2="261.04" y2="428.16"/><line class="cls-4" x1="243.99" y1="359.6" x2="243.99" y2="378.85"/><polyline class="cls-4" points="337.47 471.94 337.47 442.6 311.99 428.15 311.99 457.77"/><polyline class="cls-4" points="388.43 384.04 362.95 398.75 362.95 428.16 362.95 447.35 380.41 457.6"/></g><line class="cls-2" x1="456.42" y1="334.51" x2="507.38" y2="363.93"/></g><g id="dots"><circle class="cls-5" cx="184.53" cy="185.85" r="2.45"/><circle class="cls-5" cx="166.7" cy="216.2" r="2.45"/><circle class="cls-5" cx="184.53" cy="206.39" r="2.45"/><circle class="cls-5" cx="209.72" cy="221.1" r="2.45"/><circle class="cls-5" cx="235.5" cy="235.67" r="2.45"/><circle class="cls-5" cx="286.45" cy="235.67" r="2.45"/><circle class="cls-5" cx="235.5" cy="206.39" r="2.45"/><circle class="cls-5" cx="235.5" cy="176.95" r="2.45"/><circle class="cls-5" cx="260.96" cy="162.61" r="2.45"/><circle class="cls-5" cx="260.96" cy="191.85" r="2.45"/><circle class="cls-5" cx="260.96" cy="221.1" r="2.45"/><circle class="cls-5" cx="260.96" cy="250.38" r="2.45"/><circle class="cls-5" cx="235.5" cy="265.25" r="2.45"/><circle class="cls-5" cx="235.49" cy="294.83" r="2.45"/><circle class="cls-5" cx="209.72" cy="279.96" r="2.45"/><circle class="cls-5" cx="209.52" cy="309.35" r="2.45"/><circle class="cls-5" cx="184.53" cy="294.64" r="2.45"/><circle class="cls-5" cx="184.53" cy="324.95" r="2.45"/><circle class="cls-5" cx="209.2" cy="338.74" r="2.45"/><circle class="cls-5" cx="158.9" cy="338.74" r="2.45"/><circle class="cls-5" cx="158.9" cy="310.74" r="2.45"/><circle class="cls-5" cx="260.96" cy="279.96" r="2.45"/><circle class="cls-5" cx="261.04" cy="309.35" r="2.45"/><circle class="cls-5" cx="286.44" cy="294.83" r="2.45"/><circle class="cls-5" cx="235.5" cy="324.95" r="2.45"/><circle class="cls-5" cx="286.45" cy="206.74" r="2.45"/><circle class="cls-5" cx="286.53" cy="187.2" r="2.45"/><circle class="cls-5" cx="303.8" cy="176.95" r="2.45"/><circle class="cls-5" cx="311.91" cy="221.45" r="2.45"/><circle class="cls-5" cx="320.74" cy="196.89" r="2.45"/><circle class="cls-5" cx="337.39" cy="207.28" r="2.45"/><circle class="cls-5" cx="337.39" cy="177.73" r="2.45"/><circle class="cls-5" cx="354.05" cy="167.24" r="2.45"/><circle class="cls-5" cx="363.04" cy="191.55" r="2.45"/><circle class="cls-5" cx="363.04" cy="221.1" r="2.45"/><circle class="cls-5" cx="413.83" cy="220.96" r="2.45"/><circle class="cls-5" cx="388.42" cy="206.88" r="2.45"/><circle class="cls-5" cx="388.52" cy="235.67" r="2.45"/><circle class="cls-5" cx="388.61" cy="264.92" r="2.45"/><circle class="cls-5" cx="439.39" cy="264.78" r="2.45"/><circle class="cls-5" cx="464.95" cy="250.39" r="2.45"/><circle class="cls-5" cx="464.95" cy="279.93" r="2.45"/><circle class="cls-5" cx="439.39" cy="295.34" r="2.45"/><circle class="cls-5" cx="414.61" cy="309.77" r="2.45"/><circle class="cls-5" cx="388.61" cy="296.01" r="2.45"/><circle class="cls-5" cx="388.42" cy="325.2" r="2.45"/><circle class="cls-5" cx="413.9" cy="339.91" r="2.45"/><circle class="cls-5" cx="363.04" cy="340.34" r="2.45"/><circle class="cls-5" cx="430.95" cy="329.27" r="2.45"/><circle class="cls-5" cx="490.43" cy="264.92" r="2.45"/><circle class="cls-5" cx="516.06" cy="281.11" r="2.45"/><circle class="cls-5" cx="516.06" cy="309.35" r="2.45"/><circle class="cls-5" cx="490.43" cy="295.34" r="2.45"/><circle class="cls-5" cx="413.99" cy="250.7" r="2.45"/><circle class="cls-5" cx="414.09" cy="279.49" r="2.45"/><circle class="cls-5" cx="414" cy="191.85" r="2.45"/><circle class="cls-5" cx="388.52" cy="176.95" r="2.45"/><circle class="cls-5" cx="464.25" cy="220.9" r="2.45"/><circle class="cls-5" cx="438.85" cy="206.82" r="2.45"/><circle class="cls-5" cx="439.48" cy="235.61" r="2.45"/><circle class="cls-5" cx="481.82" cy="349.53" r="2.45"/><circle class="cls-5" cx="507.38" cy="335.13" r="2.45"/><circle class="cls-5" cx="507.38" cy="363.68" r="2.45"/><circle class="cls-5" cx="481.82" cy="378.08" r="2.45"/><circle class="cls-5" cx="456.42" cy="335.45" r="2.45"/><circle class="cls-5" cx="456.52" cy="364.23" r="2.45"/><circle class="cls-5" cx="456.35" cy="393.46" r="2.45"/><circle class="cls-5" cx="481.82" cy="407.41" r="2.45"/><circle class="cls-5" cx="456.35" cy="422.02" r="2.45"/><circle class="cls-5" cx="430.95" cy="379.38" r="2.45"/><circle class="cls-5" cx="388.42" cy="354.61" r="2.45"/><circle class="cls-5" cx="363.04" cy="369.1" r="2.45"/><circle class="cls-5" cx="413.9" cy="369.33" r="2.45"/><circle class="cls-5" cx="431.04" cy="408.17" r="2.45"/><circle class="cls-5" cx="388.48" cy="383.99" r="2.45"/><circle class="cls-5" cx="363.01" cy="398.37" r="2.45"/><circle class="cls-5" cx="388.48" cy="413.32" r="2.45"/><circle class="cls-5" cx="363.01" cy="427.93" r="2.45"/><circle class="cls-5" cx="363.01" cy="447.35" r="2.45"/><circle class="cls-5" cx="337.47" cy="471.94" r="2.45"/><circle class="cls-5" cx="337.47" cy="442.46" r="2.45"/><circle class="cls-5" cx="311.99" cy="457.6" r="2.45"/><circle class="cls-5" cx="311.99" cy="427.93" r="2.45"/><circle class="cls-5" cx="286.44" cy="413.32" r="2.45"/><circle class="cls-5" cx="261.04" cy="427.93" r="2.45"/><circle class="cls-5" cx="260.96" cy="447.35" r="2.45"/><circle class="cls-5" cx="243.99" cy="418.35" r="2.45"/><circle class="cls-5" cx="380.51" cy="457.6" r="2.45"/><circle class="cls-5" cx="337.61" cy="385.3" r="2.45"/><circle class="cls-5" cx="311.91" cy="398.75" r="2.45"/><circle class="cls-5" cx="286.52" cy="383.99" r="2.45"/><circle class="cls-5" cx="311.99" cy="369.33" r="2.45"/><circle class="cls-5" cx="337.39" cy="354.61" r="2.45"/><circle class="cls-5" cx="337.39" cy="325.2" r="2.45"/><circle class="cls-5" cx="311.91" cy="339.91" r="2.45"/><circle class="cls-5" cx="286.52" cy="354.61" r="2.45"/><circle class="cls-5" cx="261.04" cy="369.3" r="2.45"/><circle class="cls-5" cx="261.04" cy="339.78" r="2.45"/><circle class="cls-5" cx="286.44" cy="325.17" r="2.45"/><circle class="cls-5" cx="243.99" cy="378.64" r="2.45"/><circle class="cls-5" cx="243.99" cy="359.6" r="2.45"/><circle class="cls-5" cx="260.96" cy="388.35" r="2.45"/><circle class="cls-5" cx="337.7" cy="414.08" r="2.45"/><circle class="cls-5" cx="431.04" cy="436.73" r="2.45"/><circle class="cls-5" cx="481.91" cy="320.36" r="2.45"/><circle class="cls-5" cx="464.43" cy="191.8" r="2.45"/><circle class="cls-5" cx="490.43" cy="157.64" r="2.45"/><circle class="cls-5" cx="439.48" cy="176.83" r="2.45"/><circle class="cls-5" cx="490.43" cy="176.83" r="2.45"/><circle class="cls-5" cx="491.43" cy="217.21" r="2.45"/><circle class="cls-5" cx="507.48" cy="226" r="2.45"/><circle class="cls-5" cx="490.43" cy="235.61" r="2.45"/><circle class="cls-5" cx="439.48" cy="147.39" r="2.45"/><circle class="cls-5" cx="414" cy="133.54" r="2.45"/><circle class="cls-5" cx="414" cy="162.34" r="2.45"/><circle class="cls-5" cx="388.42" cy="157.64" r="2.45"/><circle class="cls-5" cx="371.51" cy="147.39" r="2.45"/><circle class="cls-5" cx="311.91" cy="250.73" r="2.45"/><circle class="cls-5" cx="286.45" cy="265.6" r="2.45"/><circle class="cls-5" cx="311.99" cy="279.78" r="2.45"/><circle class="cls-5" cx="312.07" cy="309.17" r="2.45"/><circle class="cls-5" cx="337.47" cy="294.65" r="2.45"/><circle class="cls-5" cx="363.04" cy="309.77" r="2.45"/><circle class="cls-5" cx="337.47" cy="265.42" r="2.45"/><circle class="cls-5" cx="363.04" cy="250.38" r="2.45"/><circle class="cls-5" cx="337.57" cy="235.61" r="2.45"/><circle class="cls-5" cx="362.95" cy="279.49" r="2.45"/><circle class="cls-5" cx="210.01" cy="250.54" r="2.45"/><circle class="cls-5" cx="185.13" cy="265.6" r="2.45"/><circle class="cls-5" cx="167.49" cy="255.7" r="2.45"/><circle class="cls-5" cx="167.49" cy="274.95" r="2.45"/><circle class="cls-5" cx="184.53" cy="246.2" r="2.45"/></g><g id="circles"><circle class="cls-6" cx="184.38" cy="185.54" r="6.37"/><circle class="cls-6" cx="260.96" cy="191.55" r="6.37"/><circle class="cls-6" cx="320.74" cy="196.67" r="6.37"/><circle class="cls-6" cx="490.43" cy="157.41" r="6.37"/><circle class="cls-6" cx="439.39" cy="176.83" r="6.37"/><circle class="cls-6" cx="388.42" cy="157.87" r="6.37"/><circle class="cls-6" cx="490.43" cy="235.69" r="6.37"/><circle class="cls-6" cx="516.06" cy="309.17" r="6.37"/><circle class="cls-6" cx="507.48" cy="363.68" r="6.37"/><circle class="cls-6" cx="456.35" cy="422.02" r="6.37"/><circle class="cls-6" cx="481.9" cy="320.36" r="6.37"/><circle class="cls-6" cx="362.91" cy="447.35" r="6.37"/><circle class="cls-6" cx="311.99" cy="457.6" r="6.37"/><circle class="cls-6" cx="260.96" cy="427.93" r="6.37"/><circle class="cls-6" cx="414.61" cy="309.35" r="6.37"/><circle class="cls-6" cx="286.44" cy="325.2" r="6.37"/><circle class="cls-6" cx="311.91" cy="250.73" r="6.37"/><circle class="cls-6" cx="167.49" cy="255.7" r="6.37"/><circle class="cls-6" cx="243.99" cy="378.85" r="6.37"/><circle class="cls-6" cx="337.39" cy="354.62" r="6.37"/><circle class="cls-6" cx="184.53" cy="324.95" r="6.37"/><circle class="cls-6" cx="209.52" cy="220.96" r="6.37"/></g><g id="connections"><line class="cls-7" x1="388.61" y1="295.44" x2="388.61" y2="295.44"/><line class="cls-8" x1="393.7" y1="292.25" x2="411.54" y2="281.08"/><line class="cls-7" x1="414.09" y1="279.49" x2="414.09" y2="279.49"/><line class="cls-9" x1="337.38" y1="206.46" x2="337.47" y2="265.21"/><polyline class="cls-9" points="260.96 369.91 260.96 310.74 286.34 294.76"/><line class="cls-9" x1="337.3" y1="324.18" x2="388.52" y2="355.2"/><line class="cls-10" x1="261.04" y1="249.33" x2="334.95" y2="207.28"/><polyline class="cls-10" points="439.46 206.32 464.95 220.97 464.95 247.94"/><line class="cls-9" x1="464.87" y1="310.23" x2="439.48" y2="325.79"/><polyline class="cls-10" points="388.52 414.03 362.95 428.16 311.99 397.95"/></g><g id="elements"><polygon class="cls-11" points="439.46 206.32 388.51 176.91 337.38 206.46 388.34 235.88 439.46 206.32"/><polygon class="cls-12" points="515.99 280.67 465.04 251.25 413.91 280.81 464.87 310.23 515.99 280.67"/><polygon class="cls-12" points="388.43 294.63 337.47 265.21 286.34 294.76 337.3 324.18 388.43 294.63"/><polygon class="cls-11" points="260.96 250.52 260.96 309.35 210.01 279.94 210.01 221.1 260.96 250.52"/><polygon class="cls-11" points="388.52 355.2 388.52 414.03 439.48 384.62 439.48 325.79 388.52 355.2"/><polygon class="cls-12" points="261.04 368.53 261.04 427.36 311.99 397.95 311.99 339.11 261.04 368.53"/></g><g id="elements_color" data-name="elements color" class="cls-13"><polygon class="cls-14" points="260.95 250.53 260.95 309.35 209.99 279.94 209.99 221.11 260.95 250.53"/><polygon class="cls-15" points="388.52 355.34 388.52 414.17 439.48 384.76 439.48 325.92 388.52 355.34"/><polygon class="cls-16" points="261.04 368.53 261.04 427.36 311.99 397.95 311.99 339.11 261.04 368.53"/><polygon class="cls-17" points="513.76 279.71 462.8 250.29 411.68 279.85 462.63 309.26 513.76 279.71"/><polygon class="cls-18" points="388.75 294.7 337.79 265.28 286.66 294.83 337.62 324.25 388.75 294.7"/><polygon class="cls-19" points="439.79 204.76 388.83 175.35 337.7 204.9 388.66 234.32 439.79 204.76"/></g></g></svg>