<svg height="459" width="1411" xmlns="http://www.w3.org/2000/svg" preserveAspectRatio="xMinYMin slice"><g fill="none" fill-rule="evenodd"><path d="m0 0h862v459h-862z"/><path d="m121.156 294.426 17.587-10.54c12.381 22.767 26.685 34.15 42.912 34.15 6.942 0 13.46-1.616 19.557-4.848s10.74-7.566 13.93-13c3.188-5.434 4.783-11.196 4.783-17.286 0-6.934-2.345-13.726-7.035-20.379-6.472-9.182-18.29-20.237-35.455-33.167-17.26-13.023-28-22.44-32.22-28.248-7.316-9.745-10.974-20.285-10.974-31.622 0-8.994 2.157-17.192 6.472-24.594 4.314-7.402 10.388-13.234 18.22-17.497 7.832-4.264 16.344-6.395 25.536-6.395 9.755 0 18.877 2.413 27.366 7.238s17.47 13.702 26.943 26.632l-16.883 12.79c-7.786-10.307-14.422-17.1-19.909-20.38-5.487-3.278-11.467-4.918-17.939-4.918-8.348 0-15.172 2.53-20.471 7.59-5.3 5.059-7.95 11.29-7.95 18.69 0 4.498.938 8.855 2.814 13.071s5.3 8.807 10.271 13.773c2.72 2.623 11.631 9.51 26.733 20.66 17.915 13.21 30.203 24.968 36.862 35.275 6.66 10.306 9.99 20.66 9.99 31.059 0 14.991-5.698 28.014-17.095 39.07-11.396 11.056-25.255 16.584-41.576 16.584-12.569 0-23.965-3.35-34.19-10.049-10.223-6.699-19.65-17.919-28.28-33.66l.001.001zm284.536-12.227 16.602 8.713c-5.44 10.681-11.725 19.301-18.853 25.86-7.13 6.558-15.149 11.547-24.06 14.967-8.91 3.42-18.994 5.13-30.25 5.13-24.95 0-44.46-8.175-58.53-24.524-14.07-16.35-21.104-34.83-21.104-55.443 0-19.395 5.956-36.68 17.869-51.86 15.101-19.3 35.314-28.95 60.64-28.95 26.076 0 46.899 9.884 62.47 29.653 11.068 13.96 16.695 31.387 16.883 52.281h-137.601c.375 17.802 6.05 32.394 17.024 43.778s24.528 17.076 40.661 17.076c7.786 0 15.36-1.359 22.723-4.076s13.624-6.324 18.783-10.821c5.159-4.498 10.74-11.759 16.743-21.784zm0-41.178c-2.627-10.494-6.449-18.88-11.467-25.157s-11.654-11.337-19.909-15.178c-8.254-3.841-16.93-5.762-26.029-5.762-15.007 0-27.904 4.825-38.691 14.475-7.88 7.027-13.835 17.568-17.869 31.622zm46.195 91.913 29.406-206.734h3.377l84.136 169.631 18.383-37.437 20.994.085-36.844 74.455h-5.206l-74.147-148.972-20.12 148.972zm269.263-206.734h20.682v206.734h-20.682z" fill="#2e3536" fill-rule="nonzero"/><g fill="#fa0171"><path d="m680.837 302.808c1.562.808 3.013 1.887 4.351 3.236 3.336 3.363 5.004 7.474 5.004 12.331 0 4.764-1.668 8.851-5.004 12.261-3.335 3.41-7.366 5.114-12.092 5.114s-8.756-1.704-12.092-5.114-5.004-7.497-5.004-12.26c0-4.858 1.668-8.969 5.004-12.332l.064-.064-16.568-120.894-18.15 36.684c.562 1.743.843 3.612.843 5.606 0 4.764-1.668 8.851-5.004 12.261-3.335 3.41-7.366 5.114-12.092 5.114s-8.756-1.704-12.092-5.114-5.004-7.497-5.004-12.26c0-4.858 1.668-8.969 5.004-12.332s7.366-5.044 12.092-5.044c.285 0 .567.006.846.018l28.487-58.016c-.467-.39-.923-.81-1.366-1.26-3.376-3.422-5.063-7.523-5.063-12.304 0-4.876 1.687-9 5.063-12.375 3.375-3.376 7.453-5.063 12.234-5.063s8.86 1.687 12.234 5.063c3.375 3.375 5.063 7.5 5.063 12.374 0 4.782-1.688 8.883-5.063 12.305a18.138 18.138 0 0 1 -3.161 2.576l21.467 149.49z" fill-rule="nonzero"/><path d="m804.484 200.995h13.346l26.425 93.681 37.296-93.681h2.651l36.854 93.681 26.956-93.681h13.257l-37.296 130.005h-2.475l-38.533-98.366-39.329 98.366h-2.474zm212.493 31.374c14.789 0 27.044 5.362 36.765 16.085 8.838 9.78 13.257 21.358 13.257 34.733 0 13.434-4.67 25.173-14.008 35.219-9.339 10.046-21.343 15.069-36.014 15.069-14.73 0-26.764-5.023-36.103-15.069s-14.008-21.785-14.008-35.219c0-13.316 4.419-24.864 13.257-34.645 9.721-10.782 22.006-16.173 36.854-16.173zm0 12.108c-10.252 0-19.06 3.8-26.426 11.4-7.365 7.602-11.047 16.793-11.047 27.575 0 6.953 1.68 13.434 5.038 19.444s7.895 10.65 13.61 13.92 11.99 4.904 18.825 4.904c6.834 0 13.11-1.635 18.824-4.905 5.716-3.27 10.252-7.91 13.61-13.92 3.36-6.01 5.038-12.49 5.038-19.443 0-10.782-3.697-19.973-11.091-27.574-7.395-7.6-16.188-11.4-26.381-11.4zm70.547-9.633h12.638v14.052c3.77-5.538 7.748-9.677 11.931-12.417s8.543-4.11 13.08-4.11c3.417 0 7.07 1.09 10.959 3.27l-6.452 10.429c-2.592-1.12-4.772-1.68-6.54-1.68-4.124 0-8.101 1.695-11.93 5.082-3.83 3.388-6.747 8.647-8.75 15.776-1.532 5.48-2.298 16.556-2.298 33.23v32.524h-12.638zm69.5-37.12h12.372v133.276h-12.373v-133.275zm132.3 0v133.276h-12.196v-16.527c-5.185 6.305-11.003 11.047-17.455 14.23-6.452 3.18-13.507 4.772-21.167 4.772-13.61 0-25.232-4.935-34.865-14.804-9.634-9.869-14.45-21.874-14.45-36.014 0-13.846 4.86-25.689 14.582-35.529s21.417-14.759 35.087-14.759c7.895 0 15.039 1.68 21.431 5.038 6.393 3.358 12.005 8.396 16.837 15.113v-54.795h12.196zm-49.492 46.576c-6.894 0-13.257 1.694-19.09 5.082s-10.473 8.146-13.92 14.273c-3.447 6.128-5.17 12.609-5.17 19.444 0 6.775 1.738 13.256 5.214 19.443 3.477 6.187 8.146 11.003 14.008 14.45 5.863 3.447 12.153 5.17 18.87 5.17 6.775 0 13.197-1.709 19.266-5.126s10.738-8.042 14.008-13.875 4.905-12.403 4.905-19.709c0-11.136-3.668-20.445-11.003-27.928-7.336-7.482-16.365-11.224-27.088-11.224z"/></g></g></svg>